<svg width="95" height="95" viewBox="0 0 95 95" fill="none" xmlns="http://www.w3.org/2000/svg">
<g clip-path="url(#clip0_135_1245)">
<path d="M47.5001 8.22245C47.5001 8.22245 32.7587 22.895 32.7587 45.8261C32.7646 46.8683 32.8616 47.9079 33.0486 48.9332C30.8538 50.8038 27.7974 53.9781 27.8007 57.1589C27.8007 64.5951 32.7587 72.033 32.7587 72.033L40.1916 62.1235L42.5863 64.5182H52.4139L54.8085 62.1235L62.2415 72.0363C62.2415 72.0363 67.1995 64.5984 67.1995 57.1622C67.1995 53.9813 64.1447 50.8087 61.9515 48.9365C62.1394 47.9113 62.2364 46.8716 62.2415 45.8294C62.2415 22.8983 47.5001 8.22245 47.5001 8.22245ZM44.2242 37.6397C43.7781 37.2133 43.4217 36.7021 43.1758 36.1361C42.93 35.5701 42.7998 34.9606 42.7927 34.3436C42.7857 33.7265 42.902 33.1143 43.1348 32.5428C43.3676 31.9713 43.7122 31.452 44.1485 31.0156C44.5847 30.5791 45.1038 30.2342 45.6752 30.0011C46.2465 29.768 46.8587 29.6514 47.4758 29.6581C48.0929 29.6649 48.7024 29.7948 49.2685 30.0404C49.8347 30.2859 50.3461 30.6421 50.7727 31.088C51.6097 31.9628 52.0709 33.1306 52.0577 34.3413C52.0444 35.5519 51.5578 36.7093 50.7019 37.5657C49.8459 38.422 48.6888 38.9092 47.4781 38.9231C46.2675 38.9369 45.0995 38.4763 44.2242 37.6397Z" fill="#01DC82"/>
<path d="M50.3893 69.8545C50.3893 72.8651 47.4934 73.7856 47.4934 73.7856C47.4934 73.7856 44.5975 72.7504 44.5975 69.8545C44.5975 69.6056 44.6794 69.3828 44.74 69.1519L42.7254 69.1519C42.3798 69.8578 42.1685 70.6391 42.1685 71.4777C42.1685 74.4195 47.4934 79.574 47.4934 79.574C47.4934 79.574 52.8183 74.4162 52.8183 71.4777C52.8183 70.6391 52.607 69.8578 52.2614 69.1519H50.25C50.3074 69.3828 50.3893 69.6056 50.3893 69.8545Z" fill="#01DC82"/>
</g>
<defs>
<clipPath id="clip0_135_1245">
<rect width="67.1752" height="67.1752" fill="white" transform="translate(0 47.5) rotate(-45)"/>
</clipPath>
</defs>
</svg>
