<svg width="74" height="72" viewBox="0 0 74 72" fill="none" xmlns="http://www.w3.org/2000/svg">
<path d="M26.8291 28.6885C26.8291 30.8629 25.0658 32.6255 22.8912 32.6255C20.7166 32.6255 18.9534 30.863 18.9534 28.6885C18.9534 26.5132 20.7166 24.7506 22.8912 24.7506C25.0658 24.7506 26.8291 26.5131 26.8291 28.6885Z" fill="#01DC82"/>
<path d="M50.4538 28.6885C50.4538 30.8629 48.6913 32.6255 46.5167 32.6255C44.3415 32.6255 42.5789 30.863 42.5789 28.6885C42.5789 26.5132 44.3413 24.7506 46.5167 24.7506C48.6911 24.7506 50.4538 26.5131 50.4538 28.6885Z" fill="#01DC82"/>
<path d="M42.4543 38.2509H26.952C26.143 39.6131 25.7121 41.167 25.7035 42.7512C25.7035 45.9662 27.4189 48.9372 30.2031 50.5451C32.988 52.153 36.4188 52.153 39.2031 50.5451C41.9881 48.9372 43.7035 45.9662 43.7035 42.7512C43.6941 41.1668 43.2633 39.6131 42.4542 38.2509H42.4543Z" fill="#01DC82"/>
<path d="M34.704 67.5005C35.8293 67.5005 36.9538 67.444 38.0792 67.3318V60.5815C30.7828 61.5012 23.4274 59.4044 17.7129 54.7761C11.9978 50.1478 8.4177 43.3889 7.80016 36.0612C7.18258 28.7333 9.58071 21.4707 14.4406 15.9501C19.3003 10.431 26.2013 7.13279 33.5479 6.81819C40.8952 6.50274 48.0527 9.19915 53.3669 14.2817C58.681 19.3652 61.692 26.3964 61.7038 33.75C61.7038 34.5041 61.7038 35.2574 61.6026 35.9997H68.3529C68.3529 35.2574 68.4314 34.5033 68.4314 33.75C68.4314 27.0736 66.4515 20.5476 62.7422 14.9972C59.0328 9.44685 53.7602 5.12067 47.5923 2.56716C41.4243 0.0136383 34.6372 -0.654121 28.0894 0.650059C21.5424 1.95428 15.5284 5.17089 10.8096 9.89342C6.09032 14.6151 2.87769 20.6308 1.57813 27.1794C0.278567 33.7281 0.950343 40.5143 3.50778 46.6807C6.06591 52.847 10.3953 58.1165 15.9481 61.8228C21.5009 65.5282 28.0282 67.5033 34.7046 67.4995L34.704 67.5005Z" fill="#01DC82"/>
<path d="M58.3286 42.7507C57.4341 42.7515 56.5763 43.107 55.9439 43.7403L43.5686 56.1155L48.3382 60.8851L54.9543 54.2705V71.9999H61.7046L61.7038 54.2705L68.3191 60.8859L73.0887 56.1163L60.7134 43.7411L60.7142 43.7403C60.0817 43.107 59.224 42.7515 58.3286 42.7508V42.7507Z" fill="#01DC82"/>
</svg>
