<svg width="64" height="71" viewBox="0 0 64 71" fill="none" xmlns="http://www.w3.org/2000/svg">
<path d="M31.6657 7.76855C32.7752 7.76855 33.6634 6.88089 33.6634 5.77083V1.99773C33.6634 0.888163 32.7757 0 31.6657 0C30.5561 0 29.6679 0.887661 29.6679 1.99773V5.77083C29.6679 6.88039 30.5561 7.76855 31.6657 7.76855Z" fill="#01DC82"/>
<path d="M16.9427 10.2839C17.3127 10.9497 17.9785 11.3197 18.7185 11.3197C19.0885 11.3197 19.3842 11.2459 19.7542 11.024C20.7162 10.4321 21.0857 9.24823 20.4943 8.28669L18.6447 5.03122C18.0527 4.06925 16.8689 3.69975 15.9073 4.29116C14.9454 4.8831 14.5759 6.06693 15.1673 7.02847L16.9427 10.2839Z" fill="#01DC82"/>
<path d="M10.2101 16.9425L6.95458 15.0929C5.99262 14.501 4.7349 14.871 4.21727 15.833C3.62533 16.7949 3.99536 18.0527 4.95733 18.5703L8.2128 20.4199C8.50852 20.568 8.87855 20.7156 9.24857 20.7156C9.91431 20.7156 10.6544 20.3456 11.0243 19.6799C11.5415 18.7922 11.1714 17.5346 10.21 16.9425L10.2101 16.9425Z" fill="#01DC82"/>
<path d="M7.76855 31.6656C7.76855 30.556 6.88089 29.6678 5.77082 29.6678H1.99773C0.888163 29.6678 0 30.5555 0 31.6656C0 32.7751 0.887661 33.6633 1.99773 33.6633H5.77082C6.88039 33.7371 7.76855 32.7751 7.76855 31.6656Z" fill="#01DC82"/>
<path d="M8.21244 42.9113L4.95697 44.7609C3.99501 45.3528 3.6255 46.5367 4.21691 47.4982C4.58694 48.164 5.25267 48.534 5.99268 48.534C6.36271 48.534 6.65842 48.4602 7.02844 48.2383L10.2839 46.3886C11.2459 45.7967 11.6154 44.6129 11.024 43.6513C10.432 42.6894 9.17435 42.3193 8.21241 42.9113L8.21244 42.9113Z" fill="#01DC82"/>
<path d="M58.3742 44.7609L55.1188 42.9113C54.1568 42.3193 52.8991 42.6894 52.3815 43.6513C51.7895 44.6133 52.1595 45.871 53.1215 46.3886L56.377 48.2383C56.6727 48.3864 57.0427 48.534 57.4127 48.534C58.0785 48.534 58.8186 48.164 59.1885 47.4982C59.6318 46.5363 59.3361 45.3529 58.3741 44.7609L58.3742 44.7609Z" fill="#01DC82"/>
<path d="M61.3336 29.668H57.5605C56.451 29.668 55.5628 30.5556 55.5628 31.6657C55.5628 32.7753 56.4505 33.6634 57.5605 33.6634H61.3336C62.4432 33.6634 63.3314 32.7758 63.3314 31.6657C63.3314 30.5561 62.4437 29.668 61.3336 29.668Z" fill="#01DC82"/>
<path d="M54.0831 20.7157C54.4531 20.7157 54.7488 20.6419 55.1189 20.42L58.3743 18.5704C59.3363 17.9785 59.7058 16.7946 59.1144 15.8331C58.5225 14.8711 57.3386 14.5016 56.3771 15.093L53.1211 16.9421C52.1591 17.5341 51.7896 18.7179 52.381 19.6794C52.7516 20.4195 53.4173 20.7157 54.0831 20.7157L54.0831 20.7157Z" fill="#01DC82"/>
<path d="M43.5773 11.0239C43.873 11.172 44.243 11.3196 44.613 11.3196C45.2788 11.3196 46.0189 10.9495 46.3888 10.2838L48.2384 7.02835C48.8304 6.06638 48.4603 4.80866 47.4984 4.29103C46.5364 3.69909 45.2787 4.06912 44.761 5.0311L42.9114 8.28656C42.3195 9.17423 42.6152 10.4319 43.5772 11.0239L43.5773 11.0239Z" fill="#01DC82"/>
<path d="M32.5535 12.3555C27.1527 12.1336 22.1215 13.9832 18.2004 17.6824C14.3531 21.3817 12.2078 26.4124 12.2078 31.7396C12.2078 36.1789 13.6136 40.3219 16.3508 43.7992C18.7186 46.8328 20.4201 49.7919 21.3815 52.7517L21.4553 52.9736V60.7422C21.4553 61.7779 22.1954 62.5918 23.1568 62.7399C23.675 66.9573 27.2261 70.2122 31.5911 70.2122C35.9561 70.2122 39.5078 66.9568 40.0254 62.7399C40.9874 62.5918 41.7269 61.7779 41.7269 60.7422L41.7279 52.9736L41.8017 52.7517C42.8375 49.7182 44.4652 46.8328 46.8325 43.7992C49.7179 40.1738 51.1974 35.5869 50.9755 30.9257C50.6803 20.938 42.5417 12.7994 32.5532 12.3555H32.5535ZM31.6658 66.2165C29.5942 66.2165 27.8185 64.737 27.3747 62.813H36.0309C35.5133 64.7368 33.7375 66.2165 31.666 66.2165H31.6658ZM37.7329 58.7442H25.5988V53.7872H37.8061L37.8066 58.7442H37.7329ZM43.7255 41.2838C41.5058 44.0953 39.8782 46.9065 38.6948 49.718H24.6377C23.4538 46.8326 21.8261 44.0953 19.6069 41.21C17.4616 38.4727 16.2778 35.2174 16.2778 31.6662C16.2778 27.4488 17.9793 23.4539 21.0128 20.5685C24.0463 17.6094 28.1156 16.1291 32.3325 16.3511C40.1748 16.7211 46.6116 23.1577 46.9815 31.0001C47.2029 34.7732 46.019 38.3986 43.7255 41.284V41.2838Z" fill="#01DC82"/>
<path d="M32.1836 20.4938C31.074 20.42 30.112 21.3077 30.0383 22.4173C29.9645 23.5268 30.8521 24.4888 31.9617 24.5626C35.5871 24.7107 38.6945 27.818 38.8421 31.4429C38.9159 32.5525 39.804 33.3664 40.8398 33.3664H40.9136C42.0232 33.2926 42.9113 32.4044 42.8371 31.2211C42.7633 25.5989 37.8801 20.7157 32.1836 20.4939L32.1836 20.4938Z" fill="#01DC82"/>
</svg>
