<svg width="967" height="343" viewBox="0 0 967 343" fill="none" xmlns="http://www.w3.org/2000/svg">
<rect x="0.976868" y="128.458" width="143.598" height="41.325" rx="20.6625" transform="rotate(-45 0.976868 128.458)" fill="#E7F0F2"/>
<rect x="294.509" y="220.404" width="143.598" height="41.325" rx="20.6625" transform="rotate(135 294.509 220.404)" fill="#E7F0F2"/>
<rect x="0.639771" y="209.35" width="256.654" height="41.325" rx="20.6625" transform="rotate(-45 0.639771 209.35)" fill="#E7F0F2"/>
<rect x="294.934" y="139.598" width="258.204" height="41.5748" rx="20.7874" transform="rotate(135 294.934 139.598)" fill="#E7F0F2"/>
<circle cx="259.258" cy="144.651" r="26.3003" fill="#01DC82" stroke="#003C3C" stroke-width="8.76675"/>
<circle cx="178.604" cy="62.2448" r="26.3003" fill="#01DC82" stroke="#003C3C" stroke-width="8.76675"/>
<circle cx="97.9508" cy="60.4918" r="26.3003" fill="#01DC82" stroke="#003C3C" stroke-width="8.76675"/>
<circle cx="259.258" cy="225.305" r="26.3003" fill="#01DC82" stroke="#003C3C" stroke-width="8.76675"/>
<rect y="291.934" width="363.347" height="42.6637" rx="21.3319" transform="rotate(-45 0 291.934)" fill="#01DC82"/>
<path d="M219.691 60.3903C214.884 55.5159 217.157 47.2662 223.782 45.5408L279.896 30.9256C286.521 29.2002 292.529 35.2932 290.711 41.893L275.311 97.7971C273.493 104.397 265.212 106.554 260.405 101.679L219.691 60.3903Z" fill="#01DC82"/>
<path d="M371.322 230V63.9494H418.29V230H371.322ZM494.879 128.235H571.974V163.343H494.879V128.235ZM498.2 193.706H585.021V230H451.706V63.9494H581.937V100.243H498.2V193.706ZM611.085 230V63.9494H689.603C707.948 63.9494 724.078 67.3495 737.995 74.1496C751.912 80.9498 762.744 90.5175 770.493 102.853C778.401 115.188 782.354 129.895 782.354 146.975C782.354 163.896 778.401 178.603 770.493 191.097C762.744 203.432 751.912 213 737.995 219.8C724.078 226.6 707.948 230 689.603 230H611.085ZM658.054 192.52H687.705C697.194 192.52 705.417 190.78 712.376 187.301C719.492 183.664 725.027 178.445 728.981 171.645C732.934 164.687 734.911 156.463 734.911 146.975C734.911 137.328 732.934 129.104 728.981 122.304C725.027 115.504 719.492 110.364 712.376 106.885C705.417 103.248 697.194 101.429 687.705 101.429H658.054V192.52ZM889.853 233.321C876.728 233.321 864.551 231.265 853.322 227.153C842.252 222.884 832.606 216.874 824.382 209.125C816.317 201.376 809.991 192.283 805.405 181.845C800.819 171.25 798.526 159.626 798.526 146.975C798.526 134.323 800.819 122.779 805.405 112.341C809.991 101.746 816.317 92.5733 824.382 84.8243C832.606 77.0753 842.252 71.1449 853.322 67.0332C864.551 62.7633 876.728 60.6284 889.853 60.6284C905.193 60.6284 918.873 63.3168 930.892 68.6937C943.069 74.0706 953.19 81.8196 961.255 91.9408L931.366 118.983C925.989 112.658 920.059 107.834 913.575 104.513C907.249 101.192 900.133 99.5317 892.226 99.5317C885.425 99.5317 879.179 100.639 873.486 102.853C867.792 105.067 862.89 108.309 858.778 112.578C854.825 116.69 851.662 121.672 849.29 127.523C847.076 133.374 845.969 139.858 845.969 146.975C845.969 154.091 847.076 160.575 849.29 166.426C851.662 172.278 854.825 177.338 858.778 181.608C862.89 185.72 867.792 188.883 873.486 191.097C879.179 193.311 885.425 194.418 892.226 194.418C900.133 194.418 907.249 192.757 913.575 189.436C920.059 186.115 925.989 181.292 931.366 174.966L961.255 202.009C953.19 211.972 943.069 219.721 930.892 225.256C918.873 230.633 905.193 233.321 889.853 233.321Z" fill="#01DC82"/>
<path d="M395.757 327.344C392.081 327.344 388.658 326.746 385.488 325.552C382.363 324.311 379.629 322.588 377.286 320.383C374.989 318.131 373.197 315.489 371.91 312.457C370.624 309.424 369.981 306.116 369.981 302.532C369.981 298.948 370.624 295.64 371.91 292.608C373.197 289.575 375.012 286.956 377.355 284.751C379.698 282.499 382.432 280.776 385.557 279.582C388.681 278.341 392.104 277.721 395.826 277.721C399.777 277.721 403.384 278.41 406.646 279.788C409.909 281.121 412.665 283.119 414.917 285.784L409.127 291.229C407.381 289.345 405.429 287.944 403.269 287.025C401.11 286.06 398.766 285.578 396.239 285.578C393.712 285.578 391.392 285.991 389.278 286.818C387.211 287.645 385.396 288.817 383.834 290.333C382.317 291.849 381.123 293.641 380.25 295.709C379.423 297.777 379.009 300.051 379.009 302.532C379.009 305.013 379.423 307.288 380.25 309.355C381.123 311.423 382.317 313.215 383.834 314.731C385.396 316.247 387.211 317.419 389.278 318.246C391.392 319.073 393.712 319.487 396.239 319.487C398.766 319.487 401.11 319.027 403.269 318.108C405.429 317.143 407.381 315.696 409.127 313.766L414.917 319.28C412.665 321.899 409.909 323.897 406.646 325.276C403.384 326.654 399.754 327.344 395.757 327.344ZM431.772 298.466H455.757V305.84H431.772V298.466ZM432.461 319.142H459.685V326.654H423.502V278.41H458.72V285.922H432.461V319.142ZM498.507 326.654V285.991H482.518V278.41H523.457V285.991H507.467V326.654H498.507ZM564.09 278.41H573.049V326.654H564.09V278.41ZM539.14 326.654H530.181V278.41H539.14V326.654ZM564.779 305.978H538.382V298.328H564.779V305.978ZM579.154 326.654L600.864 278.41H609.685L631.464 326.654H622.091L603.414 283.165H606.997L588.389 326.654H579.154ZM589.147 315.489L591.559 308.459H617.611L620.023 315.489H589.147ZM637.6 326.654V278.41H646.56V319.073H671.784V326.654H637.6ZM672.102 326.654L693.812 278.41H702.634L724.413 326.654H715.04L696.362 283.165H699.946L681.338 326.654H672.102ZM682.096 315.489L684.508 308.459H710.56L712.972 315.489H682.096ZM745.504 327.344C741.737 327.344 738.13 326.815 734.684 325.758C731.238 324.656 728.504 323.254 726.482 321.554L729.584 314.593C731.513 316.109 733.903 317.373 736.751 318.384C739.6 319.395 742.518 319.9 745.504 319.9C748.031 319.9 750.076 319.624 751.638 319.073C753.2 318.522 754.349 317.787 755.084 316.868C755.819 315.903 756.187 314.823 756.187 313.628C756.187 312.158 755.659 310.986 754.602 310.113C753.545 309.194 752.167 308.482 750.467 307.977C748.812 307.425 746.952 306.92 744.884 306.461C742.862 306.001 740.818 305.473 738.75 304.875C736.728 304.232 734.867 303.428 733.167 302.463C731.513 301.452 730.158 300.12 729.101 298.466C728.044 296.812 727.516 294.698 727.516 292.125C727.516 289.506 728.205 287.117 729.584 284.957C731.008 282.752 733.144 281.006 735.993 279.719C738.888 278.387 742.541 277.721 746.952 277.721C749.846 277.721 752.718 278.088 755.567 278.823C758.415 279.559 760.897 280.615 763.01 281.994L760.184 288.955C758.025 287.668 755.796 286.726 753.499 286.129C751.202 285.486 748.996 285.164 746.883 285.164C744.401 285.164 742.38 285.463 740.818 286.06C739.301 286.657 738.176 287.438 737.441 288.403C736.751 289.368 736.407 290.471 736.407 291.712C736.407 293.182 736.912 294.376 737.923 295.295C738.98 296.168 740.335 296.858 741.989 297.363C743.689 297.868 745.573 298.374 747.641 298.879C749.708 299.339 751.753 299.867 753.775 300.464C755.842 301.062 757.703 301.843 759.357 302.808C761.057 303.773 762.413 305.082 763.424 306.736C764.48 308.39 765.009 310.481 765.009 313.008C765.009 315.581 764.297 317.97 762.872 320.176C761.494 322.335 759.357 324.081 756.463 325.414C753.568 326.7 749.915 327.344 745.504 327.344ZM788.849 327.344C785.081 327.344 781.474 326.815 778.028 325.758C774.582 324.656 771.848 323.254 769.827 321.554L772.928 314.593C774.858 316.109 777.247 317.373 780.096 318.384C782.945 319.395 785.862 319.9 788.849 319.9C791.376 319.9 793.421 319.624 794.983 319.073C796.545 318.522 797.694 317.787 798.429 316.868C799.164 315.903 799.532 314.823 799.532 313.628C799.532 312.158 799.003 310.986 797.946 310.113C796.89 309.194 795.511 308.482 793.811 307.977C792.157 307.425 790.296 306.92 788.229 306.461C786.207 306.001 784.162 305.473 782.095 304.875C780.073 304.232 778.212 303.428 776.512 302.463C774.858 301.452 773.503 300.12 772.446 298.466C771.389 296.812 770.861 294.698 770.861 292.125C770.861 289.506 771.55 287.117 772.928 284.957C774.353 282.752 776.489 281.006 779.338 279.719C782.232 278.387 785.885 277.721 790.296 277.721C793.191 277.721 796.063 278.088 798.911 278.823C801.76 279.559 804.241 280.615 806.355 281.994L803.529 288.955C801.369 287.668 799.141 286.726 796.844 286.129C794.546 285.486 792.341 285.164 790.227 285.164C787.746 285.164 785.724 285.463 784.162 286.06C782.646 286.657 781.52 287.438 780.785 288.403C780.096 289.368 779.751 290.471 779.751 291.712C779.751 293.182 780.257 294.376 781.268 295.295C782.324 296.168 783.68 296.858 785.334 297.363C787.034 297.868 788.918 298.374 790.985 298.879C793.053 299.339 795.098 299.867 797.119 300.464C799.187 301.062 801.048 301.843 802.702 302.808C804.402 303.773 805.757 305.082 806.768 306.736C807.825 308.39 808.353 310.481 808.353 313.008C808.353 315.581 807.641 317.97 806.217 320.176C804.838 322.335 802.702 324.081 799.807 325.414C796.913 326.7 793.26 327.344 788.849 327.344ZM825.508 298.466H849.493V305.84H825.508V298.466ZM826.197 319.142H853.421V326.654H817.238V278.41H852.456V285.922H826.197V319.142ZM863.409 326.654V278.41H883.258C887.531 278.41 891.184 279.099 894.217 280.477C897.295 281.856 899.661 283.832 901.315 286.405C902.97 288.978 903.797 292.033 903.797 295.571C903.797 299.109 902.97 302.165 901.315 304.738C899.661 307.265 897.295 309.217 894.217 310.596C891.184 311.928 887.531 312.594 883.258 312.594H868.371L872.369 308.528V326.654H863.409ZM894.975 326.654L882.776 309.148H892.356L904.624 326.654H894.975ZM872.369 309.493L868.371 305.22H882.845C886.796 305.22 889.76 304.37 891.735 302.67C893.757 300.97 894.768 298.604 894.768 295.571C894.768 292.493 893.757 290.126 891.735 288.472C889.76 286.818 886.796 285.991 882.845 285.991H868.371L872.369 281.58V309.493ZM925.002 326.654V307.563L927.001 313.077L906.049 278.41H915.629L932.446 306.323H927.07L944.024 278.41H952.846L931.894 313.077L933.962 307.563V326.654H925.002Z" fill="#E7F0F2"/>
</svg>
