<svg width="2107" height="761" viewBox="0 0 2107 761" fill="none" xmlns="http://www.w3.org/2000/svg">
<rect x="2.40088" y="338.746" width="313.006" height="90.0776" rx="45.0388" transform="rotate(-45 2.40088 338.746)" fill="#01DC82"/>
<rect x="642.222" y="539.165" width="313.006" height="90.0776" rx="45.0388" transform="rotate(135 642.222 539.165)" fill="#01DC82"/>
<rect x="1.66553" y="515.073" width="559.436" height="90.0776" rx="45.0388" transform="rotate(-45 1.66553 515.073)" fill="#01DC82"/>
<rect x="643.15" y="363.028" width="562.817" height="90.6219" rx="45.311" transform="rotate(135 643.15 363.028)" fill="#01DC82"/>
<circle cx="565.386" cy="374.045" r="57.3275" fill="#003C3C" stroke="white" stroke-width="19.1092"/>
<circle cx="389.583" cy="194.419" r="57.3275" fill="#003C3C" stroke="white" stroke-width="19.1092"/>
<circle cx="213.778" cy="190.597" r="57.3275" fill="#003C3C" stroke="white" stroke-width="19.1092"/>
<circle cx="565.386" cy="549.85" r="57.3275" fill="#003C3C" stroke="white" stroke-width="19.1092"/>
<rect x="0.271973" y="695.083" width="791.999" height="92.9955" rx="46.4977" transform="rotate(-45 0.271973 695.083)" fill="#003C3C"/>
<path d="M479.139 190.379C468.662 179.754 473.616 161.771 488.056 158.01L610.371 126.153C624.81 122.392 637.907 135.674 633.944 150.059L600.376 271.915C596.413 286.301 578.363 291.002 567.886 280.377L479.139 190.379Z" fill="#003C3C"/>
<path d="M808.147 500V138.054H910.526V500H808.147ZM1077.47 278.179H1245.52V354.705H1077.47V278.179ZM1084.71 420.889H1273.95V500H983.364V138.054H1267.23V217.165H1084.71V420.889ZM1330.77 500V138.054H1501.92C1541.9 138.054 1577.06 145.465 1607.4 160.288C1637.73 175.11 1661.34 195.965 1678.24 222.853C1695.47 249.74 1704.09 281.798 1704.09 319.027C1704.09 355.911 1695.47 387.969 1678.24 415.201C1661.34 442.089 1637.73 462.944 1607.4 477.766C1577.06 492.589 1541.9 500 1501.92 500H1330.77ZM1433.15 418.304H1497.78C1518.46 418.304 1536.39 414.512 1551.55 406.928C1567.07 399 1579.13 387.624 1587.75 372.802C1596.37 357.635 1600.68 339.71 1600.68 319.027C1600.68 298 1596.37 280.075 1587.75 265.252C1579.13 250.43 1567.07 239.226 1551.55 231.643C1536.39 223.714 1518.46 219.75 1497.78 219.75H1433.15V418.304ZM1938.41 507.239C1909.8 507.239 1883.25 502.758 1858.78 493.795C1834.65 484.488 1813.62 471.389 1795.7 454.498C1778.12 437.607 1764.33 417.787 1754.33 395.036C1744.34 371.94 1739.34 346.604 1739.34 319.027C1739.34 291.45 1744.34 266.286 1754.33 243.535C1764.33 220.44 1778.12 200.447 1795.7 183.556C1813.62 166.665 1834.65 153.738 1858.78 144.776C1883.25 135.469 1909.8 130.815 1938.41 130.815C1971.85 130.815 2001.66 136.675 2027.86 148.395C2054.4 160.115 2076.47 177.006 2094.05 199.068L2028.9 258.013C2017.17 244.225 2004.25 233.711 1990.12 226.472C1976.33 219.233 1960.81 215.614 1943.58 215.614C1928.76 215.614 1915.14 218.027 1902.73 222.853C1890.32 227.679 1879.64 234.745 1870.67 244.052C1862.06 253.015 1855.16 263.873 1849.99 276.628C1845.16 289.382 1842.75 303.515 1842.75 319.027C1842.75 334.539 1845.16 348.672 1849.99 361.426C1855.16 374.181 1862.06 385.211 1870.67 394.519C1879.64 403.481 1890.32 410.375 1902.73 415.201C1915.14 420.027 1928.76 422.44 1943.58 422.44C1960.81 422.44 1976.33 418.821 1990.12 411.582C2004.25 404.343 2017.17 393.829 2028.9 380.041L2094.05 438.986C2076.47 460.703 2054.4 477.594 2027.86 489.659C2001.66 501.379 1971.85 507.239 1938.41 507.239Z" fill="#003C3C"/>
<path d="M862.698 712.48C854.686 712.48 847.224 711.178 840.314 708.574C833.503 705.87 827.544 702.114 822.437 697.307C817.429 692.399 813.523 686.64 810.719 680.03C807.915 673.42 806.512 666.209 806.512 658.397C806.512 650.586 807.915 643.375 810.719 636.765C813.523 630.155 817.479 624.446 822.587 619.638C827.695 614.731 833.654 610.975 840.464 608.371C847.274 605.667 854.736 604.315 862.848 604.315C871.461 604.315 879.323 605.817 886.434 608.822C893.545 611.726 899.554 616.083 904.461 621.892L891.842 633.76C888.036 629.654 883.78 626.599 879.073 624.596C874.366 622.493 869.258 621.441 863.749 621.441C858.241 621.441 853.183 622.343 848.576 624.145C844.07 625.948 840.114 628.502 836.708 631.807C833.403 635.112 830.799 639.018 828.896 643.525C827.094 648.032 826.192 652.989 826.192 658.397C826.192 663.806 827.094 668.763 828.896 673.27C830.799 677.777 833.403 681.683 836.708 684.988C840.114 688.293 844.07 690.847 848.576 692.65C853.183 694.452 858.241 695.354 863.749 695.354C869.258 695.354 874.366 694.352 879.073 692.349C883.78 690.246 888.036 687.091 891.842 682.885L904.461 694.903C899.554 700.612 893.545 704.968 886.434 707.973C879.323 710.977 871.411 712.48 862.698 712.48ZM941.202 649.534H993.481V665.608H941.202V649.534ZM942.704 694.603H1002.04V710.977H923.174V605.817H999.941V622.192H942.704V694.603ZM1086.67 710.977V622.343H1051.81V605.817H1141.05V622.343H1106.2V710.977H1086.67ZM1229.62 605.817H1249.15V710.977H1229.62V605.817ZM1175.24 710.977H1155.71V605.817H1175.24V710.977ZM1231.12 665.909H1173.58V649.234H1231.12V665.909ZM1262.45 710.977L1309.78 605.817H1329.01L1376.48 710.977H1356.05L1315.33 616.183H1323.15L1282.58 710.977H1262.45ZM1284.24 686.64L1289.49 671.317H1346.28L1351.54 686.64H1284.24ZM1389.85 710.977V605.817H1409.38V694.452H1464.36V710.977H1389.85ZM1465.06 710.977L1512.38 605.817H1531.61L1579.08 710.977H1558.65L1517.94 616.183H1525.75L1485.19 710.977H1465.06ZM1486.84 686.64L1492.1 671.317H1548.88L1554.14 686.64H1486.84ZM1625.05 712.48C1616.84 712.48 1608.98 711.328 1601.47 709.025C1593.96 706.621 1588 703.566 1583.59 699.861L1590.35 684.687C1594.56 687.993 1599.77 690.747 1605.97 692.95C1612.18 695.153 1618.54 696.255 1625.05 696.255C1630.56 696.255 1635.02 695.654 1638.42 694.452C1641.83 693.251 1644.33 691.648 1645.94 689.645C1647.54 687.542 1648.34 685.188 1648.34 682.584C1648.34 679.379 1647.19 676.826 1644.88 674.923C1642.58 672.92 1639.58 671.367 1635.87 670.266C1632.26 669.064 1628.21 667.962 1623.7 666.961C1619.3 665.959 1614.84 664.807 1610.33 663.505C1605.92 662.103 1601.87 660.35 1598.16 658.247C1594.56 656.044 1591.6 653.139 1589.3 649.534C1587 645.929 1585.84 641.321 1585.84 635.713C1585.84 630.004 1587.35 624.796 1590.35 620.089C1593.46 615.282 1598.11 611.476 1604.32 608.672C1610.63 605.767 1618.59 604.315 1628.21 604.315C1634.52 604.315 1640.78 605.116 1646.99 606.719C1653.2 608.321 1658.6 610.625 1663.21 613.629L1657.05 628.802C1652.35 625.998 1647.49 623.945 1642.48 622.643C1637.47 621.241 1632.67 620.54 1628.06 620.54C1622.65 620.54 1618.24 621.191 1614.84 622.493C1611.53 623.795 1609.08 625.497 1607.48 627.601C1605.97 629.704 1605.22 632.107 1605.22 634.812C1605.22 638.016 1606.33 640.62 1608.53 642.623C1610.83 644.526 1613.79 646.029 1617.39 647.13C1621.1 648.232 1625.2 649.334 1629.71 650.435C1634.22 651.437 1638.67 652.589 1643.08 653.891C1647.59 655.193 1651.64 656.895 1655.25 658.998C1658.96 661.102 1661.91 663.956 1664.11 667.561C1666.42 671.167 1667.57 675.724 1667.57 681.232C1667.57 686.841 1666.02 692.049 1662.91 696.856C1659.91 701.563 1655.25 705.369 1648.94 708.273C1642.63 711.078 1634.67 712.48 1625.05 712.48ZM1719.53 712.48C1711.32 712.48 1703.46 711.328 1695.95 709.025C1688.44 706.621 1682.48 703.566 1678.07 699.861L1684.83 684.687C1689.04 687.993 1694.25 690.747 1700.45 692.95C1706.66 695.153 1713.02 696.255 1719.53 696.255C1725.04 696.255 1729.5 695.654 1732.9 694.452C1736.31 693.251 1738.81 691.648 1740.42 689.645C1742.02 687.542 1742.82 685.188 1742.82 682.584C1742.82 679.379 1741.67 676.826 1739.36 674.923C1737.06 672.92 1734.06 671.367 1730.35 670.266C1726.74 669.064 1722.69 667.962 1718.18 666.961C1713.77 665.959 1709.32 664.807 1704.81 663.505C1700.4 662.103 1696.35 660.35 1692.64 658.247C1689.04 656.044 1686.08 653.139 1683.78 649.534C1681.48 645.929 1680.32 641.321 1680.32 635.713C1680.32 630.004 1681.83 624.796 1684.83 620.089C1687.94 615.282 1692.59 611.476 1698.8 608.672C1705.11 605.767 1713.07 604.315 1722.69 604.315C1729 604.315 1735.26 605.116 1741.47 606.719C1747.68 608.321 1753.08 610.625 1757.69 613.629L1751.53 628.802C1746.83 625.998 1741.97 623.945 1736.96 622.643C1731.95 621.241 1727.15 620.54 1722.54 620.54C1717.13 620.54 1712.72 621.191 1709.32 622.493C1706.01 623.795 1703.56 625.497 1701.96 627.601C1700.45 629.704 1699.7 632.107 1699.7 634.812C1699.7 638.016 1700.81 640.62 1703.01 642.623C1705.31 644.526 1708.27 646.029 1711.87 647.13C1715.58 648.232 1719.68 649.334 1724.19 650.435C1728.7 651.437 1733.15 652.589 1737.56 653.891C1742.07 655.193 1746.12 656.895 1749.73 658.998C1753.44 661.102 1756.39 663.956 1758.59 667.561C1760.9 671.167 1762.05 675.724 1762.05 681.232C1762.05 686.841 1760.5 692.049 1757.39 696.856C1754.39 701.563 1749.73 705.369 1743.42 708.273C1737.11 711.078 1729.15 712.48 1719.53 712.48ZM1799.44 649.534H1851.72V665.608H1799.44V649.534ZM1800.94 694.603H1860.28V710.977H1781.41V605.817H1858.18V622.192H1800.94V694.603ZM1882.06 710.977V605.817H1925.32C1934.64 605.817 1942.6 607.32 1949.21 610.324C1955.92 613.329 1961.08 617.635 1964.68 623.244C1968.29 628.853 1970.09 635.513 1970.09 643.224C1970.09 650.936 1968.29 657.596 1964.68 663.205C1961.08 668.713 1955.92 672.97 1949.21 675.974C1942.6 678.879 1934.64 680.331 1925.32 680.331H1892.87L1901.58 671.467V710.977H1882.06ZM1950.86 710.977L1924.27 672.819H1945.15L1971.89 710.977H1950.86ZM1901.58 673.571L1892.87 664.256H1924.42C1933.03 664.256 1939.49 662.404 1943.8 658.698C1948.21 654.992 1950.41 649.834 1950.41 643.224C1950.41 636.514 1948.21 631.356 1943.8 627.751C1939.49 624.145 1933.03 622.343 1924.42 622.343H1892.87L1901.58 612.728V673.571ZM2016.31 710.977V669.364L2020.67 681.382L1975 605.817H1995.88L2032.54 666.66H2020.82L2057.77 605.817H2077L2031.33 681.382L2035.84 669.364V710.977H2016.31Z" fill="#003C3C"/>
</svg>
