<svg width="500" height="500" viewBox="0 0 500 500" fill="none" xmlns="http://www.w3.org/2000/svg">
<path d="M436.24 211.17C424.84 196.84 423.39 177.81 421.96 160.27C420.65 144 413.82 125.2 402 113.16C393.16 104.16 381.19 99.59 368.67 99.04C349.76 98.2 331.43 104.42 313.01 107.62C274.01 114.39 272.01 75.52 190.14 79.62C108.27 83.72 90.6901 132.74 86.7901 166.18C82.8901 199.62 118.97 213.55 102.39 239.18C85.8101 264.81 68.2601 269.97 75.0901 302.62C81.9201 335.27 104.34 354.1 154.09 355.33C203.84 356.56 232.09 309.61 261.36 307.46C290.63 305.31 306.2 355.81 373.49 347C404.17 343 433.42 325.47 446.92 296.91C454.82 280.21 456.25 260.81 451.92 242.91C449.883 234.273 446.433 226.032 441.71 218.52C440.011 215.98 438.185 213.527 436.24 211.17Z" fill="#01DC82"/>
<path opacity="0.7" d="M436.24 211.17C424.84 196.84 423.39 177.81 421.96 160.27C420.65 144 413.82 125.2 402 113.16C393.16 104.16 381.19 99.59 368.67 99.04C349.76 98.2 331.43 104.42 313.01 107.62C274.01 114.39 272.01 75.52 190.14 79.62C108.27 83.72 90.6901 132.74 86.7901 166.18C82.8901 199.62 118.97 213.55 102.39 239.18C85.8101 264.81 68.2601 269.97 75.0901 302.62C81.9201 335.27 104.34 354.1 154.09 355.33C203.84 356.56 232.09 309.61 261.36 307.46C290.63 305.31 306.2 355.81 373.49 347C404.17 343 433.42 325.47 446.92 296.91C454.82 280.21 456.25 260.81 451.92 242.91C449.883 234.273 446.433 226.032 441.71 218.52C440.011 215.98 438.185 213.527 436.24 211.17Z" fill="white"/>
<path d="M429 249.89C428.276 238.51 424.637 227.507 418.432 217.94C412.228 208.372 403.666 200.562 393.57 195.26C400.191 180.818 401.418 164.481 397.029 149.212C392.641 133.942 382.926 120.751 369.647 112.028C356.368 103.306 340.403 99.6297 324.647 101.666C308.89 103.703 294.385 111.318 283.76 123.13C277.323 107.644 265.27 95.1641 250.018 88.1915C234.766 81.2189 217.442 80.2694 201.519 85.5331C185.596 90.7969 172.251 101.885 164.16 116.574C156.069 131.264 153.829 148.469 157.89 164.74C155.89 164.55 153.78 164.44 151.69 164.44C141.339 164.44 131.131 166.858 121.879 171.501C112.628 176.144 104.589 182.883 98.4025 191.183C92.2165 199.482 88.0547 209.112 86.2486 219.304C84.4426 229.497 85.0424 239.97 88.0001 249.89H429Z" fill="#01DC82" stroke="#263238" stroke-linecap="round" stroke-linejoin="round"/>
<path d="M88.0002 249.89H429C428.86 247.72 428.62 245.57 428.28 243.47H86.4302C86.846 245.635 87.37 247.778 88.0002 249.89Z" fill="#263238" stroke="#263238" stroke-width="0.75" stroke-linecap="round" stroke-linejoin="round"/>
<path d="M196.9 141.82L199.31 140.72L198.8 137.83L196.14 137.62C195.804 136.726 195.354 135.879 194.8 135.1L196.18 132.78L194.1 130.7L191.76 132.09C190.419 131.174 188.899 130.554 187.3 130.27L186.63 127.6H183.69L183.01 130.28C182.097 130.455 181.208 130.737 180.36 131.12L178.26 129.3L175.85 131L176.85 133.6C176.207 134.265 175.64 134.999 175.16 135.79L172.4 135.51L171.4 138.27L173.69 139.83C173.583 140.491 173.529 141.16 173.53 141.83C173.53 142.11 173.53 142.38 173.53 142.66L171.12 144L171.88 146.84H174.61C175.009 147.693 175.513 148.493 176.11 149.22L174.93 151.67L177.18 153.56L179.37 152C180.203 152.439 181.086 152.775 182 153L182.43 155.63L185.36 155.89L186.25 153.4C187.211 153.311 188.158 153.106 189.07 152.79L190.92 154.66L193.46 153.19L192.76 150.66C193.514 150.037 194.186 149.321 194.76 148.53L197.35 149L198.59 146.34L196.59 144.66C196.809 143.73 196.913 142.776 196.9 141.82ZM192.55 141.82C192.552 143.274 192.123 144.696 191.316 145.906C190.51 147.116 189.363 148.06 188.02 148.618C186.677 149.175 185.199 149.322 183.772 149.04C182.346 148.758 181.035 148.058 180.006 147.031C178.978 146.003 178.277 144.694 177.992 143.268C177.708 141.842 177.853 140.363 178.409 139.02C178.965 137.676 179.907 136.527 181.116 135.719C182.325 134.911 183.746 134.48 185.2 134.48C187.14 134.477 189.002 135.243 190.379 136.609C191.756 137.975 192.537 139.83 192.55 141.77V141.82Z" fill="#263238"/>
<path d="M86.8701 219.38H140.19L148.79 227.98H423.58" stroke="#263238" stroke-linecap="round" stroke-linejoin="round"/>
<path d="M282.96 243.9V138.97H345.32V102.84" stroke="#263238" stroke-linecap="round" stroke-linejoin="round"/>
<path d="M248.8 116.51L250.28 115.84L249.97 114.07L248.34 113.94C248.132 113.396 247.86 112.879 247.53 112.4L248.36 110.98L247.09 109.71L245.67 110.56C244.847 110.004 243.917 109.626 242.94 109.45L242.53 107.82H240.73L240.31 109.46C239.756 109.568 239.215 109.739 238.7 109.97L237.41 108.86L235.94 109.86L236.55 111.45C236.163 111.854 235.827 112.304 235.55 112.79L233.86 112.62L233.25 114.31L234.65 115.31C234.581 115.703 234.547 116.101 234.55 116.5C234.54 116.667 234.54 116.833 234.55 117L233.07 117.83L233.54 119.56H235.21C235.449 120.084 235.755 120.575 236.12 121.02L235.4 122.52L236.78 123.67L238.11 122.72C238.617 123.012 239.158 123.24 239.72 123.4L240 125L241.79 125.15L242.33 123.63C242.917 123.58 243.495 123.456 244.05 123.26L245.18 124.4L246.74 123.51L246.31 121.96C246.763 121.575 247.166 121.135 247.51 120.65L249.09 120.94L249.85 119.31L248.61 118.31C248.749 117.72 248.812 117.116 248.8 116.51ZM246.14 116.51C246.14 117.398 245.876 118.267 245.383 119.006C244.889 119.744 244.187 120.32 243.366 120.659C242.545 120.999 241.642 121.087 240.77 120.913C239.899 120.739 239.099 120.31 238.472 119.681C237.844 119.052 237.417 118.251 237.245 117.38C237.073 116.508 237.163 115.605 237.505 114.785C237.846 113.965 238.423 113.264 239.163 112.772C239.903 112.28 240.772 112.018 241.66 112.02C242.845 112.02 243.981 112.489 244.821 113.325C245.66 114.161 246.135 115.295 246.14 116.48V116.51Z" fill="#263238"/>
<path d="M271.57 136.79L273.05 136.12L272.74 134.35L271.11 134.22C270.905 133.673 270.629 133.155 270.29 132.68L271.13 131.26L269.86 130L268.43 130.85C267.613 130.288 266.686 129.906 265.71 129.73L265.3 128.1H263.5L263.08 129.74C262.525 129.851 261.985 130.026 261.47 130.26L260.18 129.15L258.71 130.15L259.32 131.74C258.933 132.144 258.597 132.594 258.32 133.08L256.63 132.9L256.02 134.59L257.42 135.54C257.351 135.936 257.318 136.338 257.32 136.74C257.31 136.907 257.31 137.073 257.32 137.24L255.84 138.07L256.31 139.8H257.98C258.223 140.322 258.529 140.812 258.89 141.26L258.17 142.75L259.55 143.91L260.88 142.91C261.386 143.203 261.927 143.431 262.49 143.59L262.76 145.2L264.55 145.36L265.09 143.84C265.676 143.782 266.254 143.655 266.81 143.46L267.94 144.61L269.5 143.71L269.07 142.16C269.523 141.779 269.927 141.342 270.27 140.86L271.85 141.15L272.61 139.52L271.37 138.52C271.506 137.954 271.573 137.373 271.57 136.79ZM268.91 136.79C268.91 137.678 268.647 138.546 268.153 139.285C267.66 140.023 266.959 140.598 266.138 140.938C265.318 141.278 264.415 141.367 263.544 141.194C262.673 141.02 261.873 140.593 261.245 139.965C260.617 139.337 260.19 138.537 260.016 137.666C259.843 136.795 259.932 135.892 260.272 135.072C260.612 134.251 261.187 133.55 261.926 133.057C262.664 132.563 263.532 132.3 264.42 132.3C265.606 132.3 266.743 132.769 267.584 133.604C268.426 134.44 268.902 135.574 268.91 136.76V136.79Z" fill="#263238"/>
<path d="M119.12 215.08C122.445 215.08 125.14 212.385 125.14 209.06C125.14 205.735 122.445 203.04 119.12 203.04C115.795 203.04 113.1 205.735 113.1 209.06C113.1 212.385 115.795 215.08 119.12 215.08Z" fill="#263238"/>
<path d="M119.12 213.79C121.732 213.79 123.85 211.672 123.85 209.06C123.85 206.448 121.732 204.33 119.12 204.33C116.508 204.33 114.39 206.448 114.39 209.06C114.39 211.672 116.508 213.79 119.12 213.79Z" fill="#01DC82" stroke="#263238" stroke-linecap="round" stroke-linejoin="round"/>
<path d="M227.48 194.73H179.32V218.38H227.48V194.73Z" fill="white" stroke="#263238" stroke-width="0.75" stroke-linecap="round" stroke-linejoin="round"/>
<path d="M210.28 145.71H162.12V243.76H210.28V145.71Z" fill="white" stroke="#263238" stroke-width="0.75" stroke-linecap="round" stroke-linejoin="round"/>
<path d="M335 234.72H223.29L234.47 169.07H323.82L335 234.72Z" fill="white" stroke="#263238" stroke-width="0.75" stroke-linecap="round" stroke-linejoin="round"/>
<path d="M248.99 172.37H237.81V180.54H248.99V172.37Z" fill="#263238"/>
<path d="M263.61 172.37H252.43V180.54H263.61V172.37Z" fill="#263238"/>
<path d="M315.64 172.37H288.12V180.54H315.64V172.37Z" fill="#263238"/>
<path d="M344.02 178.11H214.26V243.76H344.02V178.11Z" fill="white" stroke="#263238" stroke-width="0.75" stroke-linecap="round" stroke-linejoin="round"/>
<path d="M264.47 183.98H262.75V201.61H264.47V183.98Z" fill="#263238"/>
<path d="M270.49 183.98H268.77V201.61H270.49V183.98Z" fill="#263238"/>
<path d="M276.51 183.98H274.79V201.61H276.51V183.98Z" fill="#263238"/>
<path d="M324.67 183.98H322.95V201.61H324.67V183.98Z" fill="#263238"/>
<path d="M330.7 183.98H328.98V201.61H330.7V183.98Z" fill="#263238"/>
<path d="M336.72 183.98H335V201.61H336.72V183.98Z" fill="#263238"/>
<path d="M344.02 199.03H214.26V214.08H344.02V199.03Z" fill="white" stroke="#263238" stroke-width="0.75" stroke-linecap="round" stroke-linejoin="round"/>
<path d="M268.34 201.61H264.47V205.48H268.34V201.61Z" fill="#263238"/>
<path d="M276.73 201.61H272.86V205.48H276.73V201.61Z" fill="#263238"/>
<path d="M285.11 201.61H281.24V205.48H285.11V201.61Z" fill="#263238"/>
<path d="M268.34 207.85H264.47V211.72H268.34V207.85Z" fill="#263238"/>
<path d="M276.73 207.85H272.86V211.72H276.73V207.85Z" fill="#263238"/>
<path d="M285.11 207.85H281.24V211.72H285.11V207.85Z" fill="#263238"/>
<path d="M189 215.59H185.13V219.46H189V215.59Z" fill="#263238"/>
<path d="M197.38 215.59H193.51V219.46H197.38V215.59Z" fill="#263238"/>
<path d="M205.77 215.59H201.9V219.46H205.77V215.59Z" fill="#263238"/>
<path d="M323.6 207.85H319.73V211.72H323.6V207.85Z" fill="#263238"/>
<path d="M331.98 207.85H328.11V211.72H331.98V207.85Z" fill="#263238"/>
<path d="M340.37 207.85H336.5V211.72H340.37V207.85Z" fill="#263238"/>
<path d="M344.02 214.08H214.26V220.1H344.02V214.08Z" fill="#263238" stroke="#263238" stroke-width="0.75" stroke-linecap="round" stroke-linejoin="round"/>
<path d="M206.85 175.81C206.85 176.235 206.724 176.651 206.488 177.004C206.251 177.358 205.916 177.634 205.523 177.796C205.13 177.959 204.698 178.002 204.281 177.919C203.864 177.836 203.48 177.631 203.18 177.33C202.879 177.03 202.674 176.647 202.591 176.229C202.508 175.812 202.551 175.38 202.714 174.987C202.876 174.594 203.152 174.259 203.506 174.022C203.859 173.786 204.275 173.66 204.7 173.66C205.27 173.66 205.817 173.887 206.22 174.29C206.624 174.693 206.85 175.24 206.85 175.81Z" fill="#263238"/>
<path d="M191.23 151.81C191.23 152.235 191.104 152.651 190.868 153.004C190.632 153.358 190.296 153.634 189.903 153.796C189.51 153.959 189.078 154.002 188.661 153.919C188.244 153.836 187.861 153.631 187.56 153.33C187.259 153.03 187.054 152.647 186.971 152.229C186.889 151.812 186.931 151.38 187.094 150.987C187.257 150.594 187.532 150.259 187.886 150.022C188.239 149.786 188.655 149.66 189.08 149.66C189.65 149.66 190.197 149.887 190.6 150.29C191.004 150.693 191.23 151.24 191.23 151.81Z" fill="#263238"/>
<path d="M206.85 151.81C206.85 152.235 206.724 152.651 206.488 153.004C206.251 153.358 205.916 153.634 205.523 153.796C205.13 153.959 204.698 154.002 204.281 153.919C203.864 153.836 203.48 153.631 203.18 153.33C202.879 153.03 202.674 152.647 202.591 152.229C202.508 151.812 202.551 151.38 202.714 150.987C202.876 150.594 203.152 150.259 203.506 150.022C203.859 149.786 204.275 149.66 204.7 149.66C205.269 149.663 205.815 149.89 206.217 150.293C206.62 150.695 206.847 151.241 206.85 151.81Z" fill="#263238"/>
<path d="M206.85 187.85C206.85 188.275 206.724 188.691 206.488 189.044C206.251 189.398 205.916 189.674 205.523 189.836C205.13 189.999 204.698 190.042 204.281 189.959C203.864 189.876 203.48 189.671 203.18 189.37C202.879 189.07 202.674 188.687 202.591 188.269C202.508 187.852 202.551 187.42 202.714 187.027C202.876 186.634 203.152 186.299 203.506 186.062C203.859 185.826 204.275 185.7 204.7 185.7C205.27 185.7 205.817 185.927 206.22 186.33C206.624 186.733 206.85 187.28 206.85 187.85Z" fill="#263238"/>
<path d="M206.85 199.89C206.85 200.315 206.724 200.731 206.488 201.084C206.251 201.438 205.916 201.714 205.523 201.876C205.13 202.039 204.698 202.082 204.281 201.999C203.864 201.916 203.48 201.711 203.18 201.41C202.879 201.11 202.674 200.726 202.591 200.309C202.508 199.892 202.551 199.46 202.714 199.067C202.876 198.674 203.152 198.339 203.506 198.102C203.859 197.866 204.275 197.74 204.7 197.74C205.27 197.74 205.817 197.967 206.22 198.37C206.624 198.773 206.85 199.32 206.85 199.89Z" fill="#263238"/>
<path d="M230.93 187.85C230.93 186.663 230.578 185.503 229.919 184.517C229.26 183.53 228.323 182.761 227.226 182.307C226.13 181.853 224.924 181.734 223.76 181.965C222.596 182.197 221.527 182.768 220.688 183.607C219.848 184.446 219.277 185.516 219.045 186.679C218.814 187.843 218.933 189.05 219.387 190.146C219.841 191.242 220.61 192.18 221.597 192.839C222.583 193.498 223.743 193.85 224.93 193.85C226.521 193.85 228.048 193.218 229.173 192.093C230.298 190.967 230.93 189.441 230.93 187.85Z" fill="#263238"/>
<path d="M229.64 187.85C229.64 186.914 229.363 186 228.843 185.222C228.323 184.444 227.585 183.838 226.72 183.48C225.856 183.122 224.905 183.028 223.987 183.211C223.07 183.393 222.227 183.844 221.566 184.505C220.904 185.167 220.454 186.01 220.271 186.927C220.089 187.845 220.182 188.796 220.54 189.66C220.898 190.524 221.504 191.263 222.282 191.783C223.06 192.303 223.975 192.58 224.91 192.58C226.165 192.58 227.368 192.082 228.255 191.195C229.142 190.308 229.64 189.104 229.64 187.85Z" fill="white" stroke="#263238" stroke-width="0.75" stroke-linecap="round" stroke-linejoin="round"/>
<path d="M197.38 198.17C197.38 196.983 197.028 195.823 196.369 194.837C195.71 193.85 194.773 193.081 193.676 192.627C192.58 192.173 191.373 192.054 190.21 192.285C189.046 192.517 187.977 193.088 187.137 193.927C186.298 194.766 185.727 195.836 185.495 196.999C185.264 198.163 185.383 199.37 185.837 200.466C186.291 201.562 187.06 202.5 188.047 203.159C189.033 203.818 190.193 204.17 191.38 204.17C192.971 204.17 194.498 203.538 195.623 202.413C196.748 201.287 197.38 199.761 197.38 198.17Z" fill="#263238"/>
<path d="M196.09 198.17C196.09 197.234 195.813 196.32 195.293 195.542C194.773 194.764 194.035 194.158 193.17 193.8C192.306 193.442 191.355 193.348 190.437 193.531C189.52 193.713 188.677 194.164 188.016 194.825C187.354 195.487 186.904 196.33 186.721 197.247C186.539 198.165 186.632 199.116 186.99 199.98C187.348 200.844 187.954 201.583 188.732 202.103C189.51 202.623 190.425 202.9 191.36 202.9C192.615 202.9 193.818 202.402 194.705 201.515C195.592 200.628 196.09 199.424 196.09 198.17Z" fill="white" stroke="#263238" stroke-width="0.75" stroke-linecap="round" stroke-linejoin="round"/>
<path d="M209 211.5H173.73V241.6" stroke="#263238" stroke-width="0.75" stroke-linecap="round" stroke-linejoin="round"/>
<path d="M207.71 157.75H185.77L176.96 148.93H164.27" stroke="#263238" stroke-width="0.75" stroke-linecap="round" stroke-linejoin="round"/>
<path d="M282.1 185.27H290.27" stroke="#263238" stroke-width="0.75" stroke-linecap="round" stroke-linejoin="round"/>
<path d="M282.1 188.71H290.27" stroke="#263238" stroke-width="0.75" stroke-linecap="round" stroke-linejoin="round"/>
<path d="M282.1 192.15H290.27" stroke="#263238" stroke-width="0.75" stroke-linecap="round" stroke-linejoin="round"/>
<path d="M366.67 156.15C365.868 155.943 365.021 156 364.254 156.312C363.487 156.623 362.841 157.173 362.41 157.88C360.83 160.4 362.57 166.55 363.2 168.13C363.83 169.71 366.35 168.76 366.35 168.76L367.14 170.76L369.35 170.45V167.61C370.309 165.319 370.74 162.841 370.61 160.36C370.29 156.62 367.61 156.15 366.67 156.15Z" fill="white" stroke="#263238" stroke-width="0.75" stroke-linecap="round" stroke-linejoin="round"/>
<path d="M366.37 183.98L355.07 184.29L367.76 185.84L366.37 183.98Z" fill="white" stroke="#263238" stroke-width="0.75" stroke-linecap="round" stroke-linejoin="round"/>
<path d="M362.57 210.05C362.57 210.05 362.06 221.65 361.74 226.22C361.42 230.79 361.27 241.35 361.27 241.35H362.53L365.05 221.81L366.51 209.89L362.57 210.05Z" fill="white" stroke="#263238" stroke-width="0.75" stroke-linecap="round" stroke-linejoin="round"/>
<path d="M367.77 209.89L370.1 227.17L376.71 241.35H377.98L372.77 226.38L372.34 210.05L367.77 209.89Z" fill="white" stroke="#263238" stroke-width="0.75" stroke-linecap="round" stroke-linejoin="round"/>
<path d="M361.27 241.35L357.96 244.98L362.53 243.25V241.35H361.27Z" fill="white" stroke="#263238" stroke-width="0.75" stroke-linecap="round" stroke-linejoin="round"/>
<path d="M376.71 241.35L373.4 244.98L377.98 243.25V241.35H376.71Z" fill="white" stroke="#263238" stroke-width="0.75" stroke-linecap="round" stroke-linejoin="round"/>
<path d="M367.14 170.8C367.14 170.8 363.51 178.05 363.51 179C363.51 179.95 366.19 185.15 366.19 185.15L361.45 217.76H374.37L373.29 200.59C373.72 197.488 373.557 194.332 372.81 191.29C371.55 187.2 370.45 184.36 370.45 184.36L372.02 177.42L369.35 170.49L367.14 170.8Z" fill="#263238" stroke="#263238" stroke-width="0.75" stroke-linecap="round" stroke-linejoin="round"/>
<path d="M370.61 160.4C370.29 156.62 367.61 156.15 366.67 156.15C365.868 155.943 365.021 156 364.254 156.312C363.487 156.623 362.841 157.173 362.41 157.88C362.225 158.193 362.084 158.529 361.99 158.88C362.446 158.53 363.015 158.362 363.588 158.409C364.161 158.455 364.696 158.712 365.09 159.13C366.82 160.86 365.09 161.97 365.88 162.91C366.67 163.85 368.56 163.07 368.24 164.65C368.059 165.194 368.073 165.783 368.279 166.318C368.486 166.852 368.871 167.298 369.37 167.58C370.316 165.31 370.74 162.856 370.61 160.4Z" fill="#263238" stroke="#263238" stroke-width="0.75" stroke-linecap="round" stroke-linejoin="round"/>
<path d="M376.44 161C376.44 161.593 376.264 162.173 375.934 162.667C375.605 163.16 375.136 163.545 374.588 163.772C374.04 163.999 373.437 164.058 372.855 163.942C372.273 163.827 371.738 163.541 371.319 163.121C370.899 162.702 370.613 162.167 370.498 161.585C370.382 161.003 370.441 160.4 370.668 159.852C370.895 159.304 371.28 158.835 371.773 158.506C372.267 158.176 372.847 158 373.44 158C374.236 158 374.999 158.316 375.561 158.879C376.124 159.441 376.44 160.204 376.44 161Z" fill="#263238" stroke="#263238" stroke-width="0.75" stroke-linecap="round" stroke-linejoin="round"/>
<path d="M350.27 180.27L357.08 191.72L358.17 191.1L351.36 179.5L350.27 180.27Z" fill="white" stroke="#263238" stroke-width="0.75" stroke-linecap="round" stroke-linejoin="round"/>
<path d="M369.66 174.59C369.443 174.499 369.208 174.461 368.973 174.479C368.739 174.497 368.512 174.57 368.311 174.693C368.111 174.817 367.943 174.986 367.821 175.187C367.699 175.388 367.627 175.615 367.61 175.85C367.3 177.74 366.04 186.25 366.04 186.25H353.27L354.53 187.35L368.08 188.93L370.45 177.93C370.63 177.662 370.752 177.361 370.809 177.044C370.867 176.727 370.858 176.401 370.784 176.088C370.71 175.774 370.572 175.479 370.378 175.221C370.185 174.964 369.94 174.749 369.66 174.59Z" fill="white" stroke="#263238" stroke-width="0.75" stroke-linecap="round" stroke-linejoin="round"/>
<path d="M310.74 191.91H307.25V197.88H310.74V191.91Z" fill="white" stroke="#263238" stroke-width="0.75" stroke-linecap="round" stroke-linejoin="round"/>
<path d="M305.98 189.19H304.57V192.01H305.98V189.19Z" fill="white" stroke="#263238" stroke-width="0.75" stroke-linecap="round" stroke-linejoin="round"/>
<path d="M313.24 189.19H311.83V192.01H313.24V189.19Z" fill="white" stroke="#263238" stroke-width="0.75" stroke-linecap="round" stroke-linejoin="round"/>
<path d="M308.9 184.63H308.89C307.161 184.63 305.76 186.031 305.76 187.76V192.52C305.76 194.249 307.161 195.65 308.89 195.65H308.9C310.629 195.65 312.03 194.249 312.03 192.52V187.76C312.03 186.031 310.629 184.63 308.9 184.63Z" fill="#263238" stroke="#263238" stroke-width="0.75" stroke-linecap="round" stroke-linejoin="round"/>
<path d="M300 220.99L294.67 221.66L296.33 242.99H297.83L298.33 226.82L302 226.53L300 220.99Z" fill="white" stroke="#263238" stroke-width="0.75" stroke-linecap="round" stroke-linejoin="round"/>
<path d="M317 220.99L322.33 221.66L320.67 242.99H319.17L318.67 226.82L315 226.53L317 220.99Z" fill="white" stroke="#263238" stroke-width="0.75" stroke-linecap="round" stroke-linejoin="round"/>
<path d="M297.5 196.53H320L314.75 226.53H302L297.5 196.53Z" fill="#01DC82" stroke="#263238" stroke-width="0.75" stroke-linecap="round" stroke-linejoin="round"/>
<path d="M297.5 196.53L291.38 207.53L289.13 203.28L287.75 203.66L290.63 212.28L298.5 204.66L297.5 196.53Z" fill="#01DC82" stroke="#263238" stroke-width="0.75" stroke-linecap="round" stroke-linejoin="round"/>
<path d="M320 196.53L326.52 196.69L328.89 191.19L330.26 191.57L327.39 200.19L318.5 204.78L320 196.53Z" fill="#01DC82" stroke="#263238" stroke-width="0.75" stroke-linecap="round" stroke-linejoin="round"/>
<path d="M289.13 203.28L290 202.66V201.28L289.73 201.22L289.3 201.76L288.25 199.91L286.96 200.91L287.75 203.66L289.13 203.28Z" fill="white" stroke="#263238" stroke-width="0.75" stroke-linecap="round" stroke-linejoin="round"/>
<path d="M328.89 191.19L328.01 190.57V189.19L328.28 189.14L328.71 189.67L329.76 187.82L331.06 188.82L330.26 191.57L328.89 191.19Z" fill="white" stroke="#263238" stroke-width="0.75" stroke-linecap="round" stroke-linejoin="round"/>
<path d="M309.79 227.66H307.08V238.83H309.79V227.66Z" fill="white" stroke="#263238" stroke-width="0.75" stroke-linecap="round" stroke-linejoin="round"/>
<path d="M323.69 244.16L310.44 241.41V232.49H306.44V241.41L293.19 244.16V245.82L307.44 243.61V246H309.44V243.62L323.69 245.83V244.16Z" fill="#263238" stroke="#263238" stroke-width="0.75" stroke-linecap="round" stroke-linejoin="round"/>
<path d="M316.85 228.32H299.98L298 202.66H318.83L316.85 228.32Z" fill="#263238" stroke="#263238" stroke-width="0.75" stroke-linecap="round" stroke-linejoin="round"/>
<path d="M312.33 195.16H305.5V196.49H312.33V195.16Z" fill="white" stroke="#263238" stroke-width="0.75" stroke-linecap="round" stroke-linejoin="round"/>
<path d="M240.57 191.91H237.08V197.88H240.57V191.91Z" fill="white" stroke="#263238" stroke-width="0.75" stroke-linecap="round" stroke-linejoin="round"/>
<path d="M235.81 189.19H234.4V192.01H235.81V189.19Z" fill="white" stroke="#263238" stroke-width="0.75" stroke-linecap="round" stroke-linejoin="round"/>
<path d="M243.07 189.19H241.66V192.01H243.07V189.19Z" fill="white" stroke="#263238" stroke-width="0.75" stroke-linecap="round" stroke-linejoin="round"/>
<path d="M238.72 195.65C237.89 195.65 237.094 195.32 236.507 194.733C235.92 194.146 235.59 193.35 235.59 192.52V187.77C235.59 186.939 235.92 186.142 236.506 185.553C237.093 184.965 237.889 184.633 238.72 184.63C239.552 184.633 240.349 184.964 240.938 185.553C241.526 186.141 241.857 186.938 241.86 187.77V192.52C241.857 193.351 241.525 194.147 240.937 194.734C240.348 195.321 239.551 195.65 238.72 195.65Z" fill="#263238" stroke="#263238" stroke-width="0.75" stroke-linecap="round" stroke-linejoin="round"/>
<path d="M229.83 220.99L224.5 221.66L226.17 242.99H227.67L228.17 226.82L231.83 226.53L229.83 220.99Z" fill="white" stroke="#263238" stroke-width="0.75" stroke-linecap="round" stroke-linejoin="round"/>
<path d="M246.83 220.99L252.17 221.66L250.5 242.99H249L248.5 226.82L244.83 226.53L246.83 220.99Z" fill="white" stroke="#263238" stroke-width="0.75" stroke-linecap="round" stroke-linejoin="round"/>
<path d="M227.33 196.53H249.83L244.58 226.53H231.83L227.33 196.53Z" fill="#01DC82" stroke="#263238" stroke-width="0.75" stroke-linecap="round" stroke-linejoin="round"/>
<path d="M227.33 196.53L221.21 207.53L218.96 203.28L217.58 203.66L220.46 212.28L228.33 204.66L227.33 196.53Z" fill="#01DC82" stroke="#263238" stroke-width="0.75" stroke-linecap="round" stroke-linejoin="round"/>
<path d="M249.83 196.53L255.96 207.53L258.21 203.28L259.58 203.66L256.71 212.28L248.33 204.78L249.83 196.53Z" fill="#01DC82" stroke="#263238" stroke-width="0.75" stroke-linecap="round" stroke-linejoin="round"/>
<path d="M218.96 203.28L219.83 202.66V201.28L219.56 201.22L219.14 201.76L218.08 199.91L216.79 200.91L217.58 203.66L218.96 203.28Z" fill="white" stroke="#263238" stroke-width="0.75" stroke-linecap="round" stroke-linejoin="round"/>
<path d="M258.21 203.28L257.33 202.66V201.28L257.6 201.22L258.03 201.76L259.08 199.91L260.37 200.91L259.58 203.66L258.21 203.28Z" fill="white" stroke="#263238" stroke-width="0.75" stroke-linecap="round" stroke-linejoin="round"/>
<path d="M239.63 227.66H236.92V238.83H239.63V227.66Z" fill="white" stroke="#263238" stroke-width="0.75" stroke-linecap="round" stroke-linejoin="round"/>
<path d="M253.52 244.16L240.27 241.41V232.49H236.27V241.41L223 244.16V245.82L237.25 243.61V246H239.25V243.62L253.5 245.83L253.52 244.16Z" fill="#263238" stroke="#263238" stroke-width="0.75" stroke-linecap="round" stroke-linejoin="round"/>
<path d="M246.69 228.32H229.81L227.83 202.66H248.67L246.69 228.32Z" fill="#263238" stroke="#263238" stroke-width="0.75" stroke-linecap="round" stroke-linejoin="round"/>
<path d="M242.16 195.16H235.33V196.49H242.16V195.16Z" fill="white" stroke="#263238" stroke-width="0.75" stroke-linecap="round" stroke-linejoin="round"/>
<path d="M168.38 162V156.89C168.376 156.162 168.612 155.453 169.051 154.873C169.49 154.293 170.108 153.873 170.81 153.68C171.426 153.523 172.055 153.426 172.69 153.39C173.644 153.313 174.594 153.57 175.379 154.118C176.163 154.665 176.733 155.468 176.99 156.39C177.49 157.71 176.99 164.83 176.99 164.83C176.722 165.171 176.344 165.407 175.92 165.498C175.496 165.589 175.054 165.53 174.67 165.33V167H168.55L168.38 162Z" fill="white" stroke="#263238" stroke-width="0.75" stroke-linecap="round" stroke-linejoin="round"/>
<path d="M177 156.36C176.741 155.44 176.171 154.637 175.387 154.09C174.603 153.543 173.653 153.285 172.7 153.36C172.065 153.396 171.436 153.493 170.82 153.65C170.118 153.843 169.5 154.263 169.061 154.843C168.622 155.423 168.386 156.132 168.39 156.86V162L168.46 164.14C169.083 164.54 169.8 164.771 170.54 164.81C171.363 164.915 172.199 164.82 172.977 164.533C173.756 164.246 174.453 163.775 175.01 163.16L173.69 162.33L173.03 159.33L174.52 159L175.01 161.15H175.84L175.68 158.67H176.68L177 156.36Z" fill="#263238" stroke="#263238" stroke-width="0.75" stroke-linecap="round" stroke-linejoin="round"/>
<path d="M175.99 166.62H166.72V168.94H175.99V166.62Z" fill="white" stroke="#263238" stroke-width="0.75" stroke-linecap="round" stroke-linejoin="round"/>
<path d="M158.78 183.84L163.58 177.22L166.06 190.47H178.81L180.63 178.22L188.58 180.53L194.71 164.97L193.05 164.47L187.26 174.57L180.8 168.44H162.75L154.97 182.85L161.92 195.6L163.41 195.1L158.78 183.84Z" fill="#01DC82" stroke="#263238" stroke-width="0.75" stroke-linecap="round" stroke-linejoin="round"/>
<path d="M166.06 190.47L165.56 197.09L160.76 242.96H162.59L172.19 200.74H173.35L183.94 242.3H186.1L179.47 195.77L178.81 190.47H166.06Z" fill="#263238" stroke="#263238" stroke-width="0.75" stroke-linecap="round" stroke-linejoin="round"/>
<path d="M193.05 164.47L195.37 158.18L196.2 158.34L195.87 160L197.85 160.99L197.03 163.97H196.03L194.71 164.97L193.05 164.47Z" fill="white" stroke="#263238" stroke-width="0.75" stroke-linecap="round" stroke-linejoin="round"/>
<path d="M163.41 195.1L165.07 198.77L163.58 199.59L161.92 195.6L163.41 195.1Z" fill="white" stroke="#263238" stroke-width="0.75" stroke-linecap="round" stroke-linejoin="round"/>
<path d="M186.1 242.3L189.94 244.98H184.1L183.94 242.3H186.1Z" fill="white" stroke="#263238" stroke-width="0.75" stroke-linecap="round" stroke-linejoin="round"/>
<path d="M160.67 242.3L156.84 244.98H162.67L162.83 242.3H160.67Z" fill="white" stroke="#263238" stroke-width="0.75" stroke-linecap="round" stroke-linejoin="round"/>
<path d="M280.61 302H348.61V363H280.61C280.18 363 279.768 362.829 279.464 362.526C279.161 362.222 278.99 361.81 278.99 361.38V303.58C279 303.157 279.176 302.755 279.478 302.46C279.781 302.165 280.187 302 280.61 302Z" fill="white" stroke="#263238" stroke-linecap="round" stroke-linejoin="round"/>
<path d="M350.95 301.98H280.82V363.03H350.95V301.98Z" fill="#263238" stroke="#263238" stroke-linecap="round" stroke-linejoin="round"/>
<path d="M347.12 306.82H286.22V358.2H347.12V306.82Z" fill="white" stroke="#263238" stroke-linecap="round" stroke-linejoin="round"/>
<path d="M290.85 354.29H308.27V310.73H290.85V354.29Z" fill="white" stroke="#263238" stroke-linecap="round" stroke-linejoin="round"/>
<path d="M290.85 354.3H342.48V314.13H290.85V354.3Z" fill="white" stroke="#263238" stroke-linecap="round" stroke-linejoin="round"/>
<path d="M293.54 352.21H339.8V316.22H293.54V352.21Z" fill="#01DC82" stroke="#263238" stroke-linecap="round" stroke-linejoin="round"/>
<path d="M295.56 327.96H304.18" stroke="#263238" stroke-linecap="round" stroke-linejoin="round"/>
<path d="M295.56 330.58H304.18" stroke="#263238" stroke-linecap="round" stroke-linejoin="round"/>
<path d="M295.56 333.19H304.18" stroke="#263238" stroke-linecap="round" stroke-linejoin="round"/>
<path d="M295.56 337.63H333.43" stroke="#263238" stroke-linecap="round" stroke-linejoin="round"/>
<path d="M295.56 341.02H333.43" stroke="#263238" stroke-linecap="round" stroke-linejoin="round"/>
<path d="M295.56 344.42H333.43" stroke="#263238" stroke-linecap="round" stroke-linejoin="round"/>
<path d="M280.82 363.04L321.68 376.57H393.35L350.95 363.04H280.82Z" fill="white" stroke="#263238" stroke-linecap="round" stroke-linejoin="round"/>
<path d="M331.85 368.25L325.94 366.36L323.04 366.33L328.93 368.23L331.85 368.25Z" fill="white" stroke="#263238" stroke-width="0.25" stroke-linecap="round" stroke-linejoin="round"/>
<path d="M337.62 368.3L331.69 366.42L328.82 366.39L334.75 368.27L337.62 368.3Z" fill="white" stroke="#263238" stroke-width="0.25" stroke-linecap="round" stroke-linejoin="round"/>
<path d="M357.87 370.3L360.64 370.31L354.47 368.42L351.71 368.4L357.87 370.3Z" fill="white" stroke="#263238" stroke-width="0.25" stroke-linecap="round" stroke-linejoin="round"/>
<path d="M328.93 368.23L323.04 366.33L320.12 366.31L325.99 368.21L328.93 368.23Z" fill="white" stroke="#263238" stroke-width="0.25" stroke-linecap="round" stroke-linejoin="round"/>
<path d="M323.03 368.19L317.17 366.28L314.21 366.25L320.05 368.17L323.03 368.19Z" fill="white" stroke="#263238" stroke-width="0.25" stroke-linecap="round" stroke-linejoin="round"/>
<path d="M348.93 368.38L342.94 366.52L340.15 366.5L346.13 368.36L348.93 368.38Z" fill="white" stroke="#263238" stroke-width="0.25" stroke-linecap="round" stroke-linejoin="round"/>
<path d="M351.71 368.4L345.7 366.55L342.94 366.52L348.93 368.38L351.71 368.4Z" fill="white" stroke="#263238" stroke-width="0.25" stroke-linecap="round" stroke-linejoin="round"/>
<path d="M320.05 368.17L314.21 366.25L311.22 366.22L317.05 368.14L320.05 368.17Z" fill="white" stroke="#263238" stroke-width="0.25" stroke-linecap="round" stroke-linejoin="round"/>
<path d="M340.48 368.32L334.53 366.44L331.69 366.42L337.62 368.3L340.48 368.32Z" fill="white" stroke="#263238" stroke-width="0.25" stroke-linecap="round" stroke-linejoin="round"/>
<path d="M354.47 368.42L348.44 366.58L345.7 366.55L351.71 368.4L354.47 368.42Z" fill="white" stroke="#263238" stroke-width="0.25" stroke-linecap="round" stroke-linejoin="round"/>
<path d="M346.13 368.36L340.15 366.5L337.35 366.47L343.32 368.34L346.13 368.36Z" fill="white" stroke="#263238" stroke-width="0.25" stroke-linecap="round" stroke-linejoin="round"/>
<path d="M343.32 368.34L337.35 366.47L334.53 366.44L340.48 368.32L343.32 368.34Z" fill="white" stroke="#263238" stroke-width="0.25" stroke-linecap="round" stroke-linejoin="round"/>
<path d="M334.75 368.27L328.82 366.39L325.94 366.36L331.85 368.25L334.75 368.27Z" fill="white" stroke="#263238" stroke-width="0.25" stroke-linecap="round" stroke-linejoin="round"/>
<path d="M314.02 368.12L310.97 368.1L316.92 370.09L319.98 370.11L314.02 368.12Z" fill="white" stroke="#263238" stroke-width="0.25" stroke-linecap="round" stroke-linejoin="round"/>
<path d="M308.21 366.19L305.19 366.16L310.97 368.1L314.02 368.12L308.21 366.19Z" fill="white" stroke="#263238" stroke-width="0.25" stroke-linecap="round" stroke-linejoin="round"/>
<path d="M317.05 368.14L311.22 366.22L308.21 366.19L314.02 368.12L317.05 368.14Z" fill="white" stroke="#263238" stroke-width="0.25" stroke-linecap="round" stroke-linejoin="round"/>
<path d="M323.01 372.13L329.28 374.23H332.38L326.1 372.14L323.01 372.13Z" fill="white" stroke="#263238" stroke-width="0.25" stroke-linecap="round" stroke-linejoin="round"/>
<path d="M319.98 370.11L316.92 370.09L323.01 372.13L326.1 372.14L319.98 370.11Z" fill="white" stroke="#263238" stroke-width="0.25" stroke-linecap="round" stroke-linejoin="round"/>
<path d="M326.1 372.14L332.38 374.23H335.46L329.16 372.15L326.1 372.14Z" fill="white" stroke="#263238" stroke-width="0.25" stroke-linecap="round" stroke-linejoin="round"/>
<path d="M325.99 368.21L320.12 366.31L317.17 366.28L323.03 368.19L325.99 368.21Z" fill="white" stroke="#263238" stroke-width="0.25" stroke-linecap="round" stroke-linejoin="round"/>
<path d="M332.02 370.17L325.99 368.21L323.03 368.19L329.04 370.15L332.02 370.17Z" fill="white" stroke="#263238" stroke-width="0.25" stroke-linecap="round" stroke-linejoin="round"/>
<path d="M329.04 370.15L323.03 368.19L320.05 368.17L326.04 370.14L329.04 370.15Z" fill="white" stroke="#263238" stroke-width="0.25" stroke-linecap="round" stroke-linejoin="round"/>
<path d="M334.98 370.18L328.93 368.23L325.99 368.21L332.02 370.17L334.98 370.18Z" fill="white" stroke="#263238" stroke-width="0.25" stroke-linecap="round" stroke-linejoin="round"/>
<path d="M317.05 368.14L314.02 368.12L319.98 370.11L323.02 370.12L317.05 368.14Z" fill="white" stroke="#263238" stroke-width="0.25" stroke-linecap="round" stroke-linejoin="round"/>
<path d="M364.19 372.24L366.97 372.25L360.64 370.31L357.87 370.3L364.19 372.24Z" fill="white" stroke="#263238" stroke-width="0.25" stroke-linecap="round" stroke-linejoin="round"/>
<path d="M326.04 370.14L320.05 368.17L317.05 368.14L323.02 370.12L326.04 370.14Z" fill="white" stroke="#263238" stroke-width="0.25" stroke-linecap="round" stroke-linejoin="round"/>
<path d="M319.98 370.11L326.1 372.14L329.16 372.15L323.02 370.12L319.98 370.11Z" fill="white" stroke="#263238" stroke-width="0.25" stroke-linecap="round" stroke-linejoin="round"/>
<path d="M352.27 370.27L346.13 368.36L343.32 368.34L349.44 370.25L352.27 370.27Z" fill="white" stroke="#263238" stroke-width="0.25" stroke-linecap="round" stroke-linejoin="round"/>
<path d="M349.44 370.25L343.32 368.34L340.48 368.32L346.58 370.24L349.44 370.25Z" fill="white" stroke="#263238" stroke-width="0.25" stroke-linecap="round" stroke-linejoin="round"/>
<path d="M357.87 370.3L351.71 368.4L348.93 368.38L355.08 370.28L357.87 370.3Z" fill="white" stroke="#263238" stroke-width="0.25" stroke-linecap="round" stroke-linejoin="round"/>
<path d="M340.82 370.21L334.75 368.27L331.85 368.25L337.91 370.19L340.82 370.21Z" fill="white" stroke="#263238" stroke-width="0.25" stroke-linecap="round" stroke-linejoin="round"/>
<path d="M346.58 370.24L340.48 368.32L337.62 368.3L343.71 370.22L346.58 370.24Z" fill="white" stroke="#263238" stroke-width="0.25" stroke-linecap="round" stroke-linejoin="round"/>
<path d="M343.71 370.22L337.62 368.3L334.75 368.27L340.82 370.21L343.71 370.22Z" fill="white" stroke="#263238" stroke-width="0.25" stroke-linecap="round" stroke-linejoin="round"/>
<path d="M337.91 370.19L331.85 368.25L328.93 368.23L334.98 370.18L337.91 370.19Z" fill="white" stroke="#263238" stroke-width="0.25" stroke-linecap="round" stroke-linejoin="round"/>
<path d="M346.58 370.24L352.85 372.21L355.71 372.22L349.44 370.25L346.58 370.24Z" fill="white" stroke="#263238" stroke-width="0.25" stroke-linecap="round" stroke-linejoin="round"/>
<path d="M349.44 370.25L355.71 372.22L358.56 372.23L352.27 370.27L349.44 370.25Z" fill="white" stroke="#263238" stroke-width="0.25" stroke-linecap="round" stroke-linejoin="round"/>
<path d="M323.02 370.12L329.16 372.15L332.2 372.16L326.04 370.14L323.02 370.12Z" fill="white" stroke="#263238" stroke-width="0.25" stroke-linecap="round" stroke-linejoin="round"/>
<path d="M352.27 370.27L358.56 372.23H361.38L355.08 370.28L352.27 370.27Z" fill="white" stroke="#263238" stroke-width="0.25" stroke-linecap="round" stroke-linejoin="round"/>
<path d="M340.82 370.21L347.06 372.19L349.96 372.2L343.71 370.22L340.82 370.21Z" fill="white" stroke="#263238" stroke-width="0.25" stroke-linecap="round" stroke-linejoin="round"/>
<path d="M355.08 370.28L361.38 372.23L364.19 372.24L357.87 370.3L355.08 370.28Z" fill="white" stroke="#263238" stroke-width="0.25" stroke-linecap="round" stroke-linejoin="round"/>
<path d="M343.71 370.22L349.96 372.2L352.85 372.21L346.58 370.24L343.71 370.22Z" fill="white" stroke="#263238" stroke-width="0.25" stroke-linecap="round" stroke-linejoin="round"/>
<path d="M329.04 370.15L335.21 372.17H338.21L332.02 370.17L329.04 370.15Z" fill="white" stroke="#263238" stroke-width="0.25" stroke-linecap="round" stroke-linejoin="round"/>
<path d="M326.04 370.14L332.2 372.16L335.21 372.17L329.04 370.15L326.04 370.14Z" fill="white" stroke="#263238" stroke-width="0.25" stroke-linecap="round" stroke-linejoin="round"/>
<path d="M337.91 370.19L344.13 372.19H347.06L340.82 370.21L337.91 370.19Z" fill="white" stroke="#263238" stroke-width="0.25" stroke-linecap="round" stroke-linejoin="round"/>
<path d="M334.98 370.18L341.18 372.18L344.13 372.19L337.91 370.19L334.98 370.18Z" fill="white" stroke="#263238" stroke-width="0.25" stroke-linecap="round" stroke-linejoin="round"/>
<path d="M332.02 370.17L338.21 372.17L341.18 372.18L334.98 370.18L332.02 370.17Z" fill="white" stroke="#263238" stroke-width="0.25" stroke-linecap="round" stroke-linejoin="round"/>
<path d="M355.08 370.28L348.93 368.38L346.13 368.36L352.27 370.27L355.08 370.28Z" fill="white" stroke="#263238" stroke-width="0.25" stroke-linecap="round" stroke-linejoin="round"/>
<path d="M308.21 366.19L302.02 364.13L299.02 364.1L305.19 366.16L308.21 366.19Z" fill="white" stroke="#263238" stroke-width="0.25" stroke-linecap="round" stroke-linejoin="round"/>
<path d="M305.19 366.16L302.37 366.13L308.14 368.08L310.97 368.1L305.19 366.16Z" fill="white" stroke="#263238" stroke-width="0.25" stroke-linecap="round" stroke-linejoin="round"/>
<path d="M299.02 364.1L296.22 364.06L302.37 366.13L305.19 366.16L299.02 364.1Z" fill="white" stroke="#263238" stroke-width="0.25" stroke-linecap="round" stroke-linejoin="round"/>
<path d="M310.97 368.1L308.14 368.08L314.06 370.08L316.92 370.09L310.97 368.1Z" fill="white" stroke="#263238" stroke-width="0.25" stroke-linecap="round" stroke-linejoin="round"/>
<path d="M316.92 370.09L314.06 370.08L320.15 372.13H323.01L316.92 370.09Z" fill="white" stroke="#263238" stroke-width="0.25" stroke-linecap="round" stroke-linejoin="round"/>
<path d="M323.01 372.13H320.15L326.4 374.23H329.28L323.01 372.13Z" fill="white" stroke="#263238" stroke-width="0.25" stroke-linecap="round" stroke-linejoin="round"/>
<path d="M357.2 368.44L363.39 370.32L365.81 370.33L359.61 368.46L357.2 368.44Z" fill="white" stroke="#263238" stroke-width="0.25" stroke-linecap="round" stroke-linejoin="round"/>
<path d="M369.73 372.25L372.16 372.26L365.81 370.33L363.39 370.32L369.73 372.25Z" fill="white" stroke="#263238" stroke-width="0.25" stroke-linecap="round" stroke-linejoin="round"/>
<path d="M376.24 374.23H378.68L372.16 372.26L369.73 372.25L376.24 374.23Z" fill="white" stroke="#263238" stroke-width="0.25" stroke-linecap="round" stroke-linejoin="round"/>
<path d="M331.69 366.42L325.35 364.41L322.5 364.38L328.82 366.39L331.69 366.42Z" fill="white" stroke="#263238" stroke-width="0.25" stroke-linecap="round" stroke-linejoin="round"/>
<path d="M357.2 368.44L359.61 368.46L353.57 366.63L351.17 366.6L357.2 368.44Z" fill="white" stroke="#263238" stroke-width="0.25" stroke-linecap="round" stroke-linejoin="round"/>
<path d="M366.97 372.25H369.73L363.39 370.32L360.64 370.31L366.97 372.25Z" fill="white" stroke="#263238" stroke-width="0.25" stroke-linecap="round" stroke-linejoin="round"/>
<path d="M311.22 366.22L305.01 364.17L302.02 364.13L308.21 366.19L311.22 366.22Z" fill="white" stroke="#263238" stroke-width="0.25" stroke-linecap="round" stroke-linejoin="round"/>
<path d="M348.44 366.58L354.47 368.42L357.2 368.44L351.17 366.6L348.44 366.58Z" fill="white" stroke="#263238" stroke-width="0.25" stroke-linecap="round" stroke-linejoin="round"/>
<path d="M353.57 366.63L347.11 364.67L344.73 364.64L351.17 366.6L353.57 366.63Z" fill="white" stroke="#263238" stroke-width="0.25" stroke-linecap="round" stroke-linejoin="round"/>
<path d="M351.17 366.6L344.73 364.64L342.01 364.61L348.44 366.58L351.17 366.6Z" fill="white" stroke="#263238" stroke-width="0.25" stroke-linecap="round" stroke-linejoin="round"/>
<path d="M358.56 372.23L365.01 374.23H367.85L361.38 372.23H358.56Z" fill="white" stroke="#263238" stroke-width="0.25" stroke-linecap="round" stroke-linejoin="round"/>
<path d="M373.46 374.23H376.24L369.73 372.25H366.97L373.46 374.23Z" fill="white" stroke="#263238" stroke-width="0.25" stroke-linecap="round" stroke-linejoin="round"/>
<path d="M348.44 366.58L342.01 364.61L339.28 364.58L345.7 366.55L348.44 366.58Z" fill="white" stroke="#263238" stroke-width="0.25" stroke-linecap="round" stroke-linejoin="round"/>
<path d="M364.19 372.24L370.67 374.23H373.46L366.97 372.25L364.19 372.24Z" fill="white" stroke="#263238" stroke-width="0.25" stroke-linecap="round" stroke-linejoin="round"/>
<path d="M361.38 372.23L367.85 374.23H370.67L364.19 372.24L361.38 372.23Z" fill="white" stroke="#263238" stroke-width="0.25" stroke-linecap="round" stroke-linejoin="round"/>
<path d="M360.64 370.31L363.39 370.32L357.2 368.44L354.47 368.42L360.64 370.31Z" fill="white" stroke="#263238" stroke-width="0.25" stroke-linecap="round" stroke-linejoin="round"/>
<path d="M323.04 366.33L316.76 364.31L313.85 364.27L320.12 366.31L323.04 366.33Z" fill="white" stroke="#263238" stroke-width="0.25" stroke-linecap="round" stroke-linejoin="round"/>
<path d="M345.7 366.55L339.28 364.58L336.54 364.54L342.94 366.52L345.7 366.55Z" fill="white" stroke="#263238" stroke-width="0.25" stroke-linecap="round" stroke-linejoin="round"/>
<path d="M320.12 366.31L313.85 364.27L310.93 364.24L317.17 366.28L320.12 366.31Z" fill="white" stroke="#263238" stroke-width="0.25" stroke-linecap="round" stroke-linejoin="round"/>
<path d="M328.82 366.39L322.5 364.38L319.64 364.34L325.94 366.36L328.82 366.39Z" fill="white" stroke="#263238" stroke-width="0.25" stroke-linecap="round" stroke-linejoin="round"/>
<path d="M317.17 366.28L310.93 364.24L307.98 364.2L314.21 366.25L317.17 366.28Z" fill="white" stroke="#263238" stroke-width="0.25" stroke-linecap="round" stroke-linejoin="round"/>
<path d="M314.21 366.25L307.98 364.2L305.01 364.17L311.22 366.22L314.21 366.25Z" fill="white" stroke="#263238" stroke-width="0.25" stroke-linecap="round" stroke-linejoin="round"/>
<path d="M325.94 366.36L319.64 364.34L316.76 364.31L323.04 366.33L325.94 366.36Z" fill="white" stroke="#263238" stroke-width="0.25" stroke-linecap="round" stroke-linejoin="round"/>
<path d="M342.94 366.52L336.54 364.54L333.77 364.51L340.15 366.5L342.94 366.52Z" fill="white" stroke="#263238" stroke-width="0.25" stroke-linecap="round" stroke-linejoin="round"/>
<path d="M340.15 366.5L333.77 364.51L330.98 364.48L337.35 366.47L340.15 366.5Z" fill="white" stroke="#263238" stroke-width="0.25" stroke-linecap="round" stroke-linejoin="round"/>
<path d="M334.53 366.44L328.18 364.44L325.35 364.41L331.69 366.42L334.53 366.44Z" fill="white" stroke="#263238" stroke-width="0.25" stroke-linecap="round" stroke-linejoin="round"/>
<path d="M358.56 372.23L355.71 372.22L352.85 372.21L349.96 372.2L347.06 372.19H344.13L341.18 372.18L338.21 372.17H335.21L332.2 372.16L329.16 372.15L335.46 374.23H338.52H341.55H344.56H347.55H350.51H353.45H356.38H359.27H362.15H365.01L358.56 372.23Z" fill="white" stroke="#263238" stroke-width="0.25" stroke-linecap="round" stroke-linejoin="round"/>
<path d="M337.35 366.47L330.98 364.48L328.18 364.44L334.53 366.44L337.35 366.47Z" fill="white" stroke="#263238" stroke-width="0.25" stroke-linecap="round" stroke-linejoin="round"/>
<path d="M280.82 363.04V365.08L321.66 379.18L321.68 376.57L280.82 363.04Z" fill="white" stroke="#263238" stroke-linecap="round" stroke-linejoin="round"/>
<path d="M393.35 376.57H321.68V379.18H393.35V376.57Z" fill="#263238" stroke="#263238" stroke-linecap="round" stroke-linejoin="round"/>
<path d="M301.91 279.41L317.57 303.3L333.24 279.41H326.68V249.95H308.46V279.41H301.91Z" fill="#01DC82" stroke="#263238" stroke-linecap="round" stroke-linejoin="round"/>
<path d="M228.26 363.02H160.26V302.02H228.26C228.69 302.02 229.102 302.191 229.406 302.495C229.709 302.798 229.88 303.21 229.88 303.64V361.44C229.87 361.863 229.694 362.265 229.392 362.56C229.089 362.855 228.683 363.02 228.26 363.02Z" fill="white" stroke="#263238" stroke-linecap="round" stroke-linejoin="round"/>
<path d="M157.91 363.04H228.04V301.99H157.91V363.04Z" fill="#263238" stroke="#263238" stroke-linecap="round" stroke-linejoin="round"/>
<path d="M161.74 358.2H222.64V306.82H161.74V358.2Z" fill="white" stroke="#263238" stroke-linecap="round" stroke-linejoin="round"/>
<path d="M166.38 354.29H183.8V310.73H166.38V354.29Z" fill="white" stroke="#263238" stroke-linecap="round" stroke-linejoin="round"/>
<path d="M166.38 354.3H218.01V314.13H166.38V354.3Z" fill="white" stroke="#263238" stroke-linecap="round" stroke-linejoin="round"/>
<path d="M169.06 352.21H215.32V316.22H169.06V352.21Z" fill="#01DC82" stroke="#263238" stroke-linecap="round" stroke-linejoin="round"/>
<path d="M171.09 327.96H179.7" stroke="#263238" stroke-linecap="round" stroke-linejoin="round"/>
<path d="M171.09 330.58H179.7" stroke="#263238" stroke-linecap="round" stroke-linejoin="round"/>
<path d="M171.09 333.19H179.7" stroke="#263238" stroke-linecap="round" stroke-linejoin="round"/>
<path d="M171.09 337.63H208.95" stroke="#263238" stroke-linecap="round" stroke-linejoin="round"/>
<path d="M171.09 341.02H208.95" stroke="#263238" stroke-linecap="round" stroke-linejoin="round"/>
<path d="M171.09 344.42H208.95" stroke="#263238" stroke-linecap="round" stroke-linejoin="round"/>
<path d="M228.04 363.04L187.19 376.57H115.52L157.92 363.04H228.04Z" fill="white" stroke="#263238" stroke-linecap="round" stroke-linejoin="round"/>
<path d="M177.02 368.25L182.92 366.36L185.83 366.33L179.94 368.23L177.02 368.25Z" fill="white" stroke="#263238" stroke-width="0.25" stroke-linecap="round" stroke-linejoin="round"/>
<path d="M171.24 368.3L177.18 366.42L180.04 366.39L174.12 368.27L171.24 368.3Z" fill="white" stroke="#263238" stroke-width="0.25" stroke-linecap="round" stroke-linejoin="round"/>
<path d="M151 370.3L148.23 370.31L154.4 368.42L157.16 368.4L151 370.3Z" fill="white" stroke="#263238" stroke-width="0.25" stroke-linecap="round" stroke-linejoin="round"/>
<path d="M179.94 368.23L185.83 366.33L188.75 366.31L182.87 368.21L179.94 368.23Z" fill="white" stroke="#263238" stroke-width="0.25" stroke-linecap="round" stroke-linejoin="round"/>
<path d="M185.84 368.19L191.69 366.28L194.66 366.25L188.82 368.17L185.84 368.19Z" fill="white" stroke="#263238" stroke-width="0.25" stroke-linecap="round" stroke-linejoin="round"/>
<path d="M159.94 368.38L165.93 366.52L168.72 366.5L162.73 368.36L159.94 368.38Z" fill="white" stroke="#263238" stroke-width="0.25" stroke-linecap="round" stroke-linejoin="round"/>
<path d="M157.16 368.4L163.17 366.55L165.93 366.52L159.94 368.38L157.16 368.4Z" fill="white" stroke="#263238" stroke-width="0.25" stroke-linecap="round" stroke-linejoin="round"/>
<path d="M188.82 368.17L194.66 366.25L197.64 366.22L191.82 368.14L188.82 368.17Z" fill="white" stroke="#263238" stroke-width="0.25" stroke-linecap="round" stroke-linejoin="round"/>
<path d="M168.39 368.32L174.34 366.44L177.18 366.42L171.24 368.3L168.39 368.32Z" fill="white" stroke="#263238" stroke-width="0.25" stroke-linecap="round" stroke-linejoin="round"/>
<path d="M154.4 368.42L160.42 366.58L163.17 366.55L157.16 368.4L154.4 368.42Z" fill="white" stroke="#263238" stroke-width="0.25" stroke-linecap="round" stroke-linejoin="round"/>
<path d="M162.73 368.36L168.72 366.5L171.52 366.47L165.55 368.34L162.73 368.36Z" fill="white" stroke="#263238" stroke-width="0.25" stroke-linecap="round" stroke-linejoin="round"/>
<path d="M165.55 368.34L171.52 366.47L174.34 366.44L168.39 368.32L165.55 368.34Z" fill="white" stroke="#263238" stroke-width="0.25" stroke-linecap="round" stroke-linejoin="round"/>
<path d="M174.12 368.27L180.04 366.39L182.92 366.36L177.02 368.25L174.12 368.27Z" fill="white" stroke="#263238" stroke-width="0.25" stroke-linecap="round" stroke-linejoin="round"/>
<path d="M194.84 368.12L197.89 368.1L191.95 370.09L188.89 370.11L194.84 368.12Z" fill="white" stroke="#263238" stroke-width="0.25" stroke-linecap="round" stroke-linejoin="round"/>
<path d="M200.65 366.19L203.68 366.16L197.89 368.1L194.84 368.12L200.65 366.19Z" fill="white" stroke="#263238" stroke-width="0.25" stroke-linecap="round" stroke-linejoin="round"/>
<path d="M191.82 368.14L197.64 366.22L200.65 366.19L194.84 368.12L191.82 368.14Z" fill="white" stroke="#263238" stroke-width="0.25" stroke-linecap="round" stroke-linejoin="round"/>
<path d="M185.85 372.13L179.59 374.23H176.48L182.77 372.14L185.85 372.13Z" fill="white" stroke="#263238" stroke-width="0.25" stroke-linecap="round" stroke-linejoin="round"/>
<path d="M188.89 370.11L191.95 370.09L185.85 372.13L182.77 372.14L188.89 370.11Z" fill="white" stroke="#263238" stroke-width="0.25" stroke-linecap="round" stroke-linejoin="round"/>
<path d="M182.77 372.14L176.48 374.23H173.41L179.71 372.15L182.77 372.14Z" fill="white" stroke="#263238" stroke-width="0.25" stroke-linecap="round" stroke-linejoin="round"/>
<path d="M182.87 368.21L188.75 366.31L191.69 366.28L185.84 368.19L182.87 368.21Z" fill="white" stroke="#263238" stroke-width="0.25" stroke-linecap="round" stroke-linejoin="round"/>
<path d="M176.85 370.17L182.87 368.21L185.84 368.19L179.82 370.15L176.85 370.17Z" fill="white" stroke="#263238" stroke-width="0.25" stroke-linecap="round" stroke-linejoin="round"/>
<path d="M179.82 370.15L185.84 368.19L188.82 368.17L182.82 370.14L179.82 370.15Z" fill="white" stroke="#263238" stroke-width="0.25" stroke-linecap="round" stroke-linejoin="round"/>
<path d="M173.89 370.18L179.94 368.23L182.87 368.21L176.85 370.17L173.89 370.18Z" fill="white" stroke="#263238" stroke-width="0.25" stroke-linecap="round" stroke-linejoin="round"/>
<path d="M191.82 368.14L194.84 368.12L188.89 370.11L185.84 370.12L191.82 368.14Z" fill="white" stroke="#263238" stroke-width="0.25" stroke-linecap="round" stroke-linejoin="round"/>
<path d="M144.68 372.24L141.9 372.25L148.23 370.31L151 370.3L144.68 372.24Z" fill="white" stroke="#263238" stroke-width="0.25" stroke-linecap="round" stroke-linejoin="round"/>
<path d="M182.82 370.14L188.82 368.17L191.82 368.14L185.84 370.12L182.82 370.14Z" fill="white" stroke="#263238" stroke-width="0.25" stroke-linecap="round" stroke-linejoin="round"/>
<path d="M188.89 370.11L182.77 372.14L179.71 372.15L185.84 370.12L188.89 370.11Z" fill="white" stroke="#263238" stroke-width="0.25" stroke-linecap="round" stroke-linejoin="round"/>
<path d="M156.6 370.27L162.73 368.36L165.55 368.34L159.43 370.25L156.6 370.27Z" fill="white" stroke="#263238" stroke-width="0.25" stroke-linecap="round" stroke-linejoin="round"/>
<path d="M159.43 370.25L165.55 368.34L168.39 368.32L162.28 370.24L159.43 370.25Z" fill="white" stroke="#263238" stroke-width="0.25" stroke-linecap="round" stroke-linejoin="round"/>
<path d="M151 370.3L157.16 368.4L159.94 368.38L153.79 370.28L151 370.3Z" fill="white" stroke="#263238" stroke-width="0.25" stroke-linecap="round" stroke-linejoin="round"/>
<path d="M168.04 370.21L174.12 368.27L177.02 368.25L170.96 370.19L168.04 370.21Z" fill="white" stroke="#263238" stroke-width="0.25" stroke-linecap="round" stroke-linejoin="round"/>
<path d="M162.28 370.24L168.39 368.32L171.24 368.3L165.15 370.22L162.28 370.24Z" fill="white" stroke="#263238" stroke-width="0.25" stroke-linecap="round" stroke-linejoin="round"/>
<path d="M165.15 370.22L171.24 368.3L174.12 368.27L168.04 370.21L165.15 370.22Z" fill="white" stroke="#263238" stroke-width="0.25" stroke-linecap="round" stroke-linejoin="round"/>
<path d="M170.96 370.19L177.02 368.25L179.94 368.23L173.89 370.18L170.96 370.19Z" fill="white" stroke="#263238" stroke-width="0.25" stroke-linecap="round" stroke-linejoin="round"/>
<path d="M162.28 370.24L156.02 372.21L153.15 372.22L159.43 370.25L162.28 370.24Z" fill="white" stroke="#263238" stroke-width="0.25" stroke-linecap="round" stroke-linejoin="round"/>
<path d="M159.43 370.25L153.15 372.22L150.31 372.23L156.6 370.27L159.43 370.25Z" fill="white" stroke="#263238" stroke-width="0.25" stroke-linecap="round" stroke-linejoin="round"/>
<path d="M185.84 370.12L179.71 372.15L176.67 372.16L182.82 370.14L185.84 370.12Z" fill="white" stroke="#263238" stroke-width="0.25" stroke-linecap="round" stroke-linejoin="round"/>
<path d="M156.6 370.27L150.31 372.23H147.49L153.79 370.28L156.6 370.27Z" fill="white" stroke="#263238" stroke-width="0.25" stroke-linecap="round" stroke-linejoin="round"/>
<path d="M168.04 370.21L161.81 372.19L158.9 372.2L165.15 370.22L168.04 370.21Z" fill="white" stroke="#263238" stroke-width="0.25" stroke-linecap="round" stroke-linejoin="round"/>
<path d="M153.79 370.28L147.49 372.23L144.68 372.24L151 370.3L153.79 370.28Z" fill="white" stroke="#263238" stroke-width="0.25" stroke-linecap="round" stroke-linejoin="round"/>
<path d="M165.15 370.22L158.9 372.2L156.02 372.21L162.28 370.24L165.15 370.22Z" fill="white" stroke="#263238" stroke-width="0.25" stroke-linecap="round" stroke-linejoin="round"/>
<path d="M179.82 370.15L173.65 372.17H170.66L176.85 370.17L179.82 370.15Z" fill="white" stroke="#263238" stroke-width="0.25" stroke-linecap="round" stroke-linejoin="round"/>
<path d="M182.82 370.14L176.67 372.16L173.65 372.17L179.82 370.15L182.82 370.14Z" fill="white" stroke="#263238" stroke-width="0.25" stroke-linecap="round" stroke-linejoin="round"/>
<path d="M170.96 370.19L164.74 372.19H161.81L168.04 370.21L170.96 370.19Z" fill="white" stroke="#263238" stroke-width="0.25" stroke-linecap="round" stroke-linejoin="round"/>
<path d="M173.89 370.18L167.69 372.18L164.74 372.19L170.96 370.19L173.89 370.18Z" fill="white" stroke="#263238" stroke-width="0.25" stroke-linecap="round" stroke-linejoin="round"/>
<path d="M176.85 370.17L170.66 372.17L167.69 372.18L173.89 370.18L176.85 370.17Z" fill="white" stroke="#263238" stroke-width="0.25" stroke-linecap="round" stroke-linejoin="round"/>
<path d="M153.79 370.28L159.94 368.38L162.73 368.36L156.6 370.27L153.79 370.28Z" fill="white" stroke="#263238" stroke-width="0.25" stroke-linecap="round" stroke-linejoin="round"/>
<path d="M200.65 366.19L206.84 364.13L209.85 364.1L203.68 366.16L200.65 366.19Z" fill="white" stroke="#263238" stroke-width="0.25" stroke-linecap="round" stroke-linejoin="round"/>
<path d="M203.68 366.16L206.5 366.13L200.73 368.08L197.89 368.1L203.68 366.16Z" fill="white" stroke="#263238" stroke-width="0.25" stroke-linecap="round" stroke-linejoin="round"/>
<path d="M209.85 364.1L212.65 364.06L206.5 366.13L203.68 366.16L209.85 364.1Z" fill="white" stroke="#263238" stroke-width="0.25" stroke-linecap="round" stroke-linejoin="round"/>
<path d="M197.89 368.1L200.73 368.08L194.8 370.08L191.95 370.09L197.89 368.1Z" fill="white" stroke="#263238" stroke-width="0.25" stroke-linecap="round" stroke-linejoin="round"/>
<path d="M191.95 370.09L194.8 370.08L188.72 372.13H185.85L191.95 370.09Z" fill="white" stroke="#263238" stroke-width="0.25" stroke-linecap="round" stroke-linejoin="round"/>
<path d="M185.85 372.13H188.72L182.47 374.23H179.59L185.85 372.13Z" fill="white" stroke="#263238" stroke-width="0.25" stroke-linecap="round" stroke-linejoin="round"/>
<path d="M151.66 368.44L145.48 370.32L143.06 370.33L149.25 368.46L151.66 368.44Z" fill="white" stroke="#263238" stroke-width="0.25" stroke-linecap="round" stroke-linejoin="round"/>
<path d="M139.13 372.25L136.71 372.26L143.06 370.33L145.48 370.32L139.13 372.25Z" fill="white" stroke="#263238" stroke-width="0.25" stroke-linecap="round" stroke-linejoin="round"/>
<path d="M132.63 374.23H130.19L136.71 372.26L139.13 372.25L132.63 374.23Z" fill="white" stroke="#263238" stroke-width="0.25" stroke-linecap="round" stroke-linejoin="round"/>
<path d="M177.18 366.42L183.52 364.41L186.36 364.38L180.04 366.39L177.18 366.42Z" fill="white" stroke="#263238" stroke-width="0.25" stroke-linecap="round" stroke-linejoin="round"/>
<path d="M151.66 368.44L149.25 368.46L155.3 366.63L157.7 366.6L151.66 368.44Z" fill="white" stroke="#263238" stroke-width="0.25" stroke-linecap="round" stroke-linejoin="round"/>
<path d="M141.9 372.25H139.13L145.48 370.32L148.23 370.31L141.9 372.25Z" fill="white" stroke="#263238" stroke-width="0.25" stroke-linecap="round" stroke-linejoin="round"/>
<path d="M197.64 366.22L203.85 364.17L206.84 364.13L200.65 366.19L197.64 366.22Z" fill="white" stroke="#263238" stroke-width="0.25" stroke-linecap="round" stroke-linejoin="round"/>
<path d="M160.42 366.58L154.4 368.42L151.66 368.44L157.7 366.6L160.42 366.58Z" fill="white" stroke="#263238" stroke-width="0.25" stroke-linecap="round" stroke-linejoin="round"/>
<path d="M155.3 366.63L161.76 364.67L164.14 364.64L157.7 366.6L155.3 366.63Z" fill="white" stroke="#263238" stroke-width="0.25" stroke-linecap="round" stroke-linejoin="round"/>
<path d="M157.7 366.6L164.14 364.64L166.85 364.61L160.42 366.58L157.7 366.6Z" fill="white" stroke="#263238" stroke-width="0.25" stroke-linecap="round" stroke-linejoin="round"/>
<path d="M150.31 372.23L143.85 374.23H141.02L147.49 372.23H150.31Z" fill="white" stroke="#263238" stroke-width="0.25" stroke-linecap="round" stroke-linejoin="round"/>
<path d="M135.41 374.23H132.63L139.13 372.25H141.9L135.41 374.23Z" fill="white" stroke="#263238" stroke-width="0.25" stroke-linecap="round" stroke-linejoin="round"/>
<path d="M160.42 366.58L166.85 364.61L169.58 364.58L163.17 366.55L160.42 366.58Z" fill="white" stroke="#263238" stroke-width="0.25" stroke-linecap="round" stroke-linejoin="round"/>
<path d="M144.68 372.24L138.2 374.23H135.41L141.9 372.25L144.68 372.24Z" fill="white" stroke="#263238" stroke-width="0.25" stroke-linecap="round" stroke-linejoin="round"/>
<path d="M147.49 372.23L141.02 374.23H138.2L144.68 372.24L147.49 372.23Z" fill="white" stroke="#263238" stroke-width="0.25" stroke-linecap="round" stroke-linejoin="round"/>
<path d="M148.23 370.31L145.48 370.32L151.66 368.44L154.4 368.42L148.23 370.31Z" fill="white" stroke="#263238" stroke-width="0.25" stroke-linecap="round" stroke-linejoin="round"/>
<path d="M185.83 366.33L192.11 364.31L195.02 364.27L188.75 366.31L185.83 366.33Z" fill="white" stroke="#263238" stroke-width="0.25" stroke-linecap="round" stroke-linejoin="round"/>
<path d="M163.17 366.55L169.58 364.58L172.33 364.54L165.93 366.52L163.17 366.55Z" fill="white" stroke="#263238" stroke-width="0.25" stroke-linecap="round" stroke-linejoin="round"/>
<path d="M188.75 366.31L195.02 364.27L197.94 364.24L191.69 366.28L188.75 366.31Z" fill="white" stroke="#263238" stroke-width="0.25" stroke-linecap="round" stroke-linejoin="round"/>
<path d="M180.04 366.39L186.36 364.38L189.23 364.34L182.92 366.36L180.04 366.39Z" fill="white" stroke="#263238" stroke-width="0.25" stroke-linecap="round" stroke-linejoin="round"/>
<path d="M191.69 366.28L197.94 364.24L200.89 364.2L194.66 366.25L191.69 366.28Z" fill="white" stroke="#263238" stroke-width="0.25" stroke-linecap="round" stroke-linejoin="round"/>
<path d="M194.66 366.25L200.89 364.2L203.85 364.17L197.64 366.22L194.66 366.25Z" fill="white" stroke="#263238" stroke-width="0.25" stroke-linecap="round" stroke-linejoin="round"/>
<path d="M182.92 366.36L189.23 364.34L192.11 364.31L185.83 366.33L182.92 366.36Z" fill="white" stroke="#263238" stroke-width="0.25" stroke-linecap="round" stroke-linejoin="round"/>
<path d="M165.93 366.52L172.33 364.54L175.1 364.51L168.72 366.5L165.93 366.52Z" fill="white" stroke="#263238" stroke-width="0.25" stroke-linecap="round" stroke-linejoin="round"/>
<path d="M168.72 366.5L175.1 364.51L177.89 364.48L171.52 366.47L168.72 366.5Z" fill="white" stroke="#263238" stroke-width="0.25" stroke-linecap="round" stroke-linejoin="round"/>
<path d="M174.34 366.44L180.69 364.44L183.52 364.41L177.18 366.42L174.34 366.44Z" fill="white" stroke="#263238" stroke-width="0.25" stroke-linecap="round" stroke-linejoin="round"/>
<path d="M150.31 372.23L153.15 372.22L156.02 372.21L158.9 372.2L161.81 372.19H164.74L167.69 372.18L170.66 372.17H173.65L176.67 372.16L179.71 372.15L173.41 374.23H170.35H167.32H164.31H161.32H158.36H155.41H152.49H149.59H146.71H143.85L150.31 372.23Z" fill="white" stroke="#263238" stroke-width="0.25" stroke-linecap="round" stroke-linejoin="round"/>
<path d="M171.52 366.47L177.89 364.48L180.69 364.44L174.34 366.44L171.52 366.47Z" fill="white" stroke="#263238" stroke-width="0.25" stroke-linecap="round" stroke-linejoin="round"/>
<path d="M228.04 363.04V365.08L187.2 379.18L187.19 376.57L228.04 363.04Z" fill="white" stroke="#263238" stroke-linecap="round" stroke-linejoin="round"/>
<path d="M115.52 379.18H187.19V376.57H115.52V379.18Z" fill="#263238" stroke="#263238" stroke-linecap="round" stroke-linejoin="round"/>
<path d="M211.46 266.51L195.8 242.62L180.13 266.51H186.69V302.64H204.91V266.51H211.46Z" fill="#01DC82" stroke="#263238" stroke-linecap="round" stroke-linejoin="round"/>
</svg>
