<svg width="1440" height="960" viewBox="0 0 1440 960" fill="none" xmlns="http://www.w3.org/2000/svg">
<path d="M1297.92 828.345C1367.46 772.665 1407.49 687.955 1408.72 598.848C1409.51 542.669 1405.48 472.128 1386.61 411.725C1324.36 212.563 1148.53 104.525 1019.89 81.4846C891.245 58.4446 758.765 100.685 658.925 167.885C559.085 235.085 568.685 223.565 397.805 198.605C226.925 173.645 86.7651 246.605 40.6851 381.005C-5.39486 515.405 134.765 591.571 150.125 661.977C165.485 732.384 138.605 857.165 405.485 887.885C672.365 918.605 753.005 768.845 885.485 811.085C992.084 845.088 1150.91 946.214 1297.92 828.345Z" fill="#01DC82"/>
<path opacity="0.7" d="M1297.92 828.345C1367.46 772.665 1407.49 687.955 1408.72 598.848C1409.51 542.669 1405.48 472.128 1386.61 411.725C1324.36 212.563 1148.53 104.525 1019.89 81.4846C891.245 58.4446 758.765 100.685 658.925 167.885C559.085 235.085 568.685 223.565 397.805 198.605C226.925 173.645 86.7651 246.605 40.6851 381.005C-5.39486 515.405 134.765 591.571 150.125 661.977C165.485 732.384 138.605 857.165 405.485 887.885C672.365 918.605 753.005 768.845 885.485 811.085C992.084 845.088 1150.91 946.214 1297.92 828.345Z" fill="white"/>
<path d="M230.669 149.875C227.962 147.072 223.258 144.48 215.098 144.269C196.762 143.827 201.658 156.806 196.762 159.936C191.866 163.066 190.503 158.15 185.568 161.28C180.634 164.41 182.88 170.669 178.867 171.571C174.855 172.474 169.479 167.539 164.544 170.669C159.61 173.798 159.629 176.429 157.383 176.429C155.136 176.429 150.682 174.643 147.994 176.429C145.306 178.214 142.234 180.461 142.234 180.461H190.234" stroke="#263238" stroke-width="1.92" stroke-linecap="round" stroke-linejoin="round"/>
<path d="M235.719 157.882L234.336 157.248C234.121 155.576 233.559 153.967 232.685 152.525" stroke="#263238" stroke-width="1.92" stroke-linecap="round" stroke-linejoin="round"/>
<path d="M196.358 180.48H255.36C255.36 180.48 256.704 176.448 251.789 173.76C246.874 171.072 244.627 173.318 242.842 171.072C241.056 168.825 246.394 164.256 238.061 159.11" stroke="#263238" stroke-width="1.92" stroke-linecap="round" stroke-linejoin="round"/>
<path d="M784.608 293.971C781.882 291.149 777.178 288.557 769.018 288.365C750.682 287.923 755.578 300.883 750.682 304.013C745.786 307.142 744.423 302.227 739.508 305.357C734.592 308.486 736.82 314.765 732.788 315.648C728.756 316.531 723.399 311.616 718.483 314.765C713.568 317.914 713.549 320.525 711.322 320.525C709.095 320.525 704.602 318.739 701.933 320.525C699.264 322.31 696.173 324.557 696.173 324.557H744.173" stroke="#263238" stroke-width="1.92" stroke-linecap="round" stroke-linejoin="round"/>
<path d="M789.658 301.978L788.256 301.344C788.043 299.671 787.481 298.062 786.605 296.621" stroke="#263238" stroke-width="1.92" stroke-linecap="round" stroke-linejoin="round"/>
<path d="M750.298 324.595H809.28C809.28 324.595 810.624 320.563 805.709 317.894C800.794 315.226 798.547 317.434 796.762 315.206C794.976 312.979 800.314 308.39 791.981 303.245" stroke="#263238" stroke-width="1.92" stroke-linecap="round" stroke-linejoin="round"/>
<path d="M1175.54 94.9441C1170.66 89.8753 1162.1 85.2097 1147.47 84.8449C1114.41 84.0385 1123.2 107.52 1114.41 113.069C1105.61 118.618 1103.12 109.843 1094.25 115.488C1085.38 121.133 1089.41 132.422 1082.17 134.035C1074.93 135.648 1065.23 126.72 1056.36 132.48C1047.49 138.24 1047.49 142.963 1043.46 142.963C1039.43 142.963 1031.37 139.738 1026.53 142.963C1021.69 146.189 1016.04 150.221 1016.04 150.221H1102.62" stroke="#263238" stroke-width="1.92" stroke-linecap="round" stroke-linejoin="round"/>
<path d="M1184.64 109.44C1183.85 109.056 1183.03 108.672 1182.14 108.288C1181.75 105.277 1180.74 102.38 1179.17 99.7825" stroke="#263238" stroke-width="1.92" stroke-linecap="round" stroke-linejoin="round"/>
<path d="M1113.7 150.163H1220.03C1220.03 150.163 1222.45 142.906 1213.57 138.067C1204.7 133.229 1200.69 137.261 1197.47 133.229C1194.59 129.638 1203.86 120.941 1188.85 111.667" stroke="#263238" stroke-width="1.92" stroke-linecap="round" stroke-linejoin="round"/>
<path d="M534.01 180.595H650.976C650.976 180.595 654.97 168.634 640.339 160.666C625.709 152.698 619.085 159.341 613.766 152.698C608.448 146.055 628.397 128.775 588.538 111.514C588.538 111.514 585.869 74.3042 531.398 72.9794C507.898 72.4034 497.261 79.2578 491.578 87.9746" stroke="#263238" stroke-width="1.92" stroke-linecap="round" stroke-linejoin="round"/>
<path d="M498.317 180.595H517.785" stroke="#263238" stroke-width="1.92" stroke-linecap="round" stroke-linejoin="round"/>
<path d="M484.493 106.33C482.823 111.994 481.018 116.89 476.928 119.482C462.317 128.775 458.343 114.163 443.712 123.475C429.082 132.787 435.84 151.373 423.802 154.023C411.763 156.672 395.885 142.08 381.274 151.373C366.663 160.666 366.663 168.653 360.019 168.653C353.376 168.653 340.09 163.354 332.122 168.653C324.154 173.952 314.842 180.615 314.842 180.615H464.237" stroke="#263238" stroke-width="1.92" stroke-linecap="round" stroke-linejoin="round"/>
<path d="M1264.05 512.621L1332.54 374.304L1353.1 384.48L1348.2 308.045L1284.46 350.496L1305.02 360.672L1236.52 498.989" stroke="#263238" stroke-width="1.92" stroke-linecap="round" stroke-linejoin="round"/>
<path d="M1230.64 302.573L1273.8 215.405L1286.76 221.817L1283.69 173.645L1243.51 200.39L1256.47 206.803L1213.31 293.99" stroke="#263238" stroke-width="1.92" stroke-linecap="round" stroke-linejoin="round"/>
<path d="M788.794 152.64C798.056 131.38 815.323 114.625 836.853 106.008C858.383 97.3914 882.442 97.6062 903.814 106.606C925.187 115.606 942.153 132.666 951.033 154.089C959.914 175.511 959.995 199.571 951.258 221.053C942.522 242.534 925.672 259.708 904.36 268.851C883.048 277.995 858.991 278.371 837.403 269.899C815.816 261.427 798.437 244.789 789.032 223.591C779.628 202.393 778.956 178.343 787.162 156.653" stroke="#263238" stroke-width="1.92" stroke-miterlimit="10"/>
<path d="M787.795 152.275C797.16 130.76 814.628 113.802 836.412 105.079C858.195 96.3549 882.539 96.5679 904.167 105.671C925.794 114.775 942.963 132.036 951.95 153.712C960.938 175.388 961.021 199.732 952.18 221.469C943.34 243.206 926.289 260.582 904.724 269.832C883.159 279.083 858.817 279.461 836.974 270.885C815.132 262.31 797.55 245.471 788.038 224.02C778.527 202.569 777.853 178.233 786.163 156.288" stroke="#263238" stroke-width="0.96" stroke-miterlimit="10"/>
<path d="M811.104 161.069C818.201 145.387 831.177 133.123 847.233 126.921C863.29 120.718 881.14 121.074 896.937 127.912C912.733 134.75 925.209 147.522 931.675 163.474C938.141 179.426 938.079 197.28 931.503 213.187C924.926 229.094 912.361 241.779 896.518 248.507C880.674 255.235 862.821 255.467 846.808 249.153C830.795 242.839 817.905 230.485 810.917 214.754C803.929 199.024 803.403 181.177 809.453 165.062" stroke="#263238" stroke-width="1.92" stroke-miterlimit="10"/>
<path d="M810.106 160.685C816.846 145.849 828.834 134.03 843.764 127.501C858.693 120.972 875.51 120.194 890.979 125.316C906.448 130.439 919.476 141.101 927.557 155.251C935.639 169.401 938.202 186.039 934.755 201.965C931.308 217.892 922.094 231.981 908.884 241.522C895.675 251.064 879.404 255.384 863.201 253.652C846.999 251.92 832.009 244.257 821.115 232.139C810.222 220.02 804.194 204.302 804.192 188.007C804.177 180.036 805.621 172.129 808.454 164.679" stroke="#263238" stroke-width="0.96" stroke-miterlimit="10"/>
<path d="M838.176 172.243L838.579 171.437C842.634 163.709 849.379 157.734 857.539 154.639C865.699 151.545 874.71 151.546 882.869 154.641C891.029 157.737 897.773 163.714 901.827 171.442C905.881 179.17 906.964 188.116 904.873 196.588C902.782 205.061 897.661 212.475 890.476 217.43C883.292 222.384 874.542 224.537 865.879 223.481C857.216 222.424 849.24 218.232 843.457 211.697C837.673 205.161 834.484 196.733 834.49 188.006C834.482 183.696 835.263 179.421 836.794 175.392" stroke="#263238" stroke-width="0.96" stroke-miterlimit="10"/>
<path d="M840.134 172.013H839.846L839.596 171.917L838.598 171.533L811.123 161.165L810.124 160.781L788.812 152.736L787.814 152.371L753.484 139.411L755.174 126.739C755.206 126.507 755.162 126.271 755.047 126.067C754.933 125.862 754.755 125.7 754.54 125.606L727.372 113.28C727.179 113.195 726.965 113.169 726.757 113.203C726.548 113.237 726.354 113.331 726.198 113.473C726.041 113.615 725.93 113.799 725.876 114.004C725.822 114.208 725.828 114.423 725.894 114.624L731.404 130.944L727.353 129.408C727.084 129.288 726.792 129.225 726.497 129.222C726.202 129.219 725.91 129.276 725.638 129.389C725.365 129.503 725.119 129.671 724.914 129.883C724.709 130.095 724.549 130.346 724.445 130.622C724.34 130.898 724.293 131.192 724.306 131.487C724.319 131.782 724.392 132.071 724.52 132.336C724.649 132.602 724.83 132.838 725.053 133.031C725.276 133.224 725.536 133.37 725.817 133.459L730.041 135.053L717.369 144.787C717.2 144.917 717.074 145.094 717.005 145.295C716.937 145.497 716.93 145.714 716.985 145.92C717.037 146.124 717.149 146.309 717.306 146.449C717.464 146.589 717.659 146.679 717.868 146.707L748.3 151.392H748.454C748.673 151.392 748.888 151.326 749.069 151.203C749.251 151.08 749.391 150.905 749.472 150.701L752.332 143.443L786.163 156.211L787.161 156.576L808.454 164.602L809.452 164.986L836.812 175.315L837.811 175.68L838.617 175.987" stroke="#263238" stroke-width="1.92" stroke-miterlimit="10"/>
<path d="M839.558 171.898H839.846H840.134L859.699 179.29L861.849 172.839C861.99 172.41 862.263 172.036 862.628 171.771C862.993 171.505 863.433 171.362 863.885 171.36V171.36C864.342 171.369 864.786 171.522 865.152 171.798C865.517 172.073 865.786 172.458 865.92 172.896L869.76 185.607C869.906 186.096 869.877 186.621 869.677 187.09C869.477 187.56 869.119 187.945 868.665 188.179L858.873 193.056C858.576 193.207 858.247 193.286 857.913 193.287C857.393 193.29 856.889 193.106 856.492 192.768C856.173 192.484 855.944 192.113 855.831 191.7C855.719 191.288 855.728 190.852 855.859 190.445L858.24 183.514L838.617 176.064C838.34 175.962 838.091 175.798 837.888 175.584" stroke="#263238" stroke-width="1.92" stroke-miterlimit="10"/>
<path d="M292.57 400.243L309.85 404.083L313.843 386.573L297.274 382.733C297.274 382.253 297.274 381.754 297.274 381.254C297.283 375.936 296.212 370.671 294.125 365.779L307.565 355.066L296.371 341.03L283.584 351.36C279.075 347.45 273.738 344.614 267.974 343.066V326.4H250.022V342.49C244.098 343.641 238.52 346.144 233.722 349.805L220.723 339.437L209.53 353.472L222.221 363.59C219.531 368.911 218.087 374.775 217.997 380.736L201.466 384.576L205.459 402.086L221.76 398.362C224.233 403.618 227.823 408.27 232.282 411.994L224.602 427.757L240.787 435.552L248.256 420.038C253.772 421.398 259.519 421.535 265.094 420.442L272.774 436.512L288.96 428.717L281.434 413.088C286.028 409.659 289.826 405.277 292.57 400.243V400.243ZM240 381.408C240 377.922 241.034 374.514 242.97 371.616C244.907 368.717 247.66 366.458 250.881 365.124C254.101 363.79 257.645 363.441 261.064 364.121C264.483 364.801 267.624 366.48 270.089 368.945C272.554 371.41 274.232 374.55 274.913 377.969C275.593 381.388 275.244 384.932 273.909 388.153C272.575 391.374 270.316 394.126 267.418 396.063C264.519 398 261.112 399.034 257.626 399.034C255.311 399.034 253.019 398.578 250.881 397.692C248.742 396.806 246.799 395.508 245.162 393.871C243.526 392.235 242.227 390.291 241.342 388.153C240.456 386.015 240 383.723 240 381.408V381.408Z" stroke="#263238" stroke-width="1.92" stroke-linecap="round" stroke-linejoin="round"/>
<path d="M1340.41 579.072L1352.1 581.741L1354.81 569.875L1343.58 567.302C1343.58 566.976 1343.58 566.63 1343.58 566.304C1343.59 562.697 1342.87 559.125 1341.47 555.802L1350.57 548.544L1342.89 538.944L1334.4 545.971C1331.35 543.321 1327.73 541.403 1323.82 540.365V529.018H1311.55V539.904C1307.54 540.696 1303.76 542.397 1300.51 544.877L1291.7 537.85L1284.02 547.45L1292.62 554.304C1290.81 557.878 1289.83 561.817 1289.76 565.824L1278.72 568.32L1281.43 580.186L1292.49 577.67C1294.16 581.229 1296.59 584.381 1299.61 586.906L1294.46 597.581L1305.43 602.861L1310.5 592.339C1312.56 592.856 1314.67 593.12 1316.79 593.126C1318.51 593.117 1320.22 592.95 1321.9 592.627L1327.14 603.514L1338.13 598.234L1333.02 587.654C1336.06 585.343 1338.57 582.419 1340.41 579.072V579.072ZM1304.77 566.4C1304.77 564.038 1305.48 561.729 1306.79 559.765C1308.1 557.801 1309.96 556.271 1312.15 555.367C1314.33 554.463 1316.73 554.226 1319.05 554.687C1321.36 555.148 1323.49 556.285 1325.16 557.955C1326.83 559.626 1327.97 561.754 1328.43 564.07C1328.89 566.387 1328.65 568.788 1327.75 570.97C1326.85 573.152 1325.32 575.018 1323.35 576.33C1321.39 577.642 1319.08 578.342 1316.72 578.342C1313.55 578.342 1310.51 577.084 1308.27 574.845C1306.03 572.605 1304.77 569.567 1304.77 566.4V566.4Z" stroke="#263238" stroke-width="1.92" stroke-linecap="round" stroke-linejoin="round"/>
<path d="M325.651 314.189L339.821 317.414L343.085 303.053L329.491 299.962C329.491 299.558 329.491 299.155 329.491 298.752C329.518 294.401 328.662 290.091 326.976 286.08L338.016 277.286L328.838 265.766L318.278 274.176C314.577 270.974 310.199 268.65 305.472 267.379V253.651H290.746V266.88C285.863 267.822 281.263 269.878 277.306 272.89L266.63 264.384L257.453 275.904L267.859 284.198C265.659 288.562 264.478 293.367 264.403 298.253L250.829 301.363L254.112 315.725L267.552 312.672C269.576 316.981 272.519 320.795 276.173 323.846L269.933 336.768L283.219 343.162L289.344 330.432C291.857 331.052 294.436 331.368 297.024 331.373C299.099 331.37 301.169 331.17 303.206 330.778L309.542 343.949L322.829 337.555L316.646 324.749C320.378 321.923 323.451 318.32 325.651 314.189V314.189ZM282.547 298.829C282.543 295.968 283.388 293.171 284.974 290.791C286.561 288.411 288.817 286.555 291.459 285.458C294.1 284.361 297.008 284.072 299.814 284.627C302.619 285.183 305.197 286.559 307.221 288.58C309.245 290.601 310.624 293.177 311.183 295.982C311.743 298.787 311.457 301.695 310.364 304.338C309.27 306.981 307.417 309.24 305.039 310.829C302.661 312.419 299.865 313.267 297.005 313.267C295.101 313.267 293.217 312.891 291.459 312.161C289.701 311.431 288.105 310.361 286.761 309.012C285.418 307.664 284.354 306.063 283.631 304.302C282.908 302.542 282.54 300.655 282.547 298.752V298.829Z" stroke="#263238" stroke-width="1.92" stroke-linecap="round" stroke-linejoin="round"/>
<path d="M1093.92 805.536C1093.92 805.536 1082 813.216 1079.62 815.136C1077.24 817.056 1066.27 819.437 1067.71 822.816C1069.15 826.195 1082.96 828.058 1086.78 828.058C1090.6 828.058 1105.34 820.378 1109.17 819.494C1112.99 818.611 1113.01 814.253 1111.55 810.912C1109.97 807.981 1108.04 805.26 1105.79 802.81L1095.78 805.67L1093.92 805.536Z" fill="white" stroke="#263238" stroke-width="1.92" stroke-linecap="round" stroke-linejoin="round"/>
<path d="M1229.24 804.23C1229.24 804.23 1220.18 815.194 1218.76 817.574C1217.34 819.955 1209.16 823.757 1209.16 827.578C1209.16 831.398 1222.98 829.498 1227.26 828.998C1229.84 828.598 1232.29 827.619 1234.44 826.136C1236.58 824.653 1238.36 822.704 1239.65 820.435C1242.05 815.654 1243.95 805.651 1241.09 801.85C1238.23 798.048 1229.24 804.23 1229.24 804.23Z" fill="white" stroke="#263238" stroke-width="1.92" stroke-linecap="round" stroke-linejoin="round"/>
<path d="M1114.89 593.146L1114.5 596.026L1111.55 618.874C1111.55 618.874 1085.05 656.294 1075.35 675.782C1070.4 685.728 1063.49 697.536 1064.45 700.858L1093.92 805.536C1096.15 806.633 1098.58 807.285 1101.06 807.456C1103.35 807.377 1105.61 806.896 1107.73 806.035L1106.38 709.152L1147.28 664.167L1152.52 670.829C1152.52 670.829 1166.09 718.982 1171.81 726.605C1177.54 734.227 1226.88 805.651 1226.88 805.651C1229.42 806.838 1232.18 807.492 1234.98 807.571C1239.28 807.571 1241.18 801.811 1241.18 801.811C1241.18 801.811 1205.68 714.163 1204.7 711.302C1203.73 708.442 1204.45 638.342 1204.45 638.342L1198.69 604.512L1192.03 583.066C1192.03 583.066 1179.65 586.407 1158.68 585.447C1137.72 584.487 1117.71 583.066 1117.71 583.066L1114.89 593.146Z" fill="#263238" stroke="#263238" stroke-width="1.92" stroke-linecap="round" stroke-linejoin="round"/>
<path d="M1058.65 363.494C1058.65 363.494 1051.99 373.498 1050.97 379.699C1050.57 383.825 1051.77 387.946 1054.31 391.219L1050.47 399.322C1050.47 399.322 1063.33 425.53 1070.96 437.434C1078.58 449.338 1090.96 469.363 1098.59 473.184C1106.21 477.005 1120.97 492.71 1120.97 492.71L1129.56 474.125C1129.56 474.125 1104.4 442.579 1088.64 420.672C1079.11 407.372 1070.36 393.532 1062.43 379.219C1062.42 375.072 1062.74 370.93 1063.39 366.835C1064.02 363.214 1064.33 359.547 1064.33 355.872L1058.65 363.494Z" fill="#263238" stroke="#263238" stroke-width="1.92" stroke-linecap="round" stroke-linejoin="round"/>
<path d="M1135.85 466.886C1135.85 466.886 1116.31 490.234 1112.51 505.478C1108.7 520.723 1113.45 567.898 1113.45 574.598C1113.45 581.299 1109.61 588.422 1114.89 593.184C1120.17 597.946 1135.85 595.565 1141.56 595.104C1147.26 594.643 1174.45 595.104 1182.55 592.704C1190.65 590.304 1194.45 586.944 1194.45 581.28C1194.45 575.616 1184.45 530.304 1182.93 522.682C1181.41 515.059 1186.77 488.851 1179.61 476.448C1172.45 464.045 1149.66 462.125 1135.85 466.886Z" fill="white" stroke="#263238" stroke-width="1.92" stroke-linecap="round" stroke-linejoin="round"/>
<path d="M1132.51 470.227C1132.51 470.227 1108.69 494.515 1105.34 507.379C1102 520.243 1090.1 545.03 1086.3 555.994C1082.99 564.641 1079.14 573.073 1074.78 581.242L1079.06 598.387L1090.02 586.483C1090.02 586.483 1100.99 548.832 1106.71 533.107C1112.43 517.382 1113.37 502.618 1114.39 498.336C1115.41 494.054 1132.51 470.227 1132.51 470.227Z" fill="#263238" stroke="#263238" stroke-width="1.92" stroke-linecap="round" stroke-linejoin="round"/>
<path d="M1135.85 468.787C1135.85 468.787 1121.55 507.859 1122.03 510.72C1122.51 513.581 1129.17 619.354 1129.17 619.354C1129.17 619.354 1135.85 635.559 1165.86 633.178C1195.87 630.797 1219.2 626.496 1219.2 626.496C1219.2 626.496 1210.16 590.765 1202.05 574.56C1193.95 558.355 1189.67 548.832 1189.67 541.21C1189.67 533.587 1186.33 482.611 1184.43 474.509C1183.6 470.348 1182.15 466.335 1180.13 462.605L1177.29 460.224L1135.85 468.787Z" fill="#01DC82" stroke="#263238" stroke-width="1.92" stroke-linecap="round" stroke-linejoin="round"/>
<path d="M1124.41 549.792L1147.76 606.97C1147.76 606.97 1138.16 610.81 1134.89 614.112C1133.06 615.955 1131.14 617.705 1129.13 619.354L1124.41 549.792Z" fill="#01DC82" stroke="#263238" stroke-width="1.92" stroke-linecap="round" stroke-linejoin="round"/>
<path d="M1155.38 392.083C1155.38 392.083 1140.61 403.987 1140.61 407.328C1140.61 410.669 1136.77 415.431 1136.77 415.431C1136.77 415.431 1129.09 416.391 1128.67 419.271C1128.25 422.151 1131.05 427.853 1131.05 427.853C1131.05 427.853 1126.29 444.058 1128.21 447.859C1130.13 451.661 1143.92 452.16 1143.92 452.16L1144.4 462.643L1177.29 457.402L1176.81 449.299C1176.81 449.299 1194.43 430.234 1203.01 422.131C1211.6 414.029 1200.63 399.744 1190.15 388.781C1179.67 377.818 1154.88 377.818 1152.98 383.539C1152.39 385.03 1152.31 386.673 1152.74 388.216C1153.17 389.758 1154.1 391.117 1155.38 392.083Z" fill="white" stroke="#263238" stroke-width="1.92" stroke-linecap="round" stroke-linejoin="round"/>
<path d="M1143 409.229C1144.05 408.705 1145.22 408.474 1146.39 408.558C1147.56 408.643 1148.69 409.04 1149.66 409.709" stroke="#263238" stroke-width="1.92" stroke-linecap="round" stroke-linejoin="round"/>
<path d="M1143.49 416.103C1143.13 417.639 1143.36 419.021 1143.99 419.155C1144.63 419.29 1145.45 418.195 1145.82 416.659C1146.18 415.123 1145.95 413.76 1145.32 413.607C1144.69 413.453 1143.86 414.567 1143.49 416.103Z" fill="#263238"/>
<path d="M1190.17 388.742C1179.69 377.779 1154.9 377.779 1153 383.501C1152.4 384.994 1152.31 386.644 1152.74 388.195C1153.17 389.746 1154.1 391.112 1155.38 392.083C1155.38 392.083 1171.58 394.003 1169.2 398.285C1166.82 402.566 1158.72 402.567 1160.62 405.427C1162.52 408.288 1169.2 414.47 1166.82 415.91C1164.44 417.35 1162.98 420.192 1164.44 421.152C1165.9 422.112 1168.28 419.712 1174.04 420.672C1179.8 421.632 1178.32 434.957 1173.08 436.877C1167.84 438.797 1165.4 436.397 1175 444.979C1176.13 445.967 1177.43 446.735 1178.84 447.245C1183.6 442.118 1196.29 428.602 1203.17 422.093C1211.52 413.99 1200.65 399.706 1190.17 388.742Z" fill="#263238" stroke="#263238" stroke-width="1.92" stroke-linecap="round" stroke-linejoin="round"/>
<path d="M1169.2 438.298L1160.62 436.397L1154.9 440.678" stroke="#263238" stroke-width="1.92" stroke-linecap="round" stroke-linejoin="round"/>
<path d="M1179.21 451.641L1135.37 463.545L1132.51 472.608L1184.45 463.085L1179.21 451.641Z" fill="#01DC82" stroke="#263238" stroke-width="1.92" stroke-linecap="round" stroke-linejoin="round"/>
<path d="M1068.67 377.779L1067.23 367.776C1067.23 367.776 1071.51 353.971 1071.51 350.631C1071.51 347.29 1068.19 339.667 1068.19 337.767C1068.19 335.866 1065.33 333.005 1064.35 336.807C1063.37 340.608 1061.49 354.912 1061.49 354.912C1061.49 354.912 1055.31 365.395 1055.73 370.637C1056.15 375.879 1060.95 386.842 1060.95 386.842L1069.54 381.6L1068.67 377.779Z" fill="white" stroke="#263238" stroke-width="1.92" stroke-linecap="round" stroke-linejoin="round"/>
<path d="M1074.85 385.421L1068.67 377.779L1057.23 386.842L1063.89 398.285L1074.85 385.421Z" fill="white" stroke="#263238" stroke-width="1.92" stroke-linecap="round" stroke-linejoin="round"/>
<path d="M1178.73 483.571C1175.57 475.581 1169.65 468.987 1162.04 464.986C1153.94 461.012 1145.49 457.798 1136.79 455.386L1071.99 381.543L1059.13 394.407C1059.13 394.407 1086.3 451.104 1091.54 460.627C1096.78 470.151 1157.28 535.507 1157.28 535.507" fill="#01DC82"/>
<path d="M1178.73 483.571C1175.57 475.581 1169.65 468.987 1162.04 464.986C1153.94 461.012 1145.49 457.798 1136.79 455.386L1071.99 381.543L1059.13 394.407C1059.13 394.407 1086.3 451.104 1091.54 460.627C1096.78 470.151 1157.28 535.507 1157.28 535.507" stroke="#263238" stroke-width="1.92" stroke-linecap="round" stroke-linejoin="round"/>
<path d="M613.805 795.725C613.805 795.725 604.685 808.685 602.765 815.885C600.845 823.085 601.325 832.685 606.125 831.725C610.925 830.765 621.965 818.765 622.925 815.405C623.885 812.045 627.245 796.685 627.245 796.685L615.725 795.725H613.805Z" fill="white" stroke="#263238" stroke-width="1.92" stroke-linecap="round" stroke-linejoin="round"/>
<path d="M778.445 803.885C778.445 803.885 778.445 817.325 781.325 819.245C784.205 821.165 803.885 829.325 809.645 829.805C815.405 830.285 817.325 829.325 813.965 822.605C810.605 815.885 791.405 802.925 791.405 802.925L778.445 803.885Z" fill="white" stroke="#263238" stroke-width="1.92" stroke-linecap="round" stroke-linejoin="round"/>
<path d="M660.365 576.845L649.325 623.405L643.565 710.765C643.565 710.765 622.445 747.245 620.525 760.685C618.605 774.125 612.365 801.485 612.365 801.485C612.365 801.485 621.005 805.325 622.445 805.325C623.885 805.325 641.165 780.365 650.765 770.765C660.365 761.165 681.965 719.885 682.925 717.965C683.885 716.045 699.245 655.085 700.205 653.165C701.165 651.245 706.925 648.845 706.925 648.845C706.925 648.845 735.84 690.413 739.335 693.907C744.922 699.494 753.965 713.645 753.965 713.645C753.965 713.645 773.645 791.885 775.085 795.725C776.127 799.323 776.771 803.026 777.005 806.765L794.765 810.605C794.765 810.605 796.205 758.285 795.245 745.805C794.285 733.325 790.445 706.445 790.445 706.445C790.445 706.445 761.165 626.285 759.725 624.365C758.285 622.445 749.645 603.245 749.645 603.245L746.765 585.005C729.88 589.736 712.114 590.394 694.925 586.925C666.125 581.165 660.365 576.845 660.365 576.845Z" fill="#263238" stroke="#263238" stroke-width="1.92" stroke-linecap="round" stroke-linejoin="round"/>
<path d="M687.495 446.688C677.068 453.582 666.246 459.858 655.085 465.485C640.359 472.531 636.845 479.578 636.845 483.091C636.845 486.605 624.039 544.858 624.999 548.045C625.959 551.232 634.599 556.051 640.051 557.338C645.504 558.624 653.165 557.011 654.759 555.725C656.352 554.438 661.479 532.685 661.479 532.685C661.479 532.685 658.599 572.045 657.331 577.171C656.064 582.298 667.891 595.411 679.411 597.658C690.931 599.904 721.959 599.885 729.965 597.331C737.971 594.778 743.405 594.125 745.959 589.325C748.512 584.525 750.125 550.291 750.451 548.045C750.778 545.798 753.331 525.331 753.331 525.331L761.645 553.498L764.851 559.258C764.851 559.258 766.445 555.725 776.371 549.965C786.298 544.205 789.485 543.571 789.485 543.571C789.485 543.571 783.725 524.698 780.211 513.811C776.698 502.925 773.165 483.091 768.691 475.085C764.218 467.078 756.211 463.565 745.325 456.845C734.439 450.125 718.445 446.285 716.525 445.325C714.605 444.365 697.498 442.944 687.495 446.688Z" fill="white" stroke="#263238" stroke-width="1.92" stroke-linecap="round" stroke-linejoin="round"/>
<path d="M661.479 532.685L668.237 509.28" stroke="#263238" stroke-width="1.92" stroke-linecap="round" stroke-linejoin="round"/>
<path d="M758.016 503.482L759.168 498.182" stroke="#263238" stroke-width="1.92" stroke-linecap="round" stroke-linejoin="round"/>
<path d="M753.332 525.331L756.999 508.282" stroke="#263238" stroke-width="1.92" stroke-linecap="round" stroke-linejoin="round"/>
<path d="M695.885 483.725L702.605 493.325L706.445 501.965L696.845 581.645L710.285 594.125L720.845 580.205L711.245 502.925L717.005 491.885L724.666 479.347L710.765 471.245L695.885 483.725Z" fill="#01DC82" stroke="#263238" stroke-width="1.92" stroke-linecap="round" stroke-linejoin="round"/>
<path d="M691.2 443.251C691.2 443.251 684.538 444.998 683.079 449.011C681.619 453.024 683.655 477.446 685.69 482.669C687.347 486.591 689.272 490.396 691.45 494.054C691.45 494.054 709.268 482.669 712.455 482.093C715.642 481.517 733.94 491.098 733.94 491.098C733.94 491.098 734.516 479.77 728.18 463.814C721.844 447.859 707.059 438.854 700.608 438.259C698.727 438.102 696.839 438.489 695.171 439.374C693.503 440.259 692.125 441.605 691.2 443.251V443.251Z" fill="white" stroke="#263238" stroke-width="1.92" stroke-linecap="round" stroke-linejoin="round"/>
<path d="M688.551 441.235C688.551 441.235 689.434 451.392 690.298 458.342C691.162 465.293 701.914 488.256 705.658 491.443C709.402 494.63 717.178 484.185 719.885 479.539C721.025 477.425 722.308 475.392 723.725 473.453C723.725 473.453 705.159 464.448 699.36 454.003C693.562 443.558 694.119 438.643 691.508 438.317C688.896 437.99 688.551 441.235 688.551 441.235Z" fill="white" stroke="#263238" stroke-width="1.92" stroke-linecap="round" stroke-linejoin="round"/>
<path d="M697.92 466.195L712.186 489.235C712.186 489.235 718.752 483.168 719.866 479.635C720.979 476.102 697.92 466.195 697.92 466.195Z" fill="#263238" stroke="#263238" stroke-width="1.92" stroke-linecap="round" stroke-linejoin="round"/>
<path d="M682.964 424.935C681.725 428.262 681.259 431.827 681.6 435.36C682.042 441.715 685.671 446.246 687.495 446.688C689.14 446.999 690.812 447.153 692.487 447.149C692.487 447.149 692.928 458.477 697.92 466.195C702.912 473.914 719.693 484.781 724.666 479.347C729.639 473.914 736.013 452.141 738.279 441.715C739.704 434.975 740.762 428.161 741.447 421.306L707.904 413.626L692.026 410.016L682.964 424.935Z" fill="white" stroke="#263238" stroke-width="1.92" stroke-linecap="round" stroke-linejoin="round"/>
<path d="M702.451 420.48C702.451 420.48 704.275 426.374 700.646 430.08C697.018 433.785 695.654 433.709 695.654 433.709C695.654 433.709 696.557 439.603 695.193 439.603C694.594 439.614 693.998 439.503 693.443 439.278C692.887 439.052 692.382 438.717 691.959 438.292C691.536 437.868 691.203 437.362 690.98 436.805C690.757 436.248 690.649 435.652 690.662 435.053C690.546 432.622 689.762 430.27 688.397 428.256L682.963 425.088C681.646 418.486 681.797 411.676 683.405 405.139C686.131 394.713 705.619 390.624 721.958 391.085C738.297 391.545 742.349 412.397 742.349 412.397C745.805 413.962 749.142 415.778 752.333 417.83C753.696 419.193 755.059 422.361 747.341 426.451C739.622 430.541 726.029 431.885 717.869 428.717C712.463 426.502 707.297 423.742 702.451 420.48V420.48Z" fill="#263238" stroke="#263238" stroke-width="1.92" stroke-linecap="round" stroke-linejoin="round"/>
<path d="M713.453 444.595C712.916 446.285 711.821 447.437 710.977 447.187C710.132 446.938 709.882 445.267 710.401 443.654C710.919 442.042 712.033 440.813 712.858 441.082C713.684 441.35 713.972 442.925 713.453 444.595Z" fill="#263238"/>
<path d="M732.307 446.054C731.789 447.744 730.675 448.896 729.85 448.627C729.024 448.358 728.736 446.707 729.254 445.114C729.773 443.52 730.886 442.272 731.731 442.522C732.576 442.771 732.825 444.365 732.307 446.054Z" fill="#263238"/>
<path d="M706.56 438.912C706.56 438.912 709.478 434.554 716.16 436.301" stroke="#263238" stroke-width="1.92" stroke-linecap="round" stroke-linejoin="round"/>
<path d="M727.162 438.317C727.756 437.752 728.46 437.316 729.232 437.038C730.003 436.76 730.823 436.645 731.641 436.701C732.459 436.757 733.256 436.983 733.983 437.363C734.709 437.744 735.348 438.271 735.859 438.912" stroke="#263238" stroke-width="1.92" stroke-linecap="round" stroke-linejoin="round"/>
<path d="M718.08 459.225C715.318 459.313 712.583 459.798 709.958 460.665C705.6 462.125 699.226 460.377 702.125 464.16C705.024 467.942 710.534 469.094 716.333 469.094C722.131 469.094 727.373 468.806 729.12 466.195C730.867 463.584 733.459 460.973 731.443 460.665C729.427 460.358 721.574 459.801 720.691 459.801C719.802 459.706 718.927 459.513 718.08 459.225V459.225Z" fill="#263238" stroke="#263238" stroke-width="1.92" stroke-linecap="round" stroke-linejoin="round"/>
<path d="M725.76 442.387C725.76 442.387 725.184 458.343 724.608 461.261C724.515 462.035 724.189 462.762 723.673 463.345C723.157 463.929 722.476 464.343 721.72 464.53C720.963 464.718 720.168 464.671 719.439 464.395C718.71 464.12 718.082 463.63 717.639 462.989C715.795 460.564 714.236 457.936 712.992 455.155" fill="white"/>
<path d="M725.76 442.387C725.76 442.387 725.184 458.343 724.608 461.261C724.515 462.035 724.189 462.762 723.673 463.345C723.157 463.929 722.476 464.343 721.72 464.53C720.963 464.718 720.168 464.671 719.439 464.395C718.71 464.12 718.082 463.63 717.639 462.989C715.795 460.564 714.236 457.936 712.992 455.155" stroke="#263238" stroke-width="1.92" stroke-linecap="round" stroke-linejoin="round"/>
<path d="M787.565 536.525C787.565 536.525 773.741 538.79 767.981 542.63C762.221 546.47 760.205 549.811 761.645 553.497C762.877 557.118 764.486 560.6 766.445 563.885C768.845 567.725 773.165 564.845 773.165 564.845C772.763 564.415 772.454 563.906 772.259 563.351C772.064 562.796 771.986 562.206 772.032 561.619C772.077 561.032 772.243 560.461 772.521 559.942C772.799 559.423 773.182 558.968 773.645 558.605C777.005 555.245 789.485 550.445 789.485 550.445H793.805C795.725 550.445 793.805 545.165 792.365 542.765C790.925 540.365 790.925 535.565 787.565 536.525Z" fill="white" stroke="#263238" stroke-width="1.92" stroke-linecap="round" stroke-linejoin="round"/>
<path d="M624.845 559.565C624.845 559.565 624.845 573.485 625.805 587.405C626.765 601.325 638.285 640.205 638.285 640.205L649.805 637.325C649.805 637.325 649.325 600.845 649.325 589.325C649.325 577.805 648.845 563.885 648.845 563.885L624.845 559.565Z" fill="white" stroke="#263238" stroke-width="1.92" stroke-linecap="round" stroke-linejoin="round"/>
<path d="M622.752 549.869C622.824 549.267 623.052 548.695 623.413 548.209C623.774 547.723 624.256 547.34 624.811 547.097C625.366 546.855 625.974 546.761 626.576 546.827C627.178 546.892 627.753 547.113 628.243 547.469C631.404 549.567 635.003 550.913 638.765 551.405C643.359 552.221 648.048 552.37 652.685 551.846C653.15 551.784 653.622 551.84 654.06 552.008C654.498 552.177 654.886 552.452 655.19 552.809C655.494 553.166 655.703 553.594 655.799 554.053C655.894 554.512 655.873 554.988 655.738 555.437C654.528 559.411 652.704 564.825 651.245 566.285C648.845 568.685 637.325 568.685 631.565 566.765C625.805 564.845 624.365 563.405 622.925 558.605C622.354 555.725 622.295 552.768 622.752 549.869V549.869Z" fill="white" stroke="#263238" stroke-width="1.92" stroke-linecap="round" stroke-linejoin="round"/>
<path d="M846.605 597.005C847.698 593.515 849.684 590.372 852.365 587.885C856.685 584.045 858.605 583.085 854.285 582.605C849.965 582.125 844.685 588.845 844.685 588.845L846.605 597.005Z" fill="white" stroke="#263238" stroke-width="1.92" stroke-linecap="round" stroke-linejoin="round"/>
<path d="M773.165 564.845C776.096 567.794 779.504 570.228 783.245 572.045C790.445 575.885 826.445 595.565 826.445 595.565L839.405 587.885C839.405 587.885 819.245 578.765 810.125 569.165C801.005 559.565 793.805 550.445 793.805 550.445C793.805 550.445 769.805 551.885 773.165 564.845Z" fill="white" stroke="#263238" stroke-width="1.92" stroke-linecap="round" stroke-linejoin="round"/>
<path d="M820.205 590.285C820.205 590.285 822.125 600.365 825.485 600.845C828.845 601.325 845.165 599.885 846.605 597.005C848.045 594.125 849.005 584.045 846.605 583.565C844.205 583.085 820.205 590.285 820.205 590.285Z" fill="white" stroke="#263238" stroke-width="1.92" stroke-linecap="round" stroke-linejoin="round"/>
<path d="M639.744 651.878C637.483 648.998 634.513 646.755 631.123 645.37C625.728 643.315 623.597 643.085 627.475 641.107C631.354 639.13 638.65 643.565 638.65 643.565L639.744 651.878Z" fill="white" stroke="#263238" stroke-width="1.92" stroke-linecap="round" stroke-linejoin="round"/>
<path d="M662.055 636.269C662.055 636.269 663.821 646.368 660.845 648C657.869 649.632 642.106 654.048 639.725 651.84C637.344 649.632 632.89 640.55 634.983 639.264C637.076 637.978 662.055 636.269 662.055 636.269Z" fill="white" stroke="#263238" stroke-width="1.92" stroke-linecap="round" stroke-linejoin="round"/>
<path d="M176.64 712.128C176.64 712.128 178.31 706.08 178.349 705.696C179.001 701.107 177.542 691.891 172.877 689.626C172.09 689.274 171.238 689.091 170.377 689.09C169.515 689.088 168.662 689.268 167.875 689.618C167.087 689.967 166.382 690.478 165.805 691.118C165.227 691.758 164.791 692.512 164.525 693.331C163.277 696.768 164.87 701.011 166.732 703.872C168.96 707.29 176.64 712.128 176.64 712.128Z" fill="#263238"/>
<path d="M84.7486 710.131C88.4734 711.763 97.555 711.552 97.5742 711.552C97.5934 711.552 95.6542 705.6 95.443 705.235C93.523 701.069 87.1294 694.176 82.003 694.867C81.1541 695.006 80.3438 695.322 79.6251 695.794C78.9064 696.267 78.2952 696.886 77.8315 697.61C77.3678 698.335 77.062 699.149 76.9338 700C76.8057 700.85 76.8582 701.718 77.0878 702.547C77.9326 706.099 81.5806 708.749 84.7486 710.131Z" fill="#263238"/>
<path d="M87.8976 736.474C91.7376 737.03 99.8592 734.688 100.512 734.554C101.84 739.197 103.482 743.746 105.427 748.166C106.541 750.758 107.75 753.312 108.979 755.846C108.25 754.752 107.578 753.792 107.462 753.658C104.448 750.163 96.5376 745.19 91.776 747.206C90.9931 747.565 90.2944 748.085 89.7252 748.731C89.1559 749.377 88.7289 750.136 88.4719 750.958C88.2148 751.78 88.1334 752.646 88.2329 753.502C88.3324 754.357 88.6107 755.182 89.0496 755.923C90.816 759.13 95.04 760.704 98.4576 761.203C101.875 761.702 108.883 759.84 110.707 759.283C111.206 760.262 111.667 761.203 112.166 762.221C114.509 766.906 116.89 771.571 119.059 776.198C119.827 777.83 120.518 779.482 121.229 781.114C120.576 780.154 120 779.347 119.904 779.194C116.89 775.699 108.979 770.707 104.218 772.742C103.437 773.102 102.741 773.62 102.174 774.265C101.606 774.91 101.18 775.666 100.924 776.486C100.667 777.306 100.584 778.17 100.682 779.023C100.78 779.876 101.056 780.7 101.491 781.44C103.258 784.627 107.482 786.221 110.899 786.72C114.317 787.219 120.634 785.53 122.822 784.934C123.494 786.624 124.166 788.333 124.742 790.003C125.107 791.155 125.53 792.25 125.837 793.421C126.144 794.592 126.49 795.725 126.797 796.858C127.334 799.085 127.891 801.35 128.352 803.539C128.698 805.037 128.986 806.477 129.274 807.936C128.525 806.304 127.008 803.136 126.854 802.886C124.378 799.046 117.254 792.845 112.301 794.112C111.473 794.348 110.705 794.756 110.046 795.308C109.386 795.861 108.851 796.546 108.474 797.32C108.097 798.093 107.888 798.937 107.859 799.797C107.83 800.657 107.983 801.514 108.307 802.31C109.555 805.747 113.491 807.955 116.794 808.973C120.422 810.086 128.486 809.069 129.485 808.973C129.965 811.373 130.406 813.715 130.81 815.942C131.616 820.57 132.25 824.755 132.73 828.326H136.109C135.533 824.621 134.784 820.243 133.824 815.366C133.344 812.928 132.768 810.317 132.173 807.686C134.599 806.714 136.964 805.599 139.258 804.346C141.907 807.226 148.704 810.586 149.587 811.008C148.666 813.274 147.667 815.482 146.842 817.555C145.075 821.606 143.386 825.235 141.888 828.346H145.536C146.822 825.504 148.224 822.278 149.664 818.746C150.605 816.442 151.584 813.946 152.544 811.392C153.523 811.603 161.491 813.216 165.216 812.371C168.576 811.622 172.666 809.722 174.182 806.381C174.563 805.616 174.778 804.78 174.816 803.926C174.854 803.073 174.713 802.221 174.402 801.426C174.091 800.63 173.617 799.908 173.01 799.307C172.404 798.705 171.678 798.237 170.88 797.933C165.984 796.282 158.477 801.773 155.731 805.613C155.578 805.843 154.08 808.416 153.158 810.048C153.562 809.011 153.946 807.994 154.33 806.918C155.117 804.768 155.846 802.618 156.614 800.314L157.651 796.877C158.016 795.744 158.246 794.496 158.573 793.286C159.245 790.483 159.782 787.526 160.262 784.704C162.182 785.376 168.806 787.718 172.282 787.469C175.757 787.219 179.962 785.952 182.035 782.899C182.531 782.195 182.872 781.395 183.037 780.55C183.202 779.705 183.188 778.834 182.994 777.996C182.8 777.157 182.431 776.368 181.912 775.681C181.393 774.995 180.735 774.425 179.981 774.01C175.373 771.629 167.117 775.93 163.853 779.27C163.642 779.482 161.549 782.074 160.435 783.533C160.704 781.786 160.992 780.038 161.203 778.253C161.837 773.126 162.336 767.904 162.835 762.701C162.989 761.107 163.162 759.514 163.334 757.939C163.987 758.189 171.878 761.107 175.757 760.838C179.213 760.608 183.533 759.341 185.53 756.269C186.024 755.564 186.365 754.762 186.528 753.916C186.692 753.07 186.676 752.2 186.48 751.361C186.284 750.522 185.914 749.733 185.393 749.047C184.872 748.361 184.212 747.793 183.456 747.379C178.867 744.998 170.611 749.299 167.328 752.64C167.078 752.89 164.083 756.653 163.354 757.632C163.738 754.138 164.141 750.662 164.659 747.245C165.337 742.587 166.305 737.977 167.558 733.44C167.866 733.555 176.083 736.666 180.058 736.378C183.494 736.147 187.738 734.88 189.811 731.808C190.307 731.104 190.648 730.303 190.813 729.458C190.978 728.613 190.964 727.743 190.77 726.904C190.576 726.066 190.207 725.277 189.688 724.59C189.169 723.903 188.511 723.334 187.757 722.918C183.149 720.538 174.912 724.838 171.629 728.179C171.418 728.41 169.114 731.251 168.058 732.634L167.808 732.499C169.223 728.017 171.041 723.673 173.242 719.52C174.413 717.216 175.661 715.066 176.928 713.011C178.406 713.76 185.165 717.043 188.774 717.178C192.384 717.312 196.646 716.544 198.97 713.702C199.539 713.056 199.966 712.298 200.222 711.475C200.478 710.653 200.558 709.786 200.457 708.931C200.356 708.076 200.075 707.252 199.633 706.512C199.192 705.773 198.599 705.135 197.894 704.64C193.594 701.779 184.896 705.235 181.286 708.115C181.094 708.269 179.366 710.035 177.965 711.418C178.541 710.496 179.136 709.498 179.712 708.672C181.882 705.408 184.07 702.566 186.029 700.051C187.142 698.63 188.179 697.363 189.178 696.211C191.098 696.211 198.336 695.962 201.523 694.464C204.71 692.966 208.243 690.24 208.992 686.669C209.199 685.834 209.228 684.964 209.077 684.116C208.926 683.269 208.598 682.463 208.114 681.751C207.63 681.039 207.002 680.437 206.27 679.984C205.538 679.532 204.719 679.238 203.866 679.123C198.72 678.566 192.595 685.632 190.714 689.856C190.541 690.221 188.659 696.23 188.794 696.23H188.909C187.93 697.344 186.893 698.534 185.798 699.878C183.878 702.355 181.536 705.158 179.29 708.403C176.818 711.845 174.56 715.435 172.531 719.155C170.235 723.311 168.307 727.661 166.771 732.154C166.771 732.154 166.771 732.154 166.771 732.307C166.771 730.79 166.771 726.547 166.771 726.221C166.195 721.632 162.336 713.126 157.171 712.186C156.321 712.049 155.452 712.095 154.621 712.318C153.789 712.541 153.015 712.938 152.347 713.482C151.68 714.026 151.136 714.705 150.749 715.474C150.363 716.243 150.143 717.086 150.106 717.946C149.798 721.594 152.448 725.242 155.021 727.546C157.92 730.138 165.984 732.653 166.541 732.845C165.119 737.444 164.003 742.133 163.2 746.88C162.72 749.645 162.298 752.467 161.933 755.27C161.933 753.965 161.933 752.794 161.933 752.621C161.338 748.051 157.498 739.526 152.333 738.586C151.483 738.453 150.615 738.5 149.785 738.725C148.955 738.949 148.182 739.346 147.515 739.889C146.849 740.433 146.304 741.11 145.917 741.878C145.529 742.646 145.308 743.487 145.267 744.346C144.979 747.994 147.61 751.642 150.182 753.946C152.755 756.25 159.648 758.554 161.453 759.149L161.05 762.394C160.435 767.597 159.84 772.781 159.13 777.85C158.861 779.635 158.534 781.382 158.227 783.149C158.227 781.978 158.227 780.998 158.227 780.845C157.632 776.256 153.792 767.75 148.627 766.81C147.777 766.673 146.908 766.719 146.077 766.942C145.245 767.165 144.471 767.562 143.803 768.106C143.136 768.65 142.592 769.329 142.205 770.098C141.819 770.867 141.6 771.71 141.562 772.57C141.254 776.218 143.904 779.866 146.477 782.17C149.05 784.474 155.27 786.547 157.421 787.258C157.037 789.043 156.672 790.829 156.23 792.538C155.885 793.709 155.654 794.842 155.251 795.994L154.157 799.411C153.37 801.542 152.582 803.75 151.776 805.824C151.219 807.264 150.662 808.627 150.106 810.01C150.394 808.224 150.874 804.73 150.874 804.442C150.811 800.393 149.714 796.427 147.686 792.922C147.725 792.468 147.725 792.012 147.686 791.558C147.58 790.705 147.295 789.883 146.85 789.147C146.405 788.411 145.81 787.777 145.104 787.286C144.397 786.795 143.595 786.458 142.75 786.298C141.905 786.138 141.036 786.157 140.198 786.355C135.187 787.699 132.019 796.493 131.77 801.101C131.77 801.37 131.942 804.346 132.096 806.227C131.827 805.133 131.597 804.077 131.328 802.963C130.81 800.736 130.214 798.547 129.6 796.186L128.563 792.768C128.237 791.616 127.738 790.426 127.354 789.254C126.355 786.547 125.222 783.859 124.013 781.171C125.933 780.71 132.806 778.963 135.533 776.832C138.259 774.701 141.178 771.302 141.139 767.635C141.163 766.765 141.001 765.9 140.664 765.098C140.327 764.296 139.822 763.574 139.185 762.982C138.547 762.39 137.791 761.94 136.965 761.663C136.14 761.386 135.266 761.288 134.4 761.376C129.235 761.933 124.8 770.15 123.84 774.682C123.84 774.95 123.475 778.291 123.341 780.115C122.611 778.502 121.882 776.89 121.075 775.296C118.771 770.65 116.314 766.022 113.856 761.414C113.107 759.994 112.378 758.573 111.648 757.152C112.339 756.998 120.518 755.098 123.61 752.736C126.355 750.624 129.254 747.187 129.235 743.539C129.258 742.673 129.097 741.811 128.762 741.012C128.427 740.213 127.927 739.493 127.293 738.902C126.66 738.31 125.908 737.86 125.088 737.58C124.268 737.3 123.397 737.198 122.534 737.28C117.389 737.837 112.934 746.035 111.974 750.566C111.974 750.912 111.475 755.693 111.437 756.922C109.805 753.792 108.211 750.662 106.771 747.533C104.823 743.279 103.149 738.906 101.76 734.438C102.086 734.438 110.65 732.518 113.798 730.003C116.544 727.891 119.443 724.454 119.424 720.806C119.449 719.946 119.291 719.089 118.962 718.293C118.633 717.497 118.14 716.779 117.515 716.187C116.89 715.594 116.147 715.14 115.334 714.855C114.522 714.569 113.658 714.457 112.8 714.528C107.654 715.085 103.2 723.283 102.259 727.814C102.259 728.122 101.856 731.77 101.741 733.574H101.453C100.157 729.049 99.2707 724.416 98.8032 719.731C98.5152 717.158 98.3808 714.682 98.3232 712.282C99.9552 712.07 107.386 711.091 110.477 709.229C113.568 707.366 116.698 704.333 117.082 700.685C117.198 699.833 117.133 698.967 116.893 698.141C116.652 697.316 116.24 696.551 115.684 695.895C115.128 695.24 114.441 694.709 113.666 694.336C112.891 693.964 112.046 693.759 111.187 693.734C106.003 693.734 100.666 701.414 99.2256 705.773C99.2256 706.022 98.6304 708.538 98.2848 710.381C98.2848 709.286 98.2848 708.173 98.2848 707.117C98.2848 703.277 98.5536 699.629 98.784 696.442C98.9376 694.637 99.1296 693.005 99.3024 691.488C100.8 690.47 106.79 686.227 108.634 683.213C110.477 680.198 111.898 675.994 110.554 672.595C110.267 671.784 109.813 671.043 109.22 670.42C108.627 669.797 107.909 669.306 107.113 668.98C106.317 668.654 105.462 668.499 104.602 668.527C103.742 668.554 102.898 668.763 102.125 669.139C97.5168 671.52 96.3648 680.774 97.0752 685.344C97.0752 685.728 98.88 691.776 98.9952 691.738C98.784 693.197 98.592 694.771 98.4 696.499C98.0928 699.667 97.7664 703.258 97.6704 707.194C97.5105 711.426 97.6131 715.665 97.9776 719.885C98.3301 724.625 99.1141 729.323 100.32 733.92V734.074C99.4944 732.787 97.0944 729.293 96.8832 729.043C93.8688 725.549 85.9584 720.557 81.1968 722.592C80.4145 722.949 79.7161 723.466 79.147 724.111C78.5779 724.755 78.1509 725.512 77.8937 726.333C77.6365 727.153 77.555 728.019 77.6543 728.873C77.7537 729.727 78.0317 730.55 78.4704 731.29C80.256 734.381 84.48 735.974 87.8976 736.474Z" fill="#263238"/>
<path opacity="0.3" d="M84.7486 710.131C88.4734 711.763 97.555 711.552 97.5742 711.552C97.5934 711.552 95.6542 705.6 95.443 705.235C93.523 701.069 87.1294 694.176 82.003 694.867C81.1541 695.006 80.3438 695.322 79.6251 695.794C78.9064 696.267 78.2952 696.886 77.8315 697.61C77.3678 698.335 77.062 699.149 76.9338 700C76.8057 700.85 76.8582 701.718 77.0878 702.547C77.9326 706.099 81.5806 708.749 84.7486 710.131Z" fill="#263238"/>
<path opacity="0.3" d="M176.64 712.128C176.64 712.128 178.31 706.08 178.349 705.696C179.001 701.107 177.542 691.891 172.877 689.626C172.09 689.274 171.238 689.091 170.377 689.09C169.515 689.088 168.662 689.268 167.875 689.618C167.087 689.967 166.382 690.478 165.805 691.118C165.227 691.758 164.791 692.512 164.525 693.331C163.277 696.768 164.87 701.011 166.732 703.872C168.96 707.29 176.64 712.128 176.64 712.128Z" fill="#263238"/>
<path opacity="0.3" d="M87.8976 736.474C91.7376 737.03 99.8592 734.688 100.512 734.554C101.84 739.197 103.482 743.746 105.427 748.166C106.541 750.758 107.75 753.312 108.979 755.846C108.25 754.752 107.578 753.792 107.462 753.658C104.448 750.163 96.5376 745.19 91.776 747.206C90.9931 747.565 90.2944 748.085 89.7252 748.731C89.1559 749.377 88.7289 750.136 88.4719 750.958C88.2148 751.78 88.1334 752.646 88.2329 753.502C88.3324 754.357 88.6107 755.182 89.0496 755.923C90.816 759.13 95.04 760.704 98.4576 761.203C101.875 761.702 108.883 759.84 110.707 759.283C111.206 760.262 111.667 761.203 112.166 762.221C114.509 766.906 116.89 771.571 119.059 776.198C119.827 777.83 120.518 779.482 121.229 781.114C120.576 780.154 120 779.347 119.904 779.194C116.89 775.699 108.979 770.707 104.218 772.742C103.437 773.102 102.741 773.62 102.174 774.265C101.606 774.91 101.18 775.666 100.924 776.486C100.667 777.306 100.584 778.17 100.682 779.023C100.78 779.876 101.056 780.7 101.491 781.44C103.258 784.627 107.482 786.221 110.899 786.72C114.317 787.219 120.634 785.53 122.822 784.934C123.494 786.624 124.166 788.333 124.742 790.003C125.107 791.155 125.53 792.25 125.837 793.421C126.144 794.592 126.49 795.725 126.797 796.858C127.334 799.085 127.891 801.35 128.352 803.539C128.698 805.037 128.986 806.477 129.274 807.936C128.525 806.304 127.008 803.136 126.854 802.886C124.378 799.046 117.254 792.845 112.301 794.112C111.473 794.348 110.705 794.756 110.046 795.308C109.386 795.861 108.851 796.546 108.474 797.32C108.097 798.093 107.888 798.937 107.859 799.797C107.83 800.657 107.983 801.514 108.307 802.31C109.555 805.747 113.491 807.955 116.794 808.973C120.422 810.086 128.486 809.069 129.485 808.973C129.965 811.373 130.406 813.715 130.81 815.942C131.616 820.57 132.25 824.755 132.73 828.326H136.109C135.533 824.621 134.784 820.243 133.824 815.366C133.344 812.928 132.768 810.317 132.173 807.686C134.599 806.714 136.964 805.599 139.258 804.346C141.907 807.226 148.704 810.586 149.587 811.008C148.666 813.274 147.667 815.482 146.842 817.555C145.075 821.606 143.386 825.235 141.888 828.346H145.536C146.822 825.504 148.224 822.278 149.664 818.746C150.605 816.442 151.584 813.946 152.544 811.392C153.523 811.603 161.491 813.216 165.216 812.371C168.576 811.622 172.666 809.722 174.182 806.381C174.563 805.616 174.778 804.78 174.816 803.926C174.854 803.073 174.713 802.221 174.402 801.426C174.091 800.63 173.617 799.908 173.01 799.307C172.404 798.705 171.678 798.237 170.88 797.933C165.984 796.282 158.477 801.773 155.731 805.613C155.578 805.843 154.08 808.416 153.158 810.048C153.562 809.011 153.946 807.994 154.33 806.918C155.117 804.768 155.846 802.618 156.614 800.314L157.651 796.877C158.016 795.744 158.246 794.496 158.573 793.286C159.245 790.483 159.782 787.526 160.262 784.704C162.182 785.376 168.806 787.718 172.282 787.469C175.757 787.219 179.962 785.952 182.035 782.899C182.531 782.195 182.872 781.395 183.037 780.55C183.202 779.705 183.188 778.834 182.994 777.996C182.8 777.157 182.431 776.368 181.912 775.681C181.393 774.995 180.735 774.425 179.981 774.01C175.373 771.629 167.117 775.93 163.853 779.27C163.642 779.482 161.549 782.074 160.435 783.533C160.704 781.786 160.992 780.038 161.203 778.253C161.837 773.126 162.336 767.904 162.835 762.701C162.989 761.107 163.162 759.514 163.334 757.939C163.987 758.189 171.878 761.107 175.757 760.838C179.213 760.608 183.533 759.341 185.53 756.269C186.024 755.564 186.365 754.762 186.528 753.916C186.692 753.07 186.676 752.2 186.48 751.361C186.284 750.522 185.914 749.733 185.393 749.047C184.872 748.361 184.212 747.793 183.456 747.379C178.867 744.998 170.611 749.299 167.328 752.64C167.078 752.89 164.083 756.653 163.354 757.632C163.738 754.138 164.141 750.662 164.659 747.245C165.337 742.587 166.305 737.977 167.558 733.44C167.866 733.555 176.083 736.666 180.058 736.378C183.494 736.147 187.738 734.88 189.811 731.808C190.307 731.104 190.648 730.303 190.813 729.458C190.978 728.613 190.964 727.743 190.77 726.904C190.576 726.066 190.207 725.277 189.688 724.59C189.169 723.903 188.511 723.334 187.757 722.918C183.149 720.538 174.912 724.838 171.629 728.179C171.418 728.41 169.114 731.251 168.058 732.634L167.808 732.499C169.223 728.017 171.041 723.673 173.242 719.52C174.413 717.216 175.661 715.066 176.928 713.011C178.406 713.76 185.165 717.043 188.774 717.178C192.384 717.312 196.646 716.544 198.97 713.702C199.539 713.056 199.966 712.298 200.222 711.475C200.478 710.653 200.558 709.786 200.457 708.931C200.356 708.076 200.075 707.252 199.633 706.512C199.192 705.773 198.599 705.135 197.894 704.64C193.594 701.779 184.896 705.235 181.286 708.115C181.094 708.269 179.366 710.035 177.965 711.418C178.541 710.496 179.136 709.498 179.712 708.672C181.882 705.408 184.07 702.566 186.029 700.051C187.142 698.63 188.179 697.363 189.178 696.211C191.098 696.211 198.336 695.962 201.523 694.464C204.71 692.966 208.243 690.24 208.992 686.669C209.199 685.834 209.228 684.964 209.077 684.116C208.926 683.269 208.598 682.463 208.114 681.751C207.63 681.039 207.002 680.437 206.27 679.984C205.538 679.532 204.719 679.238 203.866 679.123C198.72 678.566 192.595 685.632 190.714 689.856C190.541 690.221 188.659 696.23 188.794 696.23H188.909C187.93 697.344 186.893 698.534 185.798 699.878C183.878 702.355 181.536 705.158 179.29 708.403C176.818 711.845 174.56 715.435 172.531 719.155C170.235 723.311 168.307 727.661 166.771 732.154C166.771 732.154 166.771 732.154 166.771 732.307C166.771 730.79 166.771 726.547 166.771 726.221C166.195 721.632 162.336 713.126 157.171 712.186C156.321 712.049 155.452 712.095 154.621 712.318C153.789 712.541 153.015 712.938 152.347 713.482C151.68 714.026 151.136 714.705 150.749 715.474C150.363 716.243 150.143 717.086 150.106 717.946C149.798 721.594 152.448 725.242 155.021 727.546C157.92 730.138 165.984 732.653 166.541 732.845C165.119 737.444 164.003 742.133 163.2 746.88C162.72 749.645 162.298 752.467 161.933 755.27C161.933 753.965 161.933 752.794 161.933 752.621C161.338 748.051 157.498 739.526 152.333 738.586C151.483 738.453 150.615 738.5 149.785 738.725C148.955 738.949 148.182 739.346 147.515 739.889C146.849 740.433 146.304 741.11 145.917 741.878C145.529 742.646 145.308 743.487 145.267 744.346C144.979 747.994 147.61 751.642 150.182 753.946C152.755 756.25 159.648 758.554 161.453 759.149L161.05 762.394C160.435 767.597 159.84 772.781 159.13 777.85C158.861 779.635 158.534 781.382 158.227 783.149C158.227 781.978 158.227 780.998 158.227 780.845C157.632 776.256 153.792 767.75 148.627 766.81C147.777 766.673 146.908 766.719 146.077 766.942C145.245 767.165 144.471 767.562 143.803 768.106C143.136 768.65 142.592 769.329 142.205 770.098C141.819 770.867 141.6 771.71 141.562 772.57C141.254 776.218 143.904 779.866 146.477 782.17C149.05 784.474 155.27 786.547 157.421 787.258C157.037 789.043 156.672 790.829 156.23 792.538C155.885 793.709 155.654 794.842 155.251 795.994L154.157 799.411C153.37 801.542 152.582 803.75 151.776 805.824C151.219 807.264 150.662 808.627 150.106 810.01C150.394 808.224 150.874 804.73 150.874 804.442C150.811 800.393 149.714 796.427 147.686 792.922C147.725 792.468 147.725 792.012 147.686 791.558C147.58 790.705 147.295 789.883 146.85 789.147C146.405 788.411 145.81 787.777 145.104 787.286C144.397 786.795 143.595 786.458 142.75 786.298C141.905 786.138 141.036 786.157 140.198 786.355C135.187 787.699 132.019 796.493 131.77 801.101C131.77 801.37 131.942 804.346 132.096 806.227C131.827 805.133 131.597 804.077 131.328 802.963C130.81 800.736 130.214 798.547 129.6 796.186L128.563 792.768C128.237 791.616 127.738 790.426 127.354 789.254C126.355 786.547 125.222 783.859 124.013 781.171C125.933 780.71 132.806 778.963 135.533 776.832C138.259 774.701 141.178 771.302 141.139 767.635C141.163 766.765 141.001 765.9 140.664 765.098C140.327 764.296 139.822 763.574 139.185 762.982C138.547 762.39 137.791 761.94 136.965 761.663C136.14 761.386 135.266 761.288 134.4 761.376C129.235 761.933 124.8 770.15 123.84 774.682C123.84 774.95 123.475 778.291 123.341 780.115C122.611 778.502 121.882 776.89 121.075 775.296C118.771 770.65 116.314 766.022 113.856 761.414C113.107 759.994 112.378 758.573 111.648 757.152C112.339 756.998 120.518 755.098 123.61 752.736C126.355 750.624 129.254 747.187 129.235 743.539C129.258 742.673 129.097 741.811 128.762 741.012C128.427 740.213 127.927 739.493 127.293 738.902C126.66 738.31 125.908 737.86 125.088 737.58C124.268 737.3 123.397 737.198 122.534 737.28C117.389 737.837 112.934 746.035 111.974 750.566C111.974 750.912 111.475 755.693 111.437 756.922C109.805 753.792 108.211 750.662 106.771 747.533C104.823 743.279 103.149 738.906 101.76 734.438C102.086 734.438 110.65 732.518 113.798 730.003C116.544 727.891 119.443 724.454 119.424 720.806C119.449 719.946 119.291 719.089 118.962 718.293C118.633 717.497 118.14 716.779 117.515 716.187C116.89 715.594 116.147 715.14 115.334 714.855C114.522 714.569 113.658 714.457 112.8 714.528C107.654 715.085 103.2 723.283 102.259 727.814C102.259 728.122 101.856 731.77 101.741 733.574H101.453C100.157 729.049 99.2707 724.416 98.8032 719.731C98.5152 717.158 98.3808 714.682 98.3232 712.282C99.9552 712.07 107.386 711.091 110.477 709.229C113.568 707.366 116.698 704.333 117.082 700.685C117.198 699.833 117.133 698.967 116.893 698.141C116.652 697.316 116.24 696.551 115.684 695.895C115.128 695.24 114.441 694.709 113.666 694.336C112.891 693.964 112.046 693.759 111.187 693.734C106.003 693.734 100.666 701.414 99.2256 705.773C99.2256 706.022 98.6304 708.538 98.2848 710.381C98.2848 709.286 98.2848 708.173 98.2848 707.117C98.2848 703.277 98.5536 699.629 98.784 696.442C98.9376 694.637 99.1296 693.005 99.3024 691.488C100.8 690.47 106.79 686.227 108.634 683.213C110.477 680.198 111.898 675.994 110.554 672.595C110.267 671.784 109.813 671.043 109.22 670.42C108.627 669.797 107.909 669.306 107.113 668.98C106.317 668.654 105.462 668.499 104.602 668.527C103.742 668.554 102.898 668.763 102.125 669.139C97.5168 671.52 96.3648 680.774 97.0752 685.344C97.0752 685.728 98.88 691.776 98.9952 691.738C98.784 693.197 98.592 694.771 98.4 696.499C98.0928 699.667 97.7664 703.258 97.6704 707.194C97.5105 711.426 97.6131 715.665 97.9776 719.885C98.3301 724.625 99.1141 729.323 100.32 733.92V734.074C99.4944 732.787 97.0944 729.293 96.8832 729.043C93.8688 725.549 85.9584 720.557 81.1968 722.592C80.4145 722.949 79.7161 723.466 79.147 724.111C78.5779 724.755 78.1509 725.512 77.8937 726.333C77.6365 727.153 77.555 728.019 77.6543 728.873C77.7537 729.727 78.0317 730.55 78.4704 731.29C80.256 734.381 84.48 735.974 87.8976 736.474Z" fill="#263238"/>
<path d="M1342.69 712.128C1342.69 712.128 1344.35 706.08 1344.4 705.696C1345.04 701.107 1343.58 691.891 1338.91 689.626C1338.13 689.274 1337.27 689.091 1336.41 689.09C1335.55 689.088 1334.7 689.268 1333.91 689.618C1333.12 689.967 1332.42 690.478 1331.84 691.118C1331.26 691.758 1330.83 692.512 1330.56 693.331C1329.31 696.768 1330.91 701.011 1332.79 703.872C1334.98 707.29 1342.68 712.128 1342.69 712.128Z" fill="#263238"/>
<path d="M1250.71 710.131C1254.43 711.763 1263.51 711.552 1263.53 711.552C1263.55 711.552 1261.61 705.6 1261.4 705.235C1259.48 701.069 1253.11 694.176 1247.96 694.867C1247.11 695.006 1246.3 695.322 1245.58 695.794C1244.87 696.267 1244.25 696.886 1243.79 697.61C1243.33 698.335 1243.02 699.149 1242.89 700C1242.76 700.85 1242.82 701.718 1243.05 702.547C1243.89 706.099 1247.54 708.749 1250.71 710.131Z" fill="#263238"/>
<path d="M1253.86 736.473C1257.7 737.03 1265.82 734.688 1266.47 734.553C1267.81 739.194 1269.45 743.742 1271.39 748.166C1272.5 750.758 1273.71 753.312 1274.96 755.846L1273.44 753.657C1270.41 750.163 1262.5 745.19 1257.73 747.206C1256.95 747.567 1256.26 748.088 1255.69 748.734C1255.12 749.381 1254.7 750.139 1254.44 750.96C1254.18 751.781 1254.1 752.647 1254.2 753.502C1254.3 754.357 1254.57 755.181 1255.01 755.923C1256.77 759.129 1261 760.704 1264.42 761.203C1267.83 761.702 1274.84 759.84 1276.68 759.283L1278.12 762.221C1280.47 766.905 1282.85 771.571 1285.02 776.198C1285.79 777.83 1286.5 779.481 1287.19 781.113C1286.53 780.153 1285.98 779.347 1285.88 779.193C1282.85 775.699 1274.94 770.707 1270.18 772.742C1269.39 773.101 1268.69 773.62 1268.13 774.267C1267.56 774.913 1267.13 775.672 1266.87 776.493C1266.61 777.315 1266.53 778.182 1266.63 779.038C1266.73 779.893 1267.01 780.718 1267.45 781.459C1269.22 784.646 1273.44 786.24 1276.86 786.739C1280.28 787.238 1286.61 785.549 1288.78 784.953C1289.45 786.643 1290.12 788.352 1290.7 790.022C1291.07 791.174 1291.51 792.269 1291.8 793.44C1292.08 794.611 1292.45 795.744 1292.76 796.877C1293.29 799.104 1293.85 801.369 1294.31 803.558C1294.66 805.056 1294.94 806.496 1295.23 807.955C1294.5 806.323 1292.97 803.155 1292.81 802.905C1290.36 799.065 1283.21 792.864 1278.26 794.131C1277.43 794.367 1276.66 794.775 1276 795.327C1275.34 795.88 1274.81 796.565 1274.43 797.339C1274.06 798.112 1273.85 798.956 1273.82 799.816C1273.79 800.676 1273.94 801.533 1274.27 802.329C1275.51 805.766 1279.45 807.974 1282.75 808.992C1286.38 810.105 1294.44 809.088 1295.44 808.992C1295.92 811.392 1296.38 813.734 1296.77 815.961C1297.57 820.589 1298.21 824.774 1298.69 828.345H1302.07C1301.49 824.64 1300.74 820.262 1299.78 815.385C1299.3 812.947 1298.75 810.336 1298.13 807.705C1300.56 806.733 1302.92 805.618 1305.22 804.365C1307.87 807.245 1314.66 810.605 1315.55 811.027C1314.62 813.293 1313.63 815.501 1312.8 817.574C1311.03 821.625 1309.36 825.254 1307.85 828.365H1311.51C1312.78 825.523 1314.18 822.297 1315.62 818.765C1316.58 816.461 1317.54 813.965 1318.5 811.411C1319.48 811.622 1327.45 813.235 1331.17 812.39C1334.55 811.641 1338.62 809.741 1340.14 806.4C1340.52 805.628 1340.74 804.784 1340.77 803.924C1340.8 803.064 1340.65 802.206 1340.33 801.407C1340.01 800.608 1339.53 799.886 1338.91 799.287C1338.29 798.688 1337.55 798.227 1336.74 797.933C1331.85 796.281 1324.34 801.773 1321.59 805.613C1321.44 805.843 1319.94 808.416 1319.02 810.048C1319.42 809.011 1319.81 807.993 1320.19 806.918C1320.98 804.768 1321.71 802.617 1322.48 800.313L1323.51 796.877C1323.88 795.744 1324.13 794.496 1324.44 793.286C1325.11 790.483 1325.64 787.526 1326.12 784.704C1328.04 785.376 1334.69 787.718 1338.14 787.469C1341.6 787.219 1345.82 785.952 1347.9 782.899C1348.39 782.195 1348.73 781.394 1348.9 780.549C1349.06 779.704 1349.05 778.834 1348.86 777.995C1348.66 777.156 1348.29 776.368 1347.77 775.681C1347.26 774.994 1346.6 774.425 1345.84 774.009C1341.24 771.629 1332.98 775.929 1329.72 779.27C1329.5 779.481 1327.41 782.073 1326.3 783.533C1326.57 781.785 1326.85 780.038 1327.07 778.253C1327.72 773.126 1328.2 767.904 1328.7 762.701C1328.85 761.107 1329.02 759.513 1329.2 757.939C1329.87 758.189 1337.74 761.107 1341.62 760.838C1345.08 760.608 1349.3 759.341 1351.39 756.269C1351.88 755.564 1352.22 754.763 1352.39 753.919C1352.55 753.074 1352.53 752.205 1352.34 751.367C1352.15 750.529 1351.78 749.741 1351.26 749.054C1350.75 748.367 1350.09 747.797 1349.34 747.379C1344.73 744.998 1336.47 749.299 1333.19 752.64C1332.94 752.889 1329.95 756.653 1329.24 757.632C1329.6 754.137 1330 750.662 1330.54 747.245C1331.24 742.623 1332.23 738.05 1333.52 733.555C1333.82 733.67 1342.04 736.781 1346.02 736.493C1349.47 736.262 1353.79 734.995 1355.79 731.923C1356.28 731.217 1356.62 730.415 1356.78 729.57C1356.94 728.725 1356.93 727.855 1356.73 727.017C1356.53 726.179 1356.16 725.391 1355.65 724.705C1355.13 724.019 1354.47 723.449 1353.72 723.033C1349.13 720.653 1340.87 724.953 1337.59 728.294C1337.38 728.525 1335.07 731.366 1334.02 732.749L1333.77 732.614C1335.18 728.132 1337 723.788 1339.2 719.635C1340.37 717.331 1341.62 715.181 1342.89 713.126C1344.36 713.875 1351.12 717.158 1354.73 717.293C1358.34 717.427 1362.62 716.659 1364.93 713.817C1365.5 713.173 1365.93 712.415 1366.18 711.593C1366.44 710.772 1366.52 709.905 1366.42 709.05C1366.32 708.195 1366.05 707.371 1365.61 706.631C1365.17 705.89 1364.58 705.251 1363.87 704.755C1359.55 701.894 1350.87 705.35 1347.24 708.23C1347.05 708.384 1345.23 710.15 1343.92 711.533C1344.5 710.611 1345.09 709.613 1345.67 708.787C1347.84 705.523 1350.03 702.681 1351.99 700.166C1353.1 698.745 1354.16 697.478 1355.14 696.326C1357.06 696.326 1364.29 696.077 1367.5 694.579C1370.71 693.081 1374.2 690.355 1374.95 686.784C1375.16 685.948 1375.19 685.079 1375.04 684.231C1374.88 683.384 1374.56 682.578 1374.07 681.866C1373.59 681.154 1372.96 680.552 1372.23 680.099C1371.5 679.647 1370.68 679.353 1369.82 679.238C1364.68 678.681 1358.55 685.747 1356.67 689.971C1356.52 690.336 1354.62 696.345 1354.75 696.345H1354.87C1353.89 697.459 1352.95 698.649 1351.76 699.993C1349.84 702.47 1347.49 705.273 1345.25 708.518C1342.78 711.964 1340.53 715.555 1338.49 719.27C1336.19 723.426 1334.27 727.776 1332.73 732.269C1332.73 732.269 1332.73 732.269 1332.73 732.422C1332.73 730.905 1332.73 726.662 1332.73 726.336C1332.13 721.747 1328.28 713.241 1323.13 712.301C1322.28 712.164 1321.41 712.21 1320.58 712.433C1319.75 712.656 1318.97 713.053 1318.31 713.597C1317.64 714.141 1317.09 714.82 1316.71 715.589C1316.32 716.358 1316.1 717.201 1316.06 718.061C1315.76 721.709 1318.41 725.357 1320.98 727.661C1323.88 730.253 1331.96 732.768 1332.5 732.96C1331.05 737.568 1329.91 742.27 1329.1 747.033C1328.6 749.798 1328.18 752.621 1327.81 755.424C1327.81 754.118 1327.81 752.947 1327.81 752.774C1327.22 748.205 1323.38 739.68 1318.21 738.739C1317.36 738.606 1316.49 738.653 1315.66 738.878C1314.83 739.102 1314.06 739.499 1313.39 740.042C1312.72 740.585 1312.18 741.263 1311.79 742.03C1311.4 742.798 1311.17 743.639 1311.13 744.499C1310.84 748.147 1313.47 751.795 1316.06 754.099C1318.66 756.403 1325.51 758.707 1327.32 759.302L1326.91 762.547C1326.3 767.75 1325.7 772.934 1324.99 778.003C1324.72 779.789 1324.42 781.536 1324.09 783.302C1324.09 782.131 1324.09 781.152 1324.09 780.998C1323.49 776.409 1319.65 767.904 1314.49 766.963C1313.64 766.827 1312.77 766.872 1311.94 767.095C1311.11 767.319 1310.33 767.715 1309.67 768.259C1309 768.803 1308.45 769.482 1308.07 770.251C1307.68 771.021 1307.46 771.863 1307.42 772.723C1307.14 776.371 1309.77 780.019 1312.34 782.323C1314.91 784.627 1321.13 786.701 1323.28 787.411C1322.9 789.197 1322.53 790.982 1322.09 792.691C1321.75 793.862 1321.52 794.995 1321.11 796.147L1320.02 799.565C1319.23 801.696 1318.44 803.904 1317.64 805.977C1317.08 807.417 1316.52 808.781 1315.99 810.163C1316.26 808.377 1316.74 804.883 1316.74 804.595C1316.67 800.546 1315.58 796.581 1313.55 793.075C1313.59 792.621 1313.59 792.165 1313.55 791.712C1313.44 790.857 1313.15 790.035 1312.71 789.299C1312.26 788.563 1311.66 787.929 1310.95 787.438C1310.25 786.948 1309.44 786.611 1308.6 786.451C1307.75 786.291 1306.88 786.311 1306.04 786.509C1301.03 787.853 1297.86 796.646 1297.63 801.254C1297.63 801.523 1297.79 804.499 1297.94 806.381C1297.69 805.286 1297.44 804.23 1297.17 803.117C1296.65 800.889 1296.06 798.701 1295.44 796.339L1294.41 792.921C1294.08 791.769 1293.6 790.579 1293.2 789.408C1292.2 786.701 1291.07 784.013 1289.86 781.325C1291.78 780.864 1298.65 779.117 1301.38 776.985C1304.1 774.854 1307.02 771.456 1307 767.789C1307.02 766.929 1306.86 766.073 1306.53 765.279C1306.2 764.484 1305.71 763.768 1305.09 763.176C1304.46 762.584 1303.72 762.13 1302.91 761.843C1302.1 761.556 1301.24 761.443 1300.38 761.51C1295.23 762.067 1290.78 770.285 1289.82 774.816C1289.82 775.085 1289.45 778.425 1289.32 780.249C1288.59 778.637 1287.86 777.024 1287.07 775.43C1284.77 770.784 1282.29 766.157 1279.83 761.549C1279.08 760.128 1278.36 758.707 1277.63 757.286C1278.32 757.133 1286.52 755.232 1289.59 752.87C1292.33 750.758 1295.23 747.321 1295.21 743.673C1295.24 742.812 1295.08 741.956 1294.75 741.16C1294.42 740.364 1293.93 739.646 1293.3 739.054C1292.68 738.461 1291.94 738.007 1291.12 737.722C1290.31 737.436 1289.45 737.324 1288.59 737.395C1283.44 737.952 1278.99 746.15 1278.03 750.681C1278.03 751.027 1277.53 755.808 1277.49 757.037C1275.86 753.907 1274.28 750.777 1272.84 747.648C1270.87 743.405 1269.18 739.038 1267.78 734.573C1268.1 734.573 1276.67 732.653 1279.81 730.137C1282.56 728.025 1285.57 724.589 1285.44 720.941C1285.46 720.08 1285.31 719.223 1284.98 718.427C1284.65 717.631 1284.16 716.914 1283.53 716.321C1282.91 715.729 1282.16 715.275 1281.35 714.989C1280.54 714.703 1279.67 714.592 1278.82 714.662C1273.67 715.219 1269.22 723.417 1268.28 727.949C1268.28 728.256 1267.87 731.904 1267.76 733.709H1267.47C1266.17 729.183 1265.29 724.55 1264.82 719.865C1264.53 717.293 1264.42 714.816 1264.34 712.416C1265.97 712.205 1273.42 711.225 1276.49 709.363C1279.56 707.501 1282.71 704.467 1283.1 700.819C1283.21 699.967 1283.15 699.101 1282.91 698.275C1282.67 697.45 1282.26 696.685 1281.7 696.029C1281.14 695.374 1280.46 694.843 1279.68 694.47C1278.91 694.098 1278.06 693.893 1277.2 693.869C1272.02 693.869 1266.68 701.549 1265.26 705.907C1265.26 706.157 1264.67 708.672 1264.3 710.515C1264.3 709.421 1264.3 708.307 1264.3 707.251C1264.3 703.411 1264.55 699.763 1264.8 696.576C1264.95 694.771 1265.13 693.139 1265.3 691.622C1266.8 690.605 1272.79 686.361 1274.63 683.347C1276.47 680.333 1277.91 676.128 1276.55 672.729C1276.26 671.918 1275.81 671.176 1275.21 670.553C1274.62 669.93 1273.9 669.439 1273.1 669.113C1272.3 668.787 1271.44 668.633 1270.58 668.66C1269.72 668.688 1268.88 668.897 1268.1 669.273C1263.49 671.654 1262.34 680.909 1263.05 685.478C1263.05 685.862 1264.86 691.91 1264.97 691.872C1264.76 693.331 1264.57 694.905 1264.38 696.633C1264.07 699.801 1263.74 703.392 1263.65 707.328C1263.51 711.561 1263.61 715.798 1263.96 720.019C1264.33 724.757 1265.11 729.453 1266.3 734.054V734.208C1265.49 732.921 1263.09 729.427 1262.86 729.177C1259.85 725.683 1251.94 720.691 1247.17 722.726C1246.39 723.083 1245.69 723.6 1245.12 724.245C1244.56 724.889 1244.13 725.646 1243.87 726.467C1243.61 727.287 1243.53 728.153 1243.63 729.007C1243.73 729.861 1244.01 730.684 1244.45 731.424C1246.21 734.381 1250.44 735.974 1253.86 736.473Z" fill="#263238"/>
<path opacity="0.3" d="M1250.71 710.131C1254.43 711.763 1263.51 711.552 1263.53 711.552C1263.55 711.552 1261.61 705.6 1261.4 705.235C1259.48 701.069 1253.11 694.176 1247.96 694.867C1247.11 695.006 1246.3 695.322 1245.58 695.794C1244.87 696.267 1244.25 696.886 1243.79 697.61C1243.33 698.335 1243.02 699.149 1242.89 700C1242.76 700.85 1242.82 701.718 1243.05 702.547C1243.89 706.099 1247.54 708.749 1250.71 710.131Z" fill="#263238"/>
<path opacity="0.3" d="M1342.69 712.128C1342.69 712.128 1344.35 706.08 1344.4 705.696C1345.04 701.107 1343.58 691.891 1338.91 689.626C1338.13 689.274 1337.27 689.091 1336.41 689.09C1335.55 689.088 1334.7 689.268 1333.91 689.618C1333.12 689.967 1332.42 690.478 1331.84 691.118C1331.26 691.758 1330.83 692.512 1330.56 693.331C1329.31 696.768 1330.91 701.011 1332.79 703.872C1334.98 707.29 1342.68 712.128 1342.69 712.128Z" fill="#263238"/>
<path opacity="0.3" d="M1253.86 736.473C1257.7 737.03 1265.82 734.688 1266.47 734.553C1267.81 739.194 1269.45 743.742 1271.39 748.166C1272.5 750.758 1273.71 753.312 1274.96 755.846L1273.44 753.657C1270.41 750.163 1262.5 745.19 1257.73 747.206C1256.95 747.567 1256.26 748.088 1255.69 748.734C1255.12 749.381 1254.7 750.139 1254.44 750.96C1254.18 751.781 1254.1 752.647 1254.2 753.502C1254.3 754.357 1254.57 755.181 1255.01 755.923C1256.77 759.129 1261 760.704 1264.42 761.203C1267.83 761.702 1274.84 759.84 1276.68 759.283L1278.12 762.221C1280.47 766.905 1282.85 771.571 1285.02 776.198C1285.79 777.83 1286.5 779.481 1287.19 781.113C1286.53 780.153 1285.98 779.347 1285.88 779.193C1282.85 775.699 1274.94 770.707 1270.18 772.742C1269.39 773.101 1268.69 773.62 1268.13 774.267C1267.56 774.913 1267.13 775.672 1266.87 776.493C1266.61 777.315 1266.53 778.182 1266.63 779.038C1266.73 779.893 1267.01 780.718 1267.45 781.459C1269.22 784.646 1273.44 786.24 1276.86 786.739C1280.28 787.238 1286.61 785.549 1288.78 784.953C1289.45 786.643 1290.12 788.352 1290.7 790.022C1291.07 791.174 1291.51 792.269 1291.8 793.44C1292.08 794.611 1292.45 795.744 1292.76 796.877C1293.29 799.104 1293.85 801.369 1294.31 803.558C1294.66 805.056 1294.94 806.496 1295.23 807.955C1294.5 806.323 1292.97 803.155 1292.81 802.905C1290.36 799.065 1283.21 792.864 1278.26 794.131C1277.43 794.367 1276.66 794.775 1276 795.327C1275.34 795.88 1274.81 796.565 1274.43 797.339C1274.06 798.112 1273.85 798.956 1273.82 799.816C1273.79 800.676 1273.94 801.533 1274.27 802.329C1275.51 805.766 1279.45 807.974 1282.75 808.992C1286.38 810.105 1294.44 809.088 1295.44 808.992C1295.92 811.392 1296.38 813.734 1296.77 815.961C1297.57 820.589 1298.21 824.774 1298.69 828.345H1302.07C1301.49 824.64 1300.74 820.262 1299.78 815.385C1299.3 812.947 1298.75 810.336 1298.13 807.705C1300.56 806.733 1302.92 805.618 1305.22 804.365C1307.87 807.245 1314.66 810.605 1315.55 811.027C1314.62 813.293 1313.63 815.501 1312.8 817.574C1311.03 821.625 1309.36 825.254 1307.85 828.365H1311.51C1312.78 825.523 1314.18 822.297 1315.62 818.765C1316.58 816.461 1317.54 813.965 1318.5 811.411C1319.48 811.622 1327.45 813.235 1331.17 812.39C1334.55 811.641 1338.62 809.741 1340.14 806.4C1340.52 805.628 1340.74 804.784 1340.77 803.924C1340.8 803.064 1340.65 802.206 1340.33 801.407C1340.01 800.608 1339.53 799.886 1338.91 799.287C1338.29 798.688 1337.55 798.227 1336.74 797.933C1331.85 796.281 1324.34 801.773 1321.59 805.613C1321.44 805.843 1319.94 808.416 1319.02 810.048C1319.42 809.011 1319.81 807.993 1320.19 806.918C1320.98 804.768 1321.71 802.617 1322.48 800.313L1323.51 796.877C1323.88 795.744 1324.13 794.496 1324.44 793.286C1325.11 790.483 1325.64 787.526 1326.12 784.704C1328.04 785.376 1334.69 787.718 1338.14 787.469C1341.6 787.219 1345.82 785.952 1347.9 782.899C1348.39 782.195 1348.73 781.394 1348.9 780.549C1349.06 779.704 1349.05 778.834 1348.86 777.995C1348.66 777.156 1348.29 776.368 1347.77 775.681C1347.26 774.994 1346.6 774.425 1345.84 774.009C1341.24 771.629 1332.98 775.929 1329.72 779.27C1329.5 779.481 1327.41 782.073 1326.3 783.533C1326.57 781.785 1326.85 780.038 1327.07 778.253C1327.72 773.126 1328.2 767.904 1328.7 762.701C1328.85 761.107 1329.02 759.513 1329.2 757.939C1329.87 758.189 1337.74 761.107 1341.62 760.838C1345.08 760.608 1349.3 759.341 1351.39 756.269C1351.88 755.564 1352.22 754.763 1352.39 753.919C1352.55 753.074 1352.53 752.205 1352.34 751.367C1352.15 750.529 1351.78 749.741 1351.26 749.054C1350.75 748.367 1350.09 747.797 1349.34 747.379C1344.73 744.998 1336.47 749.299 1333.19 752.64C1332.94 752.889 1329.95 756.653 1329.24 757.632C1329.6 754.137 1330 750.662 1330.54 747.245C1331.24 742.623 1332.23 738.05 1333.52 733.555C1333.82 733.67 1342.04 736.781 1346.02 736.493C1349.47 736.262 1353.79 734.995 1355.79 731.923C1356.28 731.217 1356.62 730.415 1356.78 729.57C1356.94 728.725 1356.93 727.855 1356.73 727.017C1356.53 726.179 1356.16 725.391 1355.65 724.705C1355.13 724.019 1354.47 723.449 1353.72 723.033C1349.13 720.653 1340.87 724.953 1337.59 728.294C1337.38 728.525 1335.07 731.366 1334.02 732.749L1333.77 732.614C1335.18 728.132 1337 723.788 1339.2 719.635C1340.37 717.331 1341.62 715.181 1342.89 713.126C1344.36 713.875 1351.12 717.158 1354.73 717.293C1358.34 717.427 1362.62 716.659 1364.93 713.817C1365.5 713.173 1365.93 712.415 1366.18 711.593C1366.44 710.772 1366.52 709.905 1366.42 709.05C1366.32 708.195 1366.05 707.371 1365.61 706.631C1365.17 705.89 1364.58 705.251 1363.87 704.755C1359.55 701.894 1350.87 705.35 1347.24 708.23C1347.05 708.384 1345.23 710.15 1343.92 711.533C1344.5 710.611 1345.09 709.613 1345.67 708.787C1347.84 705.523 1350.03 702.681 1351.99 700.166C1353.1 698.745 1354.16 697.478 1355.14 696.326C1357.06 696.326 1364.29 696.077 1367.5 694.579C1370.71 693.081 1374.2 690.355 1374.95 686.784C1375.16 685.948 1375.19 685.079 1375.04 684.231C1374.88 683.384 1374.56 682.578 1374.07 681.866C1373.59 681.154 1372.96 680.552 1372.23 680.099C1371.5 679.647 1370.68 679.353 1369.82 679.238C1364.68 678.681 1358.55 685.747 1356.67 689.971C1356.52 690.336 1354.62 696.345 1354.75 696.345H1354.87C1353.89 697.459 1352.95 698.649 1351.76 699.993C1349.84 702.47 1347.49 705.273 1345.25 708.518C1342.78 711.964 1340.53 715.555 1338.49 719.27C1336.19 723.426 1334.27 727.776 1332.73 732.269C1332.73 732.269 1332.73 732.269 1332.73 732.422C1332.73 730.905 1332.73 726.662 1332.73 726.336C1332.13 721.747 1328.28 713.241 1323.13 712.301C1322.28 712.164 1321.41 712.21 1320.58 712.433C1319.75 712.656 1318.97 713.053 1318.31 713.597C1317.64 714.141 1317.09 714.82 1316.71 715.589C1316.32 716.358 1316.1 717.201 1316.06 718.061C1315.76 721.709 1318.41 725.357 1320.98 727.661C1323.88 730.253 1331.96 732.768 1332.5 732.96C1331.05 737.568 1329.91 742.27 1329.1 747.033C1328.6 749.798 1328.18 752.621 1327.81 755.424C1327.81 754.118 1327.81 752.947 1327.81 752.774C1327.22 748.205 1323.38 739.68 1318.21 738.739C1317.36 738.606 1316.49 738.653 1315.66 738.878C1314.83 739.102 1314.06 739.499 1313.39 740.042C1312.72 740.585 1312.18 741.263 1311.79 742.03C1311.4 742.798 1311.17 743.639 1311.13 744.499C1310.84 748.147 1313.47 751.795 1316.06 754.099C1318.66 756.403 1325.51 758.707 1327.32 759.302L1326.91 762.547C1326.3 767.75 1325.7 772.934 1324.99 778.003C1324.72 779.789 1324.42 781.536 1324.09 783.302C1324.09 782.131 1324.09 781.152 1324.09 780.998C1323.49 776.409 1319.65 767.904 1314.49 766.963C1313.64 766.827 1312.77 766.872 1311.94 767.095C1311.11 767.319 1310.33 767.715 1309.67 768.259C1309 768.803 1308.45 769.482 1308.07 770.251C1307.68 771.021 1307.46 771.863 1307.42 772.723C1307.14 776.371 1309.77 780.019 1312.34 782.323C1314.91 784.627 1321.13 786.701 1323.28 787.411C1322.9 789.197 1322.53 790.982 1322.09 792.691C1321.75 793.862 1321.52 794.995 1321.11 796.147L1320.02 799.565C1319.23 801.696 1318.44 803.904 1317.64 805.977C1317.08 807.417 1316.52 808.781 1315.99 810.163C1316.26 808.377 1316.74 804.883 1316.74 804.595C1316.67 800.546 1315.58 796.581 1313.55 793.075C1313.59 792.621 1313.59 792.165 1313.55 791.712C1313.44 790.857 1313.15 790.035 1312.71 789.299C1312.26 788.563 1311.66 787.929 1310.95 787.438C1310.25 786.948 1309.44 786.611 1308.6 786.451C1307.75 786.291 1306.88 786.311 1306.04 786.509C1301.03 787.853 1297.86 796.646 1297.63 801.254C1297.63 801.523 1297.79 804.499 1297.94 806.381C1297.69 805.286 1297.44 804.23 1297.17 803.117C1296.65 800.889 1296.06 798.701 1295.44 796.339L1294.41 792.921C1294.08 791.769 1293.6 790.579 1293.2 789.408C1292.2 786.701 1291.07 784.013 1289.86 781.325C1291.78 780.864 1298.65 779.117 1301.38 776.985C1304.1 774.854 1307.02 771.456 1307 767.789C1307.02 766.929 1306.86 766.073 1306.53 765.279C1306.2 764.484 1305.71 763.768 1305.09 763.176C1304.46 762.584 1303.72 762.13 1302.91 761.843C1302.1 761.556 1301.24 761.443 1300.38 761.51C1295.23 762.067 1290.78 770.285 1289.82 774.816C1289.82 775.085 1289.45 778.425 1289.32 780.249C1288.59 778.637 1287.86 777.024 1287.07 775.43C1284.77 770.784 1282.29 766.157 1279.83 761.549C1279.08 760.128 1278.36 758.707 1277.63 757.286C1278.32 757.133 1286.52 755.232 1289.59 752.87C1292.33 750.758 1295.23 747.321 1295.21 743.673C1295.24 742.812 1295.08 741.956 1294.75 741.16C1294.42 740.364 1293.93 739.646 1293.3 739.054C1292.68 738.461 1291.94 738.007 1291.12 737.722C1290.31 737.436 1289.45 737.324 1288.59 737.395C1283.44 737.952 1278.99 746.15 1278.03 750.681C1278.03 751.027 1277.53 755.808 1277.49 757.037C1275.86 753.907 1274.28 750.777 1272.84 747.648C1270.87 743.405 1269.18 739.038 1267.78 734.573C1268.1 734.573 1276.67 732.653 1279.81 730.137C1282.56 728.025 1285.57 724.589 1285.44 720.941C1285.46 720.08 1285.31 719.223 1284.98 718.427C1284.65 717.631 1284.16 716.914 1283.53 716.321C1282.91 715.729 1282.16 715.275 1281.35 714.989C1280.54 714.703 1279.67 714.592 1278.82 714.662C1273.67 715.219 1269.22 723.417 1268.28 727.949C1268.28 728.256 1267.87 731.904 1267.76 733.709H1267.47C1266.17 729.183 1265.29 724.55 1264.82 719.865C1264.53 717.293 1264.42 714.816 1264.34 712.416C1265.97 712.205 1273.42 711.225 1276.49 709.363C1279.56 707.501 1282.71 704.467 1283.1 700.819C1283.21 699.967 1283.15 699.101 1282.91 698.275C1282.67 697.45 1282.26 696.685 1281.7 696.029C1281.14 695.374 1280.46 694.843 1279.68 694.47C1278.91 694.098 1278.06 693.893 1277.2 693.869C1272.02 693.869 1266.68 701.549 1265.26 705.907C1265.26 706.157 1264.67 708.672 1264.3 710.515C1264.3 709.421 1264.3 708.307 1264.3 707.251C1264.3 703.411 1264.55 699.763 1264.8 696.576C1264.95 694.771 1265.13 693.139 1265.3 691.622C1266.8 690.605 1272.79 686.361 1274.63 683.347C1276.47 680.333 1277.91 676.128 1276.55 672.729C1276.26 671.918 1275.81 671.176 1275.21 670.553C1274.62 669.93 1273.9 669.439 1273.1 669.113C1272.3 668.787 1271.44 668.633 1270.58 668.66C1269.72 668.688 1268.88 668.897 1268.1 669.273C1263.49 671.654 1262.34 680.909 1263.05 685.478C1263.05 685.862 1264.86 691.91 1264.97 691.872C1264.76 693.331 1264.57 694.905 1264.38 696.633C1264.07 699.801 1263.74 703.392 1263.65 707.328C1263.51 711.561 1263.61 715.798 1263.96 720.019C1264.33 724.757 1265.11 729.453 1266.3 734.054V734.208C1265.49 732.921 1263.09 729.427 1262.86 729.177C1259.85 725.683 1251.94 720.691 1247.17 722.726C1246.39 723.083 1245.69 723.6 1245.12 724.245C1244.56 724.889 1244.13 725.646 1243.87 726.467C1243.61 727.287 1243.53 728.153 1243.63 729.007C1243.73 729.861 1244.01 730.684 1244.45 731.424C1246.21 734.381 1250.44 735.974 1253.86 736.473Z" fill="#263238"/>
<path d="M341.645 655.565C341.645 655.565 344.045 655.085 363.725 649.325C376.331 645.288 387.831 638.388 397.325 629.165L391.085 589.805L351.245 595.565L341.645 655.565Z" fill="#01DC82" stroke="#263238" stroke-width="1.92" stroke-linecap="round" stroke-linejoin="round"/>
<path d="M243.725 789.005C243.725 789.005 237.005 802.445 236.045 814.925C235.085 827.405 242.285 831.725 244.685 828.365C247.085 825.005 250.925 813.005 251.405 807.725L252.845 791.885L243.725 789.005Z" fill="white" stroke="#263238" stroke-width="1.92" stroke-linecap="round" stroke-linejoin="round"/>
<path d="M420.48 797.645C420.48 797.645 418.56 814.925 418.042 823.085C417.523 831.245 427.642 838.925 429.063 839.424C430.483 839.923 431.943 839.424 434.343 833.664C436.743 827.904 436.762 813.984 435.341 809.664C433.92 805.344 431.04 798.624 431.04 798.624L420.48 797.645Z" fill="white" stroke="#263238" stroke-width="1.92" stroke-linecap="round" stroke-linejoin="round"/>
<path d="M353.165 544.685C353.165 544.685 333.792 567.725 327.072 586.925C320.352 606.125 314.995 629.894 310.445 642.605C306.642 653.461 303.437 664.518 300.845 675.725C300.845 675.725 288.365 688.205 285.005 699.245C281.645 710.285 242.285 791.885 242.285 791.885C242.285 791.885 244.685 795.245 246.605 795.725C248.525 796.205 252.845 793.805 252.845 793.805C252.845 793.805 322.445 702.605 326.765 695.885C331.085 689.165 344.717 673.613 346.157 671.213C347.597 668.813 358.445 635.405 362.285 630.605C365.129 626.779 367.622 622.705 369.735 618.432L372.615 620.352L375.975 620.832C375.975 620.832 391.085 651.245 394.925 663.725C398.765 676.205 409.805 744.365 412.685 756.845C415.565 769.325 419.405 801.965 419.405 801.965C421.139 802.536 422.901 803.017 424.685 803.405C427.085 803.885 433.325 801.965 433.325 801.965C433.325 801.965 444.365 752.045 444.845 734.765C445.325 717.485 441.965 679.085 441.965 673.325C441.965 667.565 433.325 588.365 429.005 577.805C424.685 567.245 410.285 548.525 410.285 548.525L353.165 544.685Z" fill="#263238" stroke="#263238" stroke-width="1.92" stroke-linecap="round" stroke-linejoin="round"/>
<path d="M381.485 453.965L352.685 463.085C352.685 463.085 352.685 518.765 353.165 525.965C353.645 533.165 349.805 545.165 352.205 548.045C354.605 550.925 366.125 562.445 387.245 562.925C408.365 563.405 414.125 556.685 414.125 556.685L418.445 537.965C418.445 537.965 432.365 500.525 432.365 494.765C432.365 489.005 418.445 472.205 410.285 465.485C402.125 458.765 381.485 453.965 381.485 453.965Z" fill="white" stroke="#263238" stroke-width="1.92" stroke-linecap="round" stroke-linejoin="round"/>
<path d="M307.085 519.725C300.953 523.853 294.537 527.542 287.885 530.765L249.485 549.965L253.805 559.085C263.171 557.413 272.627 556.291 282.125 555.725C294.605 555.245 315.725 547.085 317.165 544.685C318.605 542.285 323.405 529.325 323.405 529.325L307.085 519.725Z" fill="white" stroke="#263238" stroke-width="1.92" stroke-linecap="round" stroke-linejoin="round"/>
<path d="M377.645 454.445C377.645 454.445 357.005 511.085 356.045 519.245C355.085 527.405 346.925 548.045 346.445 550.925C345.965 553.805 332.525 583.085 332.525 583.085C332.525 583.085 346.925 537.965 348.365 528.845C349.152 523.015 348.493 517.08 346.445 511.565C346.445 511.565 336.71 532.224 335.27 533.664C333.83 535.104 324.058 551.597 324.058 551.597L307.085 519.725C307.085 519.725 325.805 487.085 329.645 481.805C333.485 476.525 341.645 462.125 347.405 459.245C353.165 456.365 377.645 454.445 377.645 454.445Z" fill="#01DC82" stroke="#263238" stroke-width="1.92" stroke-linecap="round" stroke-linejoin="round"/>
<path d="M405.965 461.645C405.965 461.645 391.085 524.045 391.085 534.125C391.085 544.205 389.645 575.405 388.205 592.685C386.765 609.965 383.885 665.165 383.885 665.165C393.095 666.576 402.439 666.898 411.725 666.125C425.165 664.685 448.205 655.565 448.205 655.565C448.205 655.565 436.205 595.085 431.405 580.685C427.367 568.235 424.003 555.576 421.325 542.765C421.325 541.325 434.285 499.085 434.285 493.325C434.285 487.565 411.245 463.085 405.965 461.645Z" fill="#01DC82" stroke="#263238" stroke-width="1.92" stroke-linecap="round" stroke-linejoin="round"/>
<path d="M236.698 553.574C236.984 549.935 236.323 546.283 234.778 542.976C232.166 537.83 230.746 536.237 234.931 537.37C239.117 538.502 241.574 546.701 241.574 546.701L236.698 553.574Z" fill="white" stroke="#263238" stroke-width="1.92" stroke-linecap="round" stroke-linejoin="round"/>
<path d="M263.712 557.03C263.712 557.03 258.221 565.709 254.918 564.922C251.616 564.134 236.966 556.8 236.697 553.574C236.429 550.349 239.213 540.653 241.632 541.075C244.051 541.498 263.712 557.03 263.712 557.03Z" fill="white" stroke="#263238" stroke-width="1.92" stroke-linecap="round" stroke-linejoin="round"/>
<path d="M426.24 402.758C427.492 406.483 428.436 410.304 429.063 414.182C428.884 416.546 428.446 418.884 427.757 421.152C427.757 421.152 435.61 428.141 436.051 429.888C436.493 431.635 431.693 434.246 431.693 434.246C431.693 434.246 432.115 452.563 432.115 453.869C432.115 455.174 410.746 456.058 410.746 456.058L388.416 482.227L377.952 456.499L382.752 442.099C382.752 442.099 368.352 433.805 373.594 421.152C378.835 408.499 390.605 401.53 402.394 399.782C410.068 398.779 417.856 399.071 425.434 400.646L426.24 402.758Z" fill="white" stroke="#263238" stroke-width="1.92" stroke-linecap="round" stroke-linejoin="round"/>
<path d="M410.669 456.058L399.725 453.965L399.092 468.691L410.669 456.058Z" fill="#263238" stroke="#263238" stroke-width="1.92" stroke-linecap="round" stroke-linejoin="round"/>
<path d="M423.207 422.842C423.207 424.378 422.65 425.606 421.939 425.606C421.229 425.606 420.672 424.378 420.672 422.842C420.672 421.306 421.248 420.096 421.939 420.096C422.63 420.096 423.207 421.325 423.207 422.842Z" fill="#263238"/>
<path d="M418.982 418.406C418.982 418.406 420.25 415.872 424.896 417.139" stroke="#263238" stroke-width="1.92" stroke-linecap="round" stroke-linejoin="round"/>
<path d="M429.561 438.72C429.561 438.72 424.051 439.565 421.881 436.589" stroke="#263238" stroke-width="1.92" stroke-linecap="round" stroke-linejoin="round"/>
<path d="M427.238 408.077C427.238 408.077 412.858 404.582 410.227 409.824C407.597 415.066 409.805 417.677 407.616 422.477C405.427 427.277 397.152 433.382 397.152 433.382C397.152 433.382 389.299 424.646 386.669 429.005C384.038 433.363 384.922 439.91 387.552 442.099C390.182 444.288 397.574 442.963 397.574 442.963L386.246 448.205C386.246 448.205 386.669 454.752 376.205 457.363C365.741 459.974 353.165 453.005 354.835 444.288C356.506 435.571 370.963 430.33 370.963 430.33C370.963 430.33 355.603 411.571 368.352 397.69C381.101 383.808 405.869 390.278 405.869 390.278C405.869 390.278 409.363 386.438 419.309 385.478C429.254 384.518 433.709 394.637 433.709 400.32C433.709 406.003 427.238 408.077 427.238 408.077Z" fill="#263238" stroke="#263238" stroke-width="1.92" stroke-linecap="round" stroke-linejoin="round"/>
<path d="M1151.73 263.04L1146.6 164.006L1061.47 210.259L1063.39 217.939L1095.59 234.374L944.083 531.302L463.238 662.054L130.829 435.187C127.883 433.176 124.259 432.417 120.754 433.078C117.248 433.738 114.149 435.765 112.138 438.71C110.126 441.656 109.367 445.28 110.028 448.786C110.689 452.291 112.715 455.39 115.661 457.402L453.12 687.744C455.382 689.289 458.061 690.106 460.8 690.086C461.988 690.089 463.17 689.927 464.314 689.606L956.89 555.686C958.698 555.196 960.383 554.333 961.838 553.152C963.293 551.972 964.485 550.5 965.338 548.832L1119.55 246.662L1151.73 263.04Z" fill="#263238" stroke="#263238" stroke-width="1.92" stroke-linecap="round" stroke-linejoin="round"/>
<path d="M1149.81 255.36L1144.68 156.327L1061.47 210.259L1093.67 226.695L942.163 523.623L461.318 654.375L128.909 427.507C125.963 425.496 122.339 424.737 118.833 425.398C115.328 426.059 112.229 428.085 110.218 431.031C108.206 433.976 107.447 437.601 108.108 441.106C108.769 444.611 110.795 447.71 113.741 449.722L451.2 680.064C453.461 681.609 456.141 682.427 458.88 682.407C460.068 682.409 461.25 682.247 462.394 681.927L954.969 548.007C956.778 547.516 958.463 546.653 959.918 545.472C961.373 544.292 962.565 542.82 963.417 541.152L1117.63 238.983L1149.81 255.36Z" fill="#01DC82" stroke="#263238" stroke-width="1.92" stroke-linecap="round" stroke-linejoin="round"/>
<path d="M1135.97 173.472L1080.65 209.28L1106.59 222.509L948.787 531.84L459.552 664.8L123.552 435.437C123.135 435.153 122.666 434.954 122.172 434.852C121.678 434.749 121.168 434.745 120.672 434.84C120.177 434.934 119.705 435.125 119.283 435.402C118.861 435.68 118.498 436.037 118.215 436.455C117.639 437.295 117.421 438.329 117.608 439.33C117.796 440.331 118.373 441.217 119.213 441.792L456.749 672.192C457.388 672.63 458.144 672.864 458.919 672.864C459.255 672.857 459.59 672.812 459.917 672.73L952.493 538.791C953.007 538.656 953.488 538.415 953.904 538.085C954.321 537.754 954.664 537.341 954.912 536.871L1113.48 226.157L1139.42 239.386L1135.97 173.472Z" fill="white"/>
<path d="M416.294 565.882L413.664 576C410.68 581.742 407.225 587.226 403.334 592.397C396.998 600.787 374.246 624.192 374.246 624.192L367.814 632.122L367.065 639.072L372.288 641.088C372.288 641.088 374.899 642.106 377.03 643.2C379.161 644.294 384.71 645.293 386.419 644.006C388.128 642.72 392.179 632.294 392.179 632.294L393.715 624.25C393.715 624.25 420.749 603.034 426.931 596.602C433.113 590.17 438.451 584.39 440.256 580.666C442.061 576.941 440.582 565.517 440.582 565.517L416.294 565.882Z" fill="white" stroke="#263238" stroke-width="1.92" stroke-linecap="round" stroke-linejoin="round"/>
<path d="M415.622 516.807L410.88 567.802C415.395 569.426 420.013 570.748 424.704 571.757C432.288 573.37 448.128 569.184 448.128 569.184C448.128 569.184 445.689 526.733 442.521 511.2C439.353 495.667 430.521 484.051 424.838 482.112" fill="#01DC82"/>
<path d="M415.622 516.807L410.88 567.802C415.395 569.426 420.013 570.748 424.704 571.757C432.288 573.37 448.128 569.184 448.128 569.184C448.128 569.184 445.689 526.733 442.521 511.2C439.353 495.667 430.521 484.051 424.838 482.112" stroke="#263238" stroke-width="1.92" stroke-linecap="round" stroke-linejoin="round"/>
<path d="M1023.72 828.365H1371.24" stroke="#263238" stroke-width="1.92" stroke-linecap="round" stroke-linejoin="round"/>
<path d="M981.485 828.365H1006.44" stroke="#263238" stroke-width="1.92" stroke-linecap="round" stroke-linejoin="round"/>
<path d="M353.645 828.365H960.365" stroke="#263238" stroke-width="1.92" stroke-linecap="round" stroke-linejoin="round"/>
<path d="M63.7246 828.365H336.365" stroke="#263238" stroke-width="1.92" stroke-linecap="round" stroke-linejoin="round"/>
</svg>
