<svg width="1031" height="1031" viewBox="0 0 1031 1031" fill="none" xmlns="http://www.w3.org/2000/svg">
<path d="M941.406 431.185C840.904 259.049 568.287 320.352 512.613 236.635C484.095 193.828 452.196 144.072 405.925 118.235C361.819 93.4911 310.681 84.8101 266.101 88.068C106.894 99.7183 39.4045 242.161 69.984 398.585C110.812 607.238 295.773 820.387 515.5 821.872C630.436 822.738 740.258 781.498 826.243 723.494L828.161 722.195C914.146 663.655 1018.15 562.596 941.406 431.185Z" fill="#01DC82"/>
<path opacity="0.7" d="M941.406 431.185C840.904 259.049 568.287 320.352 512.613 236.635C484.095 193.828 452.196 144.072 405.925 118.235C361.819 93.4911 310.681 84.8101 266.101 88.068C106.894 99.7183 39.4045 242.161 69.984 398.585C110.812 607.238 295.773 820.387 515.5 821.872C630.436 822.738 740.258 781.498 826.243 723.494L828.161 722.195C914.146 663.655 1018.15 562.596 941.406 431.185Z" fill="white"/>
<path d="M161.228 443.701H150.052C138.059 443.701 126.557 448.465 118.077 456.946C109.597 465.426 104.833 476.928 104.833 488.921V737.062C104.833 749.055 109.597 760.557 118.077 769.037C126.557 777.517 138.059 782.282 150.052 782.282H303.383C315.376 782.282 326.877 777.517 335.358 769.037C343.838 760.557 348.602 749.055 348.602 737.062" stroke="#263238" stroke-width="2.27461" stroke-linecap="round" stroke-linejoin="round" stroke-dasharray="9.1 9.1"/>
<path d="M336.106 209.561V160.547C336.106 153.213 339.015 146.179 344.195 140.987C349.375 135.796 356.403 132.871 363.737 132.855H563.132C570.477 132.855 577.52 135.772 582.714 140.966C587.907 146.159 590.825 153.203 590.825 160.547" stroke="#263238" stroke-width="2.27461" stroke-linecap="round" stroke-linejoin="round" stroke-dasharray="9.1 9.1"/>
<path d="M515.5 973.594C733.605 973.594 910.414 948.889 910.414 918.415C910.414 887.94 733.605 863.236 515.5 863.236C297.395 863.236 120.586 887.94 120.586 918.415C120.586 948.889 297.395 973.594 515.5 973.594Z" fill="#01DC82"/>
<path opacity="0.5" d="M515.5 973.594C733.605 973.594 910.414 948.889 910.414 918.415C910.414 887.94 733.605 863.236 515.5 863.236C297.395 863.236 120.586 887.94 120.586 918.415C120.586 948.889 297.395 973.594 515.5 973.594Z" fill="white"/>
<path d="M887.773 275.318V646.602C887.773 658.739 882.953 670.379 874.373 678.963C865.793 687.548 854.155 692.373 842.017 692.378H188.982C176.845 692.373 165.207 687.548 156.627 678.963C148.046 670.379 143.226 658.739 143.226 646.602V275.318C143.226 274.225 143.226 273.256 143.371 272.102C144.175 260.552 149.329 249.737 157.794 241.838C166.259 233.939 177.404 229.545 188.982 229.542H842.017C853.608 229.547 864.765 233.952 873.232 241.868C881.699 249.784 886.845 260.62 887.629 272.184C887.732 273.174 887.773 274.246 887.773 275.318Z" fill="white" stroke="#263238" stroke-width="2.27461" stroke-linecap="round" stroke-linejoin="round"/>
<path d="M165.496 289.257H867.834V632.23C867.834 643.605 863.315 654.514 855.272 662.557C847.229 670.601 836.32 675.119 824.945 675.119H208.407C197.032 675.119 186.122 670.601 178.079 662.557C170.036 654.514 165.517 643.605 165.517 632.23V289.257H165.496Z" fill="#263238"/>
<path opacity="0.2" d="M867.855 289.257V632.23C867.915 643.541 863.481 654.413 855.527 662.456C847.573 670.499 836.751 675.054 825.439 675.119H207.912C196.6 675.054 185.778 670.499 177.824 662.456C169.87 654.413 165.436 643.541 165.496 632.23V289.257H867.855Z" fill="white"/>
<path d="M887.629 272.184H143.371C144.175 260.634 149.329 249.819 157.794 241.921C166.259 234.022 177.405 229.628 188.982 229.624H842.018C853.595 229.628 864.741 234.022 873.206 241.921C881.671 249.819 886.825 260.634 887.629 272.184V272.184Z" fill="#01DC82" stroke="#263238" stroke-width="2.27461" stroke-miterlimit="10"/>
<path d="M234.821 250.822C234.821 252.424 234.345 253.991 233.455 255.324C232.564 256.656 231.299 257.695 229.818 258.308C228.337 258.922 226.708 259.082 225.136 258.77C223.564 258.457 222.12 257.685 220.987 256.552C219.853 255.419 219.082 253.975 218.769 252.403C218.456 250.831 218.617 249.201 219.23 247.721C219.843 246.24 220.882 244.974 222.215 244.084C223.547 243.193 225.114 242.718 226.717 242.718C228.866 242.718 230.927 243.572 232.447 245.092C233.967 246.611 234.821 248.672 234.821 250.822Z" fill="#263238"/>
<path d="M269.092 250.822C269.092 252.424 268.616 253.991 267.726 255.324C266.835 256.656 265.57 257.695 264.089 258.308C262.608 258.922 260.979 259.082 259.407 258.77C257.835 258.457 256.391 257.685 255.258 256.552C254.124 255.419 253.353 253.975 253.04 252.403C252.727 250.831 252.888 249.201 253.501 247.721C254.114 246.24 255.153 244.974 256.486 244.084C257.818 243.193 259.385 242.718 260.988 242.718C263.137 242.718 265.198 243.572 266.718 245.092C268.238 246.611 269.092 248.672 269.092 250.822V250.822Z" fill="#263238"/>
<path d="M295.258 258.925C299.734 258.925 303.362 255.297 303.362 250.822C303.362 246.346 299.734 242.718 295.258 242.718C290.783 242.718 287.155 246.346 287.155 250.822C287.155 255.297 290.783 258.925 295.258 258.925Z" fill="#263238"/>
<path d="M867.834 289.257V632.23C867.834 643.605 863.316 654.514 855.272 662.557C847.229 670.601 836.32 675.119 824.945 675.119H208.406C198.479 675.118 188.859 671.672 181.188 665.369C173.517 659.067 168.27 650.299 166.342 640.56V640.437C165.817 637.719 165.555 634.957 165.558 632.189V289.257H867.834Z" stroke="#263238" stroke-width="2.27461" stroke-miterlimit="10"/>
<path d="M867.175 342.292C864.168 340.603 860.97 339.281 857.649 338.354L853.793 321.136H837.42L833.606 338.354C830.265 339.265 827.052 340.588 824.038 342.292L809.253 332.827L797.686 344.354L806.985 359.139C805.283 362.153 803.96 365.367 803.047 368.706L785.829 372.521V388.893L803.047 392.749C803.949 396.105 805.273 399.334 806.985 402.358L797.521 417.246L809.109 428.814L823.976 419.349C826.984 421.056 830.19 422.386 833.523 423.308L837.358 440.505H853.669L857.504 423.308C860.828 422.377 864.026 421.047 867.031 419.349L867.794 419.844V341.88L867.175 342.292ZM845.648 402.09C841.463 402.09 837.371 400.849 833.892 398.523C830.412 396.198 827.701 392.892 826.1 389.025C824.499 385.158 824.082 380.903 824.9 376.799C825.718 372.694 827.735 368.925 830.695 365.967C833.656 363.009 837.428 360.996 841.533 360.182C845.638 359.368 849.893 359.79 853.758 361.394C857.624 362.999 860.926 365.713 863.248 369.195C865.571 372.677 866.808 376.769 866.804 380.955C866.804 383.732 866.256 386.482 865.193 389.047C864.13 391.613 862.571 393.944 860.606 395.907C858.641 397.87 856.309 399.426 853.742 400.487C851.176 401.548 848.425 402.093 845.648 402.09V402.09Z" fill="#263238"/>
<path d="M572.102 358.891V324.373L535.81 316.311C533.852 309.298 531.084 302.538 527.562 296.165L531.954 289.257H360.602L364.829 295.979C361.265 302.324 358.494 309.083 356.581 316.105L320.27 324.188V358.788L356.581 366.892C358.494 373.966 361.264 380.779 364.829 387.182L344.89 418.545L369.324 442.959L400.667 422.999C407.025 426.575 413.789 429.379 420.813 431.35L428.896 467.538H463.331L471.455 431.267C478.457 429.287 485.198 426.484 491.539 422.916L522.902 442.876L547.316 418.462L527.501 387.099C531.013 380.737 533.781 373.991 535.749 366.995L572.102 358.891ZM446.32 386.233C437.498 386.233 428.875 383.617 421.541 378.717C414.206 373.816 408.489 366.85 405.114 358.7C401.738 350.55 400.855 341.583 402.576 332.931C404.296 324.279 408.544 316.332 414.782 310.094C421.019 303.857 428.967 299.609 437.618 297.888C446.27 296.167 455.238 297.05 463.388 300.426C471.537 303.802 478.503 309.518 483.404 316.853C488.305 324.188 490.921 332.811 490.921 341.632C490.923 347.49 489.772 353.291 487.531 358.703C485.291 364.116 482.005 369.034 477.863 373.176C473.721 377.318 468.803 380.603 463.391 382.844C457.978 385.084 452.177 386.236 446.32 386.233V386.233Z" fill="#263238"/>
<path d="M343.076 595.918L344.54 568.514L316.146 560.513C314.828 554.882 312.877 549.417 310.331 544.224L327.487 520.139L309.094 499.746L283.402 514.18C278.491 511.091 273.239 508.579 267.751 506.695L262.843 477.58L235.46 476.322L227.542 504.798C221.9 506.063 216.431 508.002 211.252 510.572L187.189 493.437L166.754 511.809L181.312 537.522C178.191 542.412 175.671 547.659 173.806 553.152L165.558 554.513V591.629L171.579 593.32C172.828 598.97 174.76 604.447 177.332 609.63L165.496 626.229L166.28 640.437V640.56L178.508 654.108L204.241 639.571C209.144 642.723 214.414 645.265 219.933 647.138L224.758 675.099L224.985 676.274L252.368 677.718L253.09 675.099L260.286 649.262C265.953 647.993 271.449 646.055 276.659 643.488L300.681 660.603L321.095 642.251L306.661 616.517C309.753 611.634 312.239 606.392 314.063 600.908L343.076 595.918ZM270.349 553.131C265.658 547.914 259.526 544.205 252.727 542.474C245.928 540.742 238.768 541.066 232.153 543.405C225.539 545.743 219.766 549.991 215.566 555.611C211.366 561.231 208.927 567.97 208.557 574.976C208.188 581.982 209.905 588.941 213.491 594.971C217.077 601.001 222.371 605.832 228.703 608.853C235.035 611.874 242.121 612.949 249.064 611.943C256.008 610.936 262.496 607.892 267.71 603.197C274.67 596.908 278.856 588.118 279.351 578.75C279.845 569.383 276.609 560.201 270.349 553.214V553.131Z" fill="#263238"/>
<path d="M562.101 555.07C563.161 550.826 563.722 546.473 563.772 542.1L583.464 531.79L578.02 511.809L555.792 512.84C553.541 509.106 550.863 505.646 547.812 502.53L554.39 481.271L536.45 470.961L521.439 487.333C517.203 486.311 512.867 485.757 508.51 485.683L498.2 465.991L478.24 471.414L479.292 493.663C475.557 495.914 472.097 498.592 468.982 501.643L447.702 495.066L437.392 512.984L453.888 527.975C452.821 532.202 452.274 536.544 452.259 540.904L432.525 551.214L437.969 571.174L460.239 570.122C462.446 573.876 465.113 577.339 468.177 580.432L461.558 601.588L479.518 611.898L494.447 595.65C498.688 596.717 503.044 597.265 507.417 597.279L517.727 616.992L537.687 611.569L536.801 592.557L536.656 589.299C540.444 587.07 543.947 584.39 547.09 581.319L568.349 587.917L577.133 572.576L578.618 569.978L562.101 555.07ZM514.944 567.194C509.825 568.606 504.402 568.466 499.363 566.791C494.325 565.117 489.897 561.984 486.641 557.789C483.385 553.594 481.449 548.527 481.077 543.231C480.705 537.934 481.914 532.646 484.552 528.038C487.189 523.429 491.136 519.708 495.891 517.346C500.647 514.984 505.997 514.087 511.262 514.769C516.528 515.452 521.472 517.683 525.468 521.179C529.464 524.676 532.332 529.28 533.708 534.409C535.541 541.244 534.597 548.526 531.082 554.668C527.567 560.81 521.766 565.313 514.944 567.194V567.194Z" fill="#263238"/>
<path d="M790.406 590.206L794.942 562.782L767.188 551.626C766.558 545.781 765.222 540.035 763.208 534.512L783.189 512.263L767.023 489.581L739.475 501.272C734.901 497.606 729.903 494.504 724.587 492.034L722.979 462.156L695.554 457.62L684.316 485.25C678.497 485.934 672.775 487.283 667.263 489.271L644.953 469.291L622.374 485.457L634.086 512.984C630.862 517.008 628.064 521.354 625.735 525.954C625.425 526.594 625.096 527.233 624.807 527.872L594.949 529.522L590.392 556.905L594.887 558.719L618.147 568.102C618.781 573.919 620.118 579.638 622.126 585.134L602.104 607.527L618.291 630.209L645.819 618.456C650.378 622.154 655.37 625.284 660.686 627.776L662.232 657.51L689.636 662.046L700.853 634.622C706.686 633.985 712.419 632.641 717.927 630.621L740.196 650.602L762.878 634.416L751.166 606.867C754.897 602.289 758.048 597.268 760.548 591.918L790.406 590.206ZM713.493 588.969C707.724 593.108 700.857 595.444 693.76 595.68C686.663 595.916 679.655 594.043 673.624 590.296C667.592 586.549 662.807 581.098 659.873 574.631C656.94 568.165 655.99 560.974 657.143 553.967C658.297 546.961 661.503 540.454 666.355 535.27C671.207 530.085 677.488 526.456 684.402 524.842C691.317 523.227 698.555 523.699 705.202 526.199C711.848 528.698 717.604 533.112 721.741 538.883C727.284 546.624 729.524 556.25 727.969 565.643C726.415 575.035 721.193 583.426 713.452 588.969H713.493Z" fill="#263238"/>
<path d="M418.751 387.182H203.107C188.177 387.182 176.074 399.285 176.074 414.215V712.772C176.074 727.701 188.177 739.804 203.107 739.804H418.751C433.681 739.804 445.784 727.701 445.784 712.772V414.215C445.784 399.285 433.681 387.182 418.751 387.182Z" fill="#01DC82" stroke="#263238" stroke-width="2.27461" stroke-miterlimit="10"/>
<path opacity="0.2" d="M418.751 387.182H203.107C188.177 387.182 176.074 399.285 176.074 414.215V712.772C176.074 727.701 188.177 739.804 203.107 739.804H418.751C433.681 739.804 445.784 727.701 445.784 712.772V414.215C445.784 399.285 433.681 387.182 418.751 387.182Z" fill="black"/>
<path d="M470.879 440.856V739.413C470.882 742.964 470.184 746.482 468.827 749.764C467.47 753.046 465.479 756.029 462.969 758.541C460.458 761.054 457.477 763.047 454.196 764.406C450.915 765.766 447.398 766.466 443.846 766.466H228.202C224.652 766.463 221.137 765.761 217.859 764.4C214.58 763.039 211.601 761.046 209.093 758.534C206.585 756.022 204.596 753.04 203.24 749.759C201.884 746.478 201.187 742.963 201.19 739.413V440.856C201.19 433.69 204.035 426.817 209.1 421.748C214.166 416.679 221.036 413.828 228.202 413.823H443.846C451.016 413.823 457.892 416.671 462.961 421.741C468.031 426.81 470.879 433.686 470.879 440.856Z" fill="white" stroke="#263238" stroke-width="2.27461" stroke-linecap="round" stroke-linejoin="round"/>
<path d="M470.879 440.856V456.836H201.19V440.856C201.19 433.69 204.035 426.817 209.1 421.748C214.166 416.679 221.036 413.828 228.202 413.823H443.846C451.016 413.823 457.892 416.671 462.961 421.741C468.031 426.81 470.879 433.686 470.879 440.856Z" fill="#01DC82" stroke="#263238" stroke-width="2.27461" stroke-miterlimit="10"/>
<path d="M292.908 475.353H226.553V486.488H292.908V475.353Z" fill="#01DC82"/>
<path d="M292.908 575.133H226.553V586.268H292.908V575.133Z" fill="#01DC82"/>
<path d="M292.908 665.614H226.553V676.748H292.908V665.614Z" fill="#01DC82"/>
<path d="M414.999 502.922H226.553V511.087H414.999V502.922Z" fill="#263238"/>
<path d="M381.017 518.531H226.553V526.491H381.017V518.531Z" fill="#263238"/>
<path d="M401.245 533.893H226.553V541.852H401.245V533.893Z" fill="#263238"/>
<path d="M401.245 549.234H226.553V557.194H401.245V549.234Z" fill="#263238"/>
<path d="M414.999 593.402H226.553V601.568H414.999V593.402Z" fill="#263238"/>
<path d="M381.017 609.012H226.553V616.971H381.017V609.012Z" fill="#263238"/>
<path d="M401.245 624.374H226.553V632.333H401.245V624.374Z" fill="#263238"/>
<path d="M414.999 692.75H226.553V700.915H414.999V692.75Z" fill="#263238"/>
<path d="M381.017 708.38H226.553V716.339H381.017V708.38Z" fill="#263238"/>
<path d="M401.245 723.741H226.553V731.701H401.245V723.741Z" fill="#263238"/>
<path d="M774.839 206.798V327.466C774.839 331.7 774.005 335.893 772.384 339.805C770.763 343.716 768.387 347.27 765.392 350.263C762.397 353.256 758.842 355.63 754.929 357.248C751.017 358.866 746.823 359.698 742.589 359.695H464.673C460.439 359.698 456.246 358.866 452.333 357.248C448.421 355.63 444.865 353.256 441.87 350.263C438.875 347.27 436.5 343.716 434.879 339.805C433.258 335.893 432.423 331.7 432.423 327.466V206.798C432.429 198.247 435.828 190.047 441.875 184C447.922 177.953 456.122 174.554 464.673 174.548H742.589C751.143 174.548 759.345 177.946 765.393 183.994C771.441 190.042 774.839 198.245 774.839 206.798Z" fill="white" stroke="#222221" stroke-width="2.27461" stroke-miterlimit="10"/>
<path d="M774.839 206.798V209.561H432.423V206.798C432.429 198.247 435.828 190.047 441.875 184C447.922 177.953 456.122 174.554 464.673 174.548H742.589C751.143 174.548 759.345 177.946 765.393 183.994C771.441 190.042 774.839 198.245 774.839 206.798Z" fill="#01DC82" stroke="#263238" stroke-width="2.27461" stroke-miterlimit="10"/>
<path d="M482.736 197.828C482.044 198.522 481.162 198.994 480.202 199.186C479.242 199.378 478.246 199.281 477.341 198.906C476.436 198.532 475.662 197.898 475.118 197.084C474.574 196.27 474.283 195.313 474.283 194.333C474.283 193.354 474.574 192.397 475.118 191.583C475.662 190.768 476.436 190.134 477.341 189.76C478.246 189.386 479.242 189.288 480.202 189.48C481.162 189.672 482.044 190.145 482.736 190.838C483.656 191.768 484.172 193.024 484.172 194.333C484.172 195.642 483.656 196.898 482.736 197.828V197.828Z" fill="#263238"/>
<path d="M505.665 197.828C504.974 198.522 504.092 198.994 503.132 199.186C502.171 199.378 501.176 199.281 500.271 198.906C499.366 198.532 498.592 197.898 498.048 197.084C497.503 196.27 497.213 195.313 497.213 194.333C497.213 193.354 497.503 192.397 498.048 191.583C498.592 190.768 499.366 190.134 500.271 189.76C501.176 189.386 502.171 189.288 503.132 189.48C504.092 189.672 504.974 190.145 505.665 190.838C506.586 191.768 507.102 193.024 507.102 194.333C507.102 195.642 506.586 196.898 505.665 197.828V197.828Z" fill="#263238"/>
<path d="M528.594 197.828C527.902 198.522 527.021 198.994 526.06 199.186C525.1 199.378 524.104 199.281 523.199 198.906C522.294 198.532 521.521 197.898 520.976 197.084C520.432 196.27 520.142 195.313 520.142 194.333C520.142 193.354 520.432 192.397 520.976 191.583C521.521 190.768 522.294 190.134 523.199 189.76C524.104 189.386 525.1 189.288 526.06 189.48C527.021 189.672 527.902 190.145 528.594 190.838C529.514 191.768 530.031 193.024 530.031 194.333C530.031 195.642 529.514 196.898 528.594 197.828Z" fill="#263238"/>
<path d="M566.185 231.748H454.259V328.497H566.185V231.748Z" stroke="#263238" stroke-width="2.27461" stroke-linecap="round" stroke-linejoin="round" stroke-dasharray="9.1 9.1"/>
<path d="M712.277 231.748H583.464V238.553H712.277V231.748Z" fill="#263238"/>
<path d="M682.275 245.832H583.464V252.616H682.275V245.832Z" fill="#263238"/>
<path d="M730.588 259.853H583.464V266.72H730.588V259.853Z" fill="#263238"/>
<path d="M708.751 273.524H583.464V280.391H708.751V273.524Z" fill="#263238"/>
<path d="M784.201 506.283H721.207C713.77 506.283 707.742 512.311 707.742 519.748V556.719C707.742 564.156 713.77 570.184 721.207 570.184H784.201C791.637 570.184 797.665 564.156 797.665 556.719V519.748C797.665 512.311 791.637 506.283 784.201 506.283Z" fill="white" stroke="#263238" stroke-width="2.27461" stroke-linecap="round" stroke-linejoin="round"/>
<path d="M736.753 525.501L719.453 536.347L735.516 550.575" stroke="#263238" stroke-width="2.27461" stroke-linecap="round" stroke-linejoin="round"/>
<path d="M768.261 551.606L783.808 538.368L765.869 526.614" stroke="#263238" stroke-width="2.27461" stroke-linecap="round" stroke-linejoin="round"/>
<path d="M745.167 559.771L757.93 519.727" stroke="#263238" stroke-width="2.27461" stroke-linecap="round" stroke-linejoin="round"/>
<path d="M612.125 908.249C612.125 908.249 552.327 925.384 543.976 928.354C536.388 931.034 515.809 938.251 500.365 936.004C498.874 935.789 497.4 935.472 495.952 935.055C480.302 930.395 473.27 926.044 471.208 916.208C469.146 906.373 476.941 899.115 484.446 894.475C491.952 889.836 532.656 884.99 532.656 884.99L542.492 887.877L612.125 908.249Z" fill="#01DC82"/>
<path d="M500.365 936.004C498.874 935.789 497.4 935.472 495.952 935.055C480.302 930.395 473.27 926.044 471.208 916.208C469.146 906.373 476.941 899.115 484.446 894.475C491.952 889.836 532.656 884.99 532.656 884.99L542.492 887.877C533.584 892.001 500.427 894.248 493.189 898.413C485.952 902.579 482.467 910.414 486.735 921.095C489.024 926.663 495.127 932.127 500.365 936.004Z" fill="white"/>
<path d="M603.135 910.682C603.135 910.682 558.225 922.312 540.409 929.756C522.593 937.2 488.632 940.458 476.487 925.116C464.342 909.775 475.085 896.537 487.189 893.588C499.293 890.64 523.769 886 537.131 887.877" stroke="#263238" stroke-width="2.27461" stroke-linecap="round" stroke-linejoin="round"/>
<path d="M501.251 935.2C501.251 935.2 478.404 922.663 485.992 905.094C491.601 892.145 522.077 894.949 537.171 887.877" stroke="#263238" stroke-width="2.27461" stroke-linecap="round" stroke-linejoin="round"/>
<path d="M794.262 938.787C793.644 944.973 791.478 950.768 785.292 954.417C781.168 956.85 775.312 958.294 766.92 958.211C745.949 957.943 706.524 942.953 706.524 942.953L669.614 922.539L688.811 892.166L694.07 883.918L707.638 886.969C707.638 886.969 718.875 893.341 730.175 898.413C741.475 903.486 768.92 904.599 778.591 912.373C788.262 920.147 795.314 928.601 794.262 938.787Z" fill="#01DC82"/>
<path d="M794.262 938.787C793.643 944.973 791.478 950.768 785.292 954.417C787.074 948.336 786.71 941.827 784.261 935.983C780.137 926.725 766.713 918.559 749.063 917.198C731.412 915.837 717.906 907.589 710.833 903.898C705.307 901.032 693.657 894.764 688.811 892.166L694.069 883.918L707.637 886.969C707.637 886.969 718.875 893.341 730.175 898.413C741.475 903.486 768.92 904.599 778.591 912.373C788.261 920.147 795.313 928.601 794.262 938.787Z" fill="white"/>
<path d="M677.8 928.271C704.369 943.715 733.733 953.744 764.198 957.778C770.92 958.583 778.735 958.706 783.23 953.654C784.426 952.195 785.316 950.511 785.848 948.7C786.379 946.89 786.541 944.992 786.323 943.118C785.519 933.632 777.539 926.127 768.796 922.353C760.053 918.58 750.424 917.714 741.124 915.631C731.875 913.546 722.935 910.275 714.524 905.898C707.843 902.414 701.389 898.187 694.028 896.619C686.667 895.052 677.903 896.949 673.965 903.383" stroke="#263238" stroke-width="2.27461" stroke-linecap="round" stroke-linejoin="round"/>
<path d="M780.756 956.232C784.211 954.578 787.231 952.139 789.576 949.11C791.921 946.081 793.526 942.546 794.262 938.787C795.602 929.859 790.509 920.869 783.354 915.384C776.199 909.899 767.229 907.301 758.383 905.465C749.537 903.63 740.485 902.393 732.01 899.032C719.081 893.959 706.318 883.979 692.832 887.547" stroke="#263238" stroke-width="2.27461" stroke-linecap="round" stroke-linejoin="round"/>
<path d="M719.452 608.826L656.994 585.072L656.21 584.763C656.21 584.763 656.437 583.113 656.623 580.639C657.014 575.649 657.22 567.524 654.87 564.782C651.385 560.658 641.529 564.122 631.899 559.709C622.27 555.297 604.475 563.194 604.475 563.194C604.475 563.194 591.608 560.823 585.917 570.102C583.03 577.587 584.02 588.66 584.02 588.66L582.844 589.072C575.4 591.856 534.903 607.094 526.345 613.218C516.881 619.92 506.406 688.729 503.045 708.936C499.684 729.144 493.704 747.351 496.735 754.3C499.766 761.249 543.274 794.757 568.307 803.396C593.34 812.036 682.109 809.582 682.109 809.582C682.109 809.582 683.552 809.191 686.13 808.366C701.141 803.541 754.403 783.622 782.673 736.856C782.714 736.938 755.33 647.179 719.452 608.826ZM550.698 724.566C546.099 727.824 548.636 740.444 548.636 740.444L540.821 733.557L560.451 685.285L568.823 722.401C568.823 722.401 555.296 721.329 550.698 724.566V724.566ZM707.74 755.228C705.574 756.342 713.926 733.144 709.966 727.886C706.007 722.628 694.068 723.123 694.068 723.123L695.079 716.792L702.151 680.501L704.502 677.718C704.502 677.718 728.793 719.349 733.143 734.031C733.143 734.072 706.667 755.228 707.74 755.228Z" fill="#01DC82"/>
<path d="M601.526 458.279L569.277 492.509C569.277 492.509 564.843 496.447 566.596 506.365C568.349 516.284 572.473 524.923 575.586 525.501C578.051 525.932 580.548 526.153 583.051 526.161C583.051 526.161 589.959 541.131 594.866 547.007C594.866 547.007 596.557 570.122 595.65 576.535C595.65 576.535 607.238 586.66 618.146 587.938C629.054 589.217 645.901 572.514 645.901 572.514L650.025 552.059C650.025 552.059 659.922 537.048 660.582 533.048C661.242 529.047 665.778 530.078 668.005 528.099C670.232 526.119 675.367 517.315 676.253 508.984C677.14 500.654 677.161 491.086 667.49 493.89C659.097 491.643 664.356 473.909 664.356 473.909L649.612 460.919L601.526 458.279Z" fill="white"/>
<path opacity="0.5" d="M656.994 585.072C656.508 586.346 655.95 587.592 655.324 588.804C650.004 598.825 626.827 617.94 626.827 617.94L619.816 596.392L615.981 617.94C608.248 614.558 584.659 594.124 584.659 594.124C584.659 594.124 583.855 592.206 582.886 589.217L584.061 588.804C584.061 588.804 583.071 577.649 585.958 570.246C591.608 560.967 604.516 563.338 604.516 563.338C604.516 563.338 622.311 555.441 631.941 559.854C641.57 564.266 651.427 560.843 654.911 564.926C658.396 569.009 656.252 584.845 656.252 584.845L656.994 585.072Z" fill="white"/>
<path opacity="0.2" d="M719.452 608.826L656.994 585.072L656.211 584.763C656.211 584.763 656.438 583.113 656.623 580.639L655.324 588.742L646.086 601.279C655.961 604.915 665.602 609.157 674.954 613.981C679.432 616.379 683.084 620.068 685.438 624.569C687.791 629.07 688.737 634.175 688.151 639.22L676.645 737.68L671.923 793.581L686.172 808.366C701.183 803.541 754.445 783.622 782.715 736.856C782.715 736.938 755.331 647.179 719.452 608.826ZM707.74 755.228C705.575 756.342 713.926 733.144 709.967 727.886C706.008 722.628 694.069 723.123 694.069 723.123L695.08 716.792L702.152 680.501L704.503 677.718C704.503 677.718 728.793 719.349 733.144 734.031C733.144 734.072 706.668 755.228 707.74 755.228Z" fill="black"/>
<path opacity="0.2" d="M572.967 727.886L563.255 695.43C563.255 695.43 545.831 636.024 533.892 621.384L537.026 663.16C537.026 663.16 526.716 713.06 517.293 727.886C507.87 742.712 505.766 746.444 517.293 746.444C528.819 746.444 556.883 768.796 556.883 768.796L554.718 750.238L572.967 727.886ZM548.491 740.444L540.676 733.557L560.306 685.285L568.678 722.401C568.678 722.401 555.234 721.391 550.635 724.628C546.037 727.865 548.491 740.444 548.491 740.444Z" fill="black"/>
<path d="M594.867 547.007C594.867 547.007 596.64 564.514 594.867 572.514" stroke="#263238" stroke-width="2.27461" stroke-linecap="round" stroke-linejoin="round"/>
<path d="M647.694 570.164C647.713 564.534 648.363 558.925 649.632 553.441" stroke="#263238" stroke-width="2.27461" stroke-linecap="round" stroke-linejoin="round"/>
<path d="M652.376 471.332C652.376 471.332 662.974 484.632 662.417 494.694C661.861 504.757 661.077 516.675 661.345 528.346C661.613 540.017 642.602 564.472 632.828 566.638C623.054 568.803 614.641 569.359 608.393 563.112C602.145 556.864 595.897 548.183 587.773 537.048C579.649 525.913 581.587 501.478 581.587 501.478" stroke="#263238" stroke-width="2.27461" stroke-linecap="round" stroke-linejoin="round"/>
<path d="M626.848 510.778C626.203 514.432 625.926 518.142 626.023 521.851C625.811 524.977 626.783 528.069 628.745 530.511C629.921 531.707 631.611 532.676 631.838 534.326C631.833 535.069 631.626 535.796 631.242 536.431C630.857 537.066 630.308 537.586 629.653 537.935C628.33 538.602 627.056 539.359 625.838 540.203" stroke="#263238" stroke-width="2.27461" stroke-linecap="round" stroke-linejoin="round"/>
<path d="M610.083 541.481C610.083 541.481 611.3 549.379 621.878 551.028" stroke="#263238" stroke-width="2.27461" stroke-linecap="round" stroke-linejoin="round"/>
<path d="M611.177 516.799C611.177 519.088 610.188 520.923 608.971 520.923C607.754 520.923 606.765 519.088 606.765 516.799C606.765 514.51 607.754 512.675 608.971 512.675C610.188 512.675 611.177 514.531 611.177 516.799Z" fill="#263238"/>
<path d="M642.745 517.789C642.745 520.078 641.755 521.913 640.539 521.913C639.322 521.913 638.333 520.057 638.333 517.789C638.333 515.521 639.322 513.665 640.539 513.665C641.755 513.665 642.745 515.5 642.745 517.789Z" fill="#263238"/>
<path d="M636.374 507.788C636.374 507.788 646.684 497.478 655.324 508.984" stroke="#263238" stroke-width="4.5492" stroke-linecap="round" stroke-linejoin="round"/>
<path d="M614.661 507.994C614.661 507.994 608.145 500.695 597.876 507.994" stroke="#263238" stroke-width="4.5492" stroke-linecap="round" stroke-linejoin="round"/>
<path d="M595.65 556.74C595.65 556.74 601.939 574.061 615.982 578.989C630.024 583.917 648.664 558.369 648.664 558.369L647.695 555.049C647.695 555.049 635.467 570.927 621.879 568.225C608.29 565.524 594.867 547.09 594.867 547.09L595.65 556.74Z" fill="#263238"/>
<path d="M583.051 525.501C583.051 525.501 574.679 528.449 572.452 521.933C570.225 515.417 562.596 498.241 569.277 492.509C575.957 486.776 581.319 500.076 581.319 500.076" stroke="#263238" stroke-width="2.27461" stroke-linecap="round" stroke-linejoin="round"/>
<path d="M661.324 529.047C661.324 529.047 669.098 530.614 671.325 524.098C673.552 517.583 681.181 500.406 674.5 494.674C667.819 488.941 662.458 502.241 662.458 502.241" stroke="#263238" stroke-width="2.27461" stroke-linecap="round" stroke-linejoin="round"/>
<path d="M581.318 516.799C584.226 516.341 586.851 514.792 588.659 512.469C589.763 510.429 590.463 508.196 590.721 505.891C591.486 501.506 591.873 497.063 591.876 492.612C591.785 490.873 591.944 489.13 592.35 487.436C592.969 485.732 593.922 484.169 595.154 482.838C598.062 479.415 601.588 476.528 604.371 472.982C605.863 471.308 606.999 469.348 607.708 467.22C608.417 465.093 608.685 462.844 608.495 460.61C614.875 465.869 622.329 469.668 630.333 471.737C638.338 473.807 646.699 474.098 654.828 472.59C669.572 469.703 683.696 456.774 681.985 440.526C681.662 437.801 680.494 435.247 678.644 433.22C676.795 431.194 674.358 429.797 671.675 429.226C664.396 427.411 657.86 431.288 651.261 433.783C639.24 438.319 627.466 430.525 615.32 429.226C605.01 428.092 592.164 429.391 586.762 439.722C586.762 439.722 568.204 441.907 559.956 457.249C551.708 472.59 567.317 493.808 567.317 493.808C567.317 493.808 573.503 486.22 581.607 501.561L581.318 516.799Z" fill="#263238"/>
<path d="M653.654 467.414C653.654 467.414 648.829 492.571 661.428 504.757C661.428 504.757 664.191 497.189 666.975 495.334C668.982 490.869 669.832 485.971 669.446 481.091C669.061 476.212 667.452 471.508 664.769 467.414C655.448 452.774 653.654 467.414 653.654 467.414Z" fill="#263238"/>
<path opacity="0.2" d="M676.625 438.794C675.518 442.226 673.643 445.361 671.142 447.959C668.64 450.556 665.579 452.549 662.191 453.784C644.705 460.919 627.735 453.021 610.208 451.475C595.918 450.196 580.144 463.105 579.133 477.786" stroke="white" stroke-width="2.27461" stroke-linecap="round" stroke-linejoin="round"/>
<path opacity="0.2" d="M568.348 473.909C568.562 468.116 570.421 462.503 573.707 457.727C576.994 452.951 581.572 449.209 586.906 446.938" stroke="white" stroke-width="2.27461" stroke-linecap="round" stroke-linejoin="round"/>
<path d="M590.825 570.164C598.514 578.177 607.792 584.498 618.064 588.722C618.064 588.722 638.993 582.639 649.633 568.102" stroke="#263238" stroke-width="2.27461" stroke-linecap="round" stroke-linejoin="round"/>
<path d="M612.213 533.589C621.509 529.325 625.588 518.334 621.324 509.038C617.061 499.743 606.069 495.664 596.774 499.927C587.478 504.191 583.399 515.183 587.663 524.478C591.926 533.773 602.918 537.852 612.213 533.589Z" stroke="#263238" stroke-width="2.27461" stroke-linecap="round" stroke-linejoin="round"/>
<path d="M648.094 535.219C658.244 533.973 665.462 524.734 664.216 514.584C662.97 504.433 653.731 497.215 643.58 498.461C633.43 499.708 626.212 508.946 627.458 519.097C628.705 529.247 637.943 536.465 648.094 535.219Z" stroke="#263238" stroke-width="2.27461" stroke-linecap="round" stroke-linejoin="round"/>
<path d="M594.866 563.256C592.99 563.748 591.233 564.614 589.699 565.801C588.165 566.988 586.886 568.471 585.938 570.164C582.659 575.937 584.639 594.103 584.639 594.103C584.639 594.103 601.568 610.847 615.981 617.92L620.229 594.021L626.827 617.92C626.827 617.92 649.138 602.145 655.324 588.804C655.324 588.804 657.386 573.236 655.324 568.184C654.855 566.781 653.963 565.558 652.77 564.682C651.578 563.807 650.143 563.323 648.664 563.297" stroke="#263238" stroke-width="2.27461" stroke-linecap="round" stroke-linejoin="round"/>
<path d="M568.349 723.143C568.349 723.143 561.73 678.81 552.925 660.727" stroke="#263238" stroke-width="2.27461" stroke-linecap="round" stroke-linejoin="round"/>
<path d="M533.893 621.384C539.019 628.669 543.595 636.327 547.584 644.293" stroke="#263238" stroke-width="2.27461" stroke-linecap="round" stroke-linejoin="round"/>
<path d="M707.74 654.479C709.517 647.066 711.953 639.828 715.019 632.848" stroke="#263238" stroke-width="2.27461" stroke-linecap="round" stroke-linejoin="round"/>
<path d="M694.07 723.143C694.07 723.143 698.834 692.75 704.525 667.717" stroke="#263238" stroke-width="2.27461" stroke-linecap="round" stroke-linejoin="round"/>
<path d="M702.152 680.46C706.756 674.356 713.23 669.924 720.587 667.841" stroke="#263238" stroke-width="2.27461" stroke-linecap="round" stroke-linejoin="round"/>
<path d="M656.231 584.763C656.231 584.763 694.646 600.124 719.452 608.847C719.452 608.847 749.969 637.529 782.693 736.938C782.693 736.938 752.712 787.375 695.677 803.541" stroke="#263238" stroke-width="2.27461" stroke-linecap="round" stroke-linejoin="round"/>
<path d="M705.575 757.022L733.144 734.072C733.144 734.072 747.722 722.999 762.878 730.566" stroke="#263238" stroke-width="2.27461" stroke-linecap="round" stroke-linejoin="round"/>
<path d="M704.523 677.718C704.523 677.718 727.308 711.39 733.144 734.072" stroke="#263238" stroke-width="2.27461" stroke-linecap="round" stroke-linejoin="round"/>
<path d="M548.801 741.722L540.738 734.072C540.738 734.072 528.779 732.01 515.211 741.062" stroke="#263238" stroke-width="2.27461" stroke-linecap="round" stroke-linejoin="round"/>
<path d="M540.738 734.072C540.738 734.072 550.759 701.08 560.636 684.192" stroke="#263238" stroke-width="2.27461" stroke-linecap="round" stroke-linejoin="round"/>
<path d="M584.061 588.804C584.061 588.804 528.779 609.548 523.356 615.61C517.932 621.672 497.333 737.66 496.776 750.939C496.302 762.816 539.357 789.478 560.698 800.716" stroke="#263238" stroke-width="2.27461" stroke-linecap="round" stroke-linejoin="round"/>
<path d="M625.405 628.003C625.405 628.725 625.191 629.43 624.79 630.03C624.389 630.631 623.819 631.098 623.152 631.375C622.485 631.651 621.751 631.723 621.043 631.582C620.335 631.442 619.685 631.094 619.174 630.584C618.664 630.073 618.316 629.423 618.176 628.715C618.035 628.007 618.107 627.273 618.383 626.606C618.66 625.939 619.127 625.369 619.728 624.968C620.328 624.567 621.033 624.353 621.755 624.353C622.235 624.35 622.711 624.443 623.155 624.625C623.599 624.808 624.003 625.076 624.342 625.416C624.682 625.755 624.95 626.159 625.133 626.603C625.315 627.047 625.408 627.523 625.405 628.003V628.003Z" fill="#263238"/>
<path d="M689.367 822.284H563.585C562.803 822.284 562.053 821.974 561.5 821.421C560.947 820.868 560.637 820.118 560.637 819.336C560.637 818.554 560.947 817.804 561.5 817.251C562.053 816.698 562.803 816.387 563.585 816.387H689.367C690.149 816.387 690.899 816.698 691.452 817.251C692.005 817.804 692.316 818.554 692.316 819.336C692.316 820.118 692.005 820.868 691.452 821.421C690.899 821.974 690.149 822.284 689.367 822.284Z" fill="#263238"/>
<path d="M693.781 812.428L710.627 733.247C710.889 732.02 710.872 730.749 710.579 729.528C710.285 728.308 709.723 727.169 708.932 726.194C708.141 725.219 707.142 724.434 706.008 723.895C704.874 723.357 703.634 723.079 702.379 723.082H555.359C554.114 723.082 552.885 723.358 551.76 723.891C550.635 724.423 549.643 725.199 548.854 726.161C548.065 727.124 547.499 728.249 547.198 729.457C546.896 730.664 546.867 731.924 547.111 733.144L562.225 809.686C562.596 811.565 563.597 813.262 565.063 814.496C566.529 815.73 568.372 816.426 570.287 816.47L685.326 819.109C687.293 819.153 689.213 818.509 690.756 817.29C692.299 816.07 693.369 814.351 693.781 812.428V812.428Z" fill="white" stroke="#263238" stroke-width="2.27461" stroke-linecap="round" stroke-linejoin="round"/>
<path d="M640.128 768.775C640.124 771.095 639.432 773.362 638.14 775.288C636.849 777.215 635.015 778.716 632.871 779.6C630.726 780.485 628.368 780.715 626.093 780.26C623.819 779.805 621.73 778.686 620.091 777.044C618.453 775.402 617.337 773.312 616.886 771.036C616.435 768.761 616.669 766.403 617.557 764.26C618.446 762.117 619.95 760.286 621.879 758.998C623.808 757.71 626.075 757.022 628.395 757.022C629.937 757.022 631.465 757.326 632.89 757.917C634.314 758.508 635.609 759.374 636.699 760.466C637.788 761.558 638.652 762.853 639.24 764.279C639.829 765.705 640.13 767.233 640.128 768.775Z" fill="#263238"/>
<path d="M663.201 730.649H680.666" stroke="#263238" stroke-width="2.27461" stroke-linecap="round" stroke-linejoin="round"/>
<path d="M579.793 730.649H646.086" stroke="#263238" stroke-width="2.27461" stroke-linecap="round" stroke-linejoin="round"/>
<path d="M694.069 896.496L680.666 931.673C680.666 931.673 646.478 923.054 602.702 914.085C556.905 904.702 509.087 892.557 484.281 849.029C481.27 843.729 479.25 837.461 480.672 831.522C484.24 816.49 503.808 812.407 516.696 810.902C524.798 810.026 532.94 809.571 541.089 809.541C545.213 809.541 558.925 807.294 562.245 809.747C567.233 813.386 572.557 816.542 578.143 819.171C585.463 822.284 692.316 816.387 692.316 816.387C694.175 812.333 695.313 807.986 695.677 803.541C712.482 795.004 751.351 787.787 767.847 790.983C793.684 795.994 808.757 811.067 805.891 826.862C803.025 842.657 745.949 885.01 694.069 896.496Z" fill="#263238"/>
<path d="M694.069 896.496C694.069 896.496 661.551 887.877 634.992 869.937C608.434 851.998 587.69 831.172 550.677 835.481" stroke="white" stroke-width="2.27461" stroke-linecap="round" stroke-linejoin="round"/>
<path d="M628.91 865.71C645.694 860.885 658.005 850.018 671.469 839.605C685.671 828.207 700.923 818.182 717.019 809.665" stroke="white" stroke-width="2.27461" stroke-linecap="round" stroke-linejoin="round"/>
<path d="M622.992 519.727H627.92" stroke="#263238" stroke-width="2.27461" stroke-linecap="round" stroke-linejoin="round"/>
</svg>
