<svg width="47" height="32" viewBox="0 0 47 32" fill="none" xmlns="http://www.w3.org/2000/svg">
<path d="M19.1397 22.8571V9.14286L31.0162 16L19.1397 22.8571ZM45.613 4.99674C45.3525 4.02809 44.842 3.14489 44.1327 2.43561C43.4234 1.72633 42.5402 1.21586 41.5716 0.955321C38.0063 0 23.7112 0 23.7112 0C23.7112 0 9.4158 0 5.85077 0.955321C4.88213 1.21588 3.99896 1.72637 3.28968 2.43564C2.5804 3.14492 2.06992 4.0281 1.80936 4.99674C0.854034 8.56204 0.854034 16 0.854034 16C0.854034 16 0.854034 23.4382 1.80936 27.003C2.06989 27.9716 2.58036 28.8548 3.28965 29.5641C3.99893 30.2734 4.88212 30.7839 5.85077 31.0444C9.4158 32 23.7112 32 23.7112 32C23.7112 32 38.0063 32 41.5716 31.0444C42.5402 30.7839 43.4235 30.2734 44.1327 29.5641C44.842 28.8548 45.3525 27.9716 45.613 27.003C46.5683 23.438 46.5683 15.9997 46.5683 15.9997C46.5683 15.9997 46.5683 8.56204 45.613 4.99674Z" fill="white"/>
</svg>
